<svg xmlns="http://www.w3.org/2000/svg" width="71" height="71" fill="none" viewBox="0 0 71 71">
  <g clip-path="url(#clip0)">
    <path stroke="#21AF9C" stroke-miterlimit="10" stroke-width="2.5" d="M1.25 17a14.09 14.09 0 001 4.7 47.742 47.742 0 005.09 10 108.28 108.28 0 0030.84 31.19 53.233 53.233 0 0011.17 5.83 11.612 11.612 0 009.38-.39 31.27 31.27 0 007.72-5.13 15.352 15.352 0 003-3.52.69.69 0 00-.06-.93c-.65-.7-1.26-1.45-2-2.11a56.244 56.244 0 00-8.71-6.48A32.83 32.83 0 0052.61 47c-.71-.26-.8-.26-1.17.4-.5.89-.92 1.83-1.39 2.75A38.016 38.016 0 0148 54a4 4 0 01-4.87 1.72 16.637 16.637 0 01-3-1.24 59.173 59.173 0 01-12.59-9.24 61.322 61.322 0 01-10-12.49 19.151 19.151 0 01-2.37-5 4.2 4.2 0 011.75-5 9.705 9.705 0 011.34-.75c.95-.47 1.93-.88 2.89-1.34.8-.39 1.59-.82 2.38-1.23a.721.721 0 00.37-1.05c-.23-.51-.4-1-.64-1.54a59 59 0 00-8.18-12.42c-.92-1.07-2-2-3-3a.57.57 0 00-.79-.06c-.514.307-1.011.64-1.49 1A28.08 28.08 0 002.58 12a12.35 12.35 0 00-1.33 5v0z"/>
    <path fill="#F4794D" d="M40.05 2c9.48.21 17 3.27 23 9.74a26.82 26.82 0 016.77 13.74 1.46 1.46 0 01-1.2 1.69A1.48 1.48 0 0167 26c-.26-1.1-.47-2.23-.83-3.31A25.09 25.09 0 0051.68 7.15a27.15 27.15 0 00-13.59-2.08c-.79.07-1.58.19-2.37.3A1.47 1.47 0 0134 4.21a1.42 1.42 0 011.22-1.71c1.84-.24 3.68-.42 4.83-.5z"/>
    <path fill="#F4794D" d="M39.52 11.71c7.1.29 12.62 3 16.36 9A16.47 16.47 0 0158 26.4a1.491 1.491 0 01-1.12 1.8 1.45 1.45 0 01-1.72-1.2 15.22 15.22 0 00-13.43-12.18 19.527 19.527 0 00-4.95.13 1.43 1.43 0 01-1.7-1.18 1.4 1.4 0 011.2-1.67c1.14-.18 2.29-.28 3.24-.39zM38.33 21.48a11 11 0 0110.77 8.25c.098.372.131.757.1 1.14A1.42 1.42 0 0147.77 32a1.46 1.46 0 01-1.44-1.23A7.33 7.33 0 0044.4 27a8.28 8.28 0 00-7.4-2.44 1.499 1.499 0 01-1.86-1.17 1.46 1.46 0 011.41-1.72c.56-.08 1.17-.13 1.78-.19z"/>
  </g>
  <defs>
    <clipPath id="clip0">
      <path fill="#fff" d="M0 0h70.86v70.78H0z"/>
    </clipPath>
  </defs>
</svg>
