<svg xmlns="http://www.w3.org/2000/svg" width="73" height="85" fill="none" viewBox="0 0 73 85">
  <g clip-path="url(#clip0)">
    <path stroke="#22AB99" stroke-miterlimit="10" stroke-width="3" d="M67.29 25.22h-1.22a3.32 3.32 0 00-3.32 3.32V42.6a3.32 3.32 0 003.32 3.32h1.22a3.32 3.32 0 003.32-3.32V28.54a3.32 3.32 0 00-3.32-3.32zM66.68 45.93s1.11 11.33-9.37 11.33M36.05 57.26c12.294 0 22.26-9.966 22.26-22.26 0-12.294-9.966-22.26-22.26-22.26-12.294 0-22.26 9.966-22.26 22.26 0 12.294 9.966 22.26 22.26 22.26zM6.04 25.22H4.82a3.32 3.32 0 00-3.32 3.32V42.6a3.32 3.32 0 003.32 3.32h1.22a3.32 3.32 0 003.32-3.32V28.54a3.32 3.32 0 00-3.32-3.32z"/>
    <path fill="#FAFBFC" stroke="#F4794D" stroke-miterlimit="10" stroke-width="3" d="M54.67 52.5H40.61a3.32 3.32 0 00-3.32 3.32v2.88a3.32 3.32 0 003.32 3.32h14.06a3.32 3.32 0 003.32-3.32v-2.88a3.32 3.32 0 00-3.32-3.32z"/>
    <path stroke="#22AB99" stroke-miterlimit="10" stroke-width="3" d="M5.43 25.22S11.78 1.5 36.05 1.5c24.27 0 30.63 23.72 30.63 23.72M5.43 84.41s2.71-16.34 11.9-16.34h35.85a12.84 12.84 0 0111.74 7.51 21.37 21.37 0 011.76 8.83"/>
  </g>
  <defs>
    <clipPath id="clip0">
      <path fill="#fff" d="M0 0h72.11v84.66H0z"/>
    </clipPath>
  </defs>
</svg>
