<svg xmlns="http://www.w3.org/2000/svg" width="83" height="81" fill="none" viewBox="0 0 83 81">
  <g clip-path="url(#clip0)">
    <path fill="#22AB99" d="M76.65 25.73h-4a27.9 27.9 0 00-.72-1.7l2.84-2.84a6.11 6.11 0 000-8.63L70.19 8a6.12 6.12 0 00-8.63 0l-2.84 2.84c-.56-.26-1.13-.5-1.7-.71v-4A6.11 6.11 0 0050.92 0h-6.48a6.11 6.11 0 00-6.1 6.1v4c-.57.21-1.14.45-1.7.71L33.8 8a6.12 6.12 0 00-8.63 0l-4.58 4.58a6.11 6.11 0 000 8.63L23.36 24a26.466 26.466 0 013.58-.28l.13-.25-4.36-4.36a3.11 3.11 0 010-4.39l4.58-4.58a3.2 3.2 0 014.39 0L36 14.46l1-.46a23.838 23.838 0 013.3-1.38l1-.34V6.1A3.102 3.102 0 0144.44 3h6.48A3.1 3.1 0 0154 6.1v6.15l1 .34c1.15.384 2.27.855 3.35 1.41l1 .49 4.36-4.36a3.2 3.2 0 014.39 0l4.58 4.58a3.11 3.11 0 010 4.39l-4.36 4.36.49 1a23.637 23.637 0 011.38 3.3l.34 1h6.15a3.1 3.1 0 013.1 3.1v6.48a3.1 3.1 0 01-3.1 3.1H70.5l-.34 1a23.135 23.135 0 01-1.38 3.3l-.49 1 4.36 4.36a3.1 3.1 0 010 4.38L68.07 60a3.18 3.18 0 01-4.39 0l-4.34-4.3c-.003.605-.04 1.21-.11 1.81 0 .74-.1 1.45-.19 2.14l2.52 2.51a6.1 6.1 0 008.63 0l4.58-4.58a6.1 6.1 0 000-8.62l-2.84-2.84c.26-.567.5-1.137.72-1.71h4a6.1 6.1 0 006.1-6.1v-6.48a6.11 6.11 0 00-6.1-6.1z"/>
    <path fill="#F4794D" d="M47.68 19.94a14.248 14.248 0 00-11 5.23c1.026.325 2.028.72 3 1.18A11.27 11.27 0 1154.71 43c.35 1.011.637 2.043.86 3.09a14.28 14.28 0 00-7.89-26.18v.03z"/>
    <path fill="#22AB99" d="M29.07 80.24h-4.85a5 5 0 01-4.94-4.95v-2.74l-.82-.34-1.94 1.94a5 5 0 01-7 0l-3.43-3.43a5 5 0 010-7L8 61.78c-.12-.27-.23-.55-.34-.82H5A5 5 0 010 56v-4.84a5 5 0 015-4.94h2.69c.11-.28.22-.55.34-.82l-1.94-1.94a5 5 0 010-7L9.52 33a5 5 0 017 0l1.94 2 .82-.34v-2.77a5 5 0 014.94-4.95h4.85a5 5 0 015 4.95v2.74l.82.34L36.78 33a5 5 0 017 0l3.43 3.43a5 5 0 010 7l-1.94 1.97c.12.27.23.54.34.82h2.74a5 5 0 014.95 4.94V56a5 5 0 01-4.95 5h-2.74c-.11.27-.22.55-.34.82l1.94 1.94a5 5 0 010 7l-3.43 3.43a5 5 0 01-7 0l-1.94-1.94-.82.34v2.74a5 5 0 01-4.95 4.91zM17.85 68.57l1 .49c.78.395 1.589.73 2.42 1l1 .34v4.88a2 2 0 001.94 1.95h4.85A2 2 0 0031 75.29v-4.88l1-.34a16.127 16.127 0 002.42-1l1-.49L38.9 72a2 2 0 002.76 0l3.43-3.43a2 2 0 000-2.76l-3.46-3.46.49-1c.398-.778.733-1.588 1-2.42l.34-1h4.88a2 2 0 001.95-2v-4.77a2 2 0 00-1.95-1.94h-4.87l-.34-1a17.05 17.05 0 00-1-2.42l-.49-1 3.46-3.46a1.93 1.93 0 00.55-1.34 2 2 0 00-.56-1.38l-3.43-3.43a2 2 0 00-2.76 0l-3.46 3.46-1-.49a16.137 16.137 0 00-2.42-1l-1-.34v-4.93a2 2 0 00-1.95-1.95h-4.85a1.938 1.938 0 00-1.94 1.95v4.88l-1 .34c-.831.27-1.64.605-2.42 1l-1 .49-3.46-3.46a2 2 0 00-2.75 0l-3.44 3.44a2 2 0 000 2.76l3.46 3.45-.49 1a17.05 17.05 0 00-1 2.42l-.34 1H5a1.941 1.941 0 00-2 1.95V56a2 2 0 002 2h4.83l.34 1c.267.832.602 1.642 1 2.42l.49 1-3.45 3.42a2 2 0 000 2.76l3.43 3.4a2 2 0 002.75 0l3.46-3.43z"/>
    <path fill="#F4794D" d="M26.65 64a11.07 11.07 0 1111.07-11 11.08 11.08 0 01-11.07 11zm0-19.14A8.07 8.07 0 1034.72 53a8.09 8.09 0 00-8.07-8.12v-.02z"/>
  </g>
  <defs>
    <clipPath id="clip0">
      <path fill="#fff" d="M0 0h82.75v80.24H0z"/>
    </clipPath>
  </defs>
</svg>
