<svg xmlns="http://www.w3.org/2000/svg" width="79" height="79" fill="none" viewBox="0 0 79 79">
  <g clip-path="url(#clip0)">
    <path stroke="#22AB99" stroke-miterlimit="10" stroke-width="3" d="M54.58 1.5c11.51 0 21.49 8.92 22.58 19.89a22.9 22.9 0 01-18.39 25.3 19.46 19.46 0 01-8.77-.16 3.38 3.38 0 00-3.14.83c-3.09 2.16-3.2 5.28-3.38 8.5-.23 4.24-1.43 5.43-5.61 5.7-3.45.22-3.45.22-3.56 3.63-.13 3.9-1.53 5.32-5.4 5.53-1.64.08-3.27.28-4.91.34a2.24 2.24 0 00-1.59.87c-1.2 1.21-2.47 2.36-3.6 3.63a4.84 4.84 0 01-5 1.56c-2.47-.52-4.94-1-7.4-1.58a4 4 0 01-3.17-3.16c-.59-2.52-1.07-5.06-1.61-7.58a5 5 0 011.7-4.91c9.37-9.31 18.68-18.68 28.06-28a2.82 2.82 0 00.87-2.89A22.609 22.609 0 0154.58 1.5v0z"/>
    <path stroke="#22AB99" stroke-miterlimit="10" stroke-width="3" d="M66.88 21.53a6 6 0 01-7.48 6 10 10 0 01-8.12-8 6 6 0 016.52-7.67c4.49.3 9.07 5.14 9.08 9.67z"/>
    <path fill="#F4794D" d="M34.12 41A1.81 1.81 0 0136 43.71a6 6 0 01-1.29 1.61c-6.827 6.84-13.657 13.67-20.49 20.49-.4.403-.838.765-1.31 1.08a1.74 1.74 0 01-2.37-.42 1.681 1.681 0 01-.17-2.39 7.58 7.58 0 01.91-1l20.89-20.86c.57-.57 1.06-1.3 1.95-1.22z"/>
  </g>
  <defs>
    <clipPath id="clip0">
      <path fill="#fff" d="M0 0h78.8v78.77H0z"/>
    </clipPath>
  </defs>
</svg>
