<svg xmlns="http://www.w3.org/2000/svg" width="49" height="63" fill="none" viewBox="0 0 49 63">
  <g clip-path="url(#clip0)">
    <path fill="#FBCA7A" d="M37.258 6.842H11.694a4.84 4.84 0 00-3.4 1.39 4.711 4.711 0 00-1.407 3.353v39.273c0 1.258.506 2.464 1.408 3.354a4.84 4.84 0 003.4 1.389h25.563a4.84 4.84 0 003.4-1.39 4.711 4.711 0 001.407-3.353V11.573a4.71 4.71 0 00-1.412-3.346 4.84 4.84 0 00-3.395-1.385zm-.385 43.779H12.091V11.858h24.83l-.048 38.763z"/>
    <path fill="#FAFBFC" d="M47.75 16.044a1.21 1.21 0 01-.85-.348 1.178 1.178 0 01-.352-.838V2.466H35.731a1.21 1.21 0 01-.85-.347 1.178 1.178 0 010-1.677 1.21 1.21 0 01.85-.347H47.75c.319 0 .624.125.85.347.225.223.352.524.352.839v13.53a1.17 1.17 0 01-.335.869 1.204 1.204 0 01-.867.364zM1.202 16.044a1.21 1.21 0 01-.85-.348A1.178 1.178 0 010 14.858V1.186C0 .87.127.57.352.347A1.21 1.21 0 011.202 0H13.34c.331 0 .65.13.884.361a1.225 1.225 0 010 1.744 1.258 1.258 0 01-.884.361H2.524V14.81a1.172 1.172 0 01-.375.915 1.206 1.206 0 01-.947.319zM47.75 63H35.647c-.331 0-.65-.13-.884-.361a1.225 1.225 0 010-1.744c.235-.232.553-.361.884-.361h10.817V48.19c0-.327.132-.641.366-.872a1.26 1.26 0 011.768 0c.234.231.366.545.366.872v13.577a1.17 1.17 0 01-.339.873 1.203 1.203 0 01-.875.36zM13.34 63H1.203a1.21 1.21 0 01-.85-.347A1.178 1.178 0 010 61.814V48.19c0-.315.127-.616.352-.839a1.21 1.21 0 011.7 0c.225.223.352.524.352.839v12.343H13.22c.332 0 .65.13.884.362a1.225 1.225 0 010 1.744 1.259 1.259 0 01-.883.361h.12z"/>
    <path fill="#FFDDAB" d="M33.388 15.225H21.02v21.807h12.367V15.225z" opacity=".7"/>
    <path fill="#22AB99" d="M26.585 30.486H14.543v16.245h12.042V30.486z" opacity=".95"/>
  </g>
  <defs>
    <clipPath id="clip0">
      <path fill="#fff" d="M0 0h49v63H0z"/>
    </clipPath>
  </defs>
</svg>
