<svg id="Layer_3" enable-background="new 0 0 64 64" height="512" viewBox="0 0 64 64" width="512" xmlns="http://www.w3.org/2000/svg"><g><path d="m32 23h8c.552 0 1-.448 1-1v-7.586l1.707-1.707-1.414-1.414-1.707 1.707h-7.586c-.552 0-1 .448-1 1v8c0 .552.448 1 1 1zm1-8h4.586l-3.293 3.293 1.414 1.414 3.293-3.293v4.586h-6z"/><path d="m32 35h8c.552 0 1-.448 1-1v-7.586l1.707-1.707-1.414-1.414-1.707 1.707h-7.586c-.552 0-1 .448-1 1v8c0 .552.448 1 1 1zm1-8h4.586l-3.293 3.293 1.414 1.414 3.293-3.293v4.586h-6z"/><path d="m27 13h2v2h-2z"/><path d="m9 13h16v2h-16z"/><path d="m9 17h2v2h-2z"/><path d="m13 17h16v2h-16z"/><path d="m27 25h2v2h-2z"/><path d="m9 25h16v2h-16z"/><path d="m9 29h2v2h-2z"/><path d="m13 29h16v2h-16z"/><path d="m27 37h2v2h-2z"/><path d="m9 37h16v2h-16z"/><path d="m9 41h2v2h-2z"/><path d="m13 41h16v2h-16z"/><path d="m50 40c1.103 0 2 .897 2 2h2c0-1.858-1.28-3.411-3-3.858v-2.142h-2v2.142c-1.72.447-3 2-3 3.858 0 2.206 1.794 4 4 4 1.103 0 2 .897 2 2s-.897 2-2 2-2-.897-2-2h-2c0 1.858 1.28 3.411 3 3.858v2.142h2v-2.142c1.72-.447 3-2 3-3.858 0-2.206-1.794-4-4-4-1.103 0-2-.897-2-2s.897-2 2-2z"/><path d="m50 32c-.338 0-.669.025-1 .051v-26.051c0-1.654-1.346-3-3-3h-11v-1c0-.552-.448-1-1-1h-18c-.552 0-1 .448-1 1v1h-11c-1.654 0-3 1.346-3 3v54c0 1.654 1.346 3 3 3h42c1.654 0 3-1.346 3-3v-2.051c.331.026.662.051 1 .051 7.168 0 13-5.832 13-13s-5.832-13-13-13zm-4-27c.551 0 1 .449 1 1v26.363c-.688.163-1.359.371-2 .64v-25.003c0-.552-.448-1-1-1h-9v-2zm-29-2h16v6h-16zm17 8c.552 0 1-.448 1-1v-1h8v25.063c-3.602 2.314-6 6.347-6 10.937s2.398 8.623 6 10.937v1.063h-24v-11c0-.552-.448-1-1-1h-11v-36h8v1c0 .552.448 1 1 1zm-25.586 36h8.586v8.586zm38.586 13c0 .551-.449 1-1 1h-42c-.551 0-1-.449-1-1v-54c0-.551.449-1 1-1h11v2h-9c-.552 0-1 .448-1 1v38c0 .276.112.526.293.707l11.999 11.999c.182.182.432.294.708.294h26c.552 0 1-.448 1-1v-1.003c.641.268 1.312.476 2 .64zm3-4c-6.065 0-11-4.935-11-11s4.935-11 11-11 11 4.935 11 11-4.935 11-11 11z"/></g></svg>