<svg id="Capa_1" enable-background="new 0 0 512 512" height="512" viewBox="0 0 512 512" width="512" xmlns="http://www.w3.org/2000/svg"><g><path d="m141 120h230c8.284 0 15-6.716 15-15v-90c0-8.284-6.716-15-15-15h-230c-8.284 0-15 6.716-15 15v90c0 8.284 6.716 15 15 15zm30-75h170c8.284 0 15 6.716 15 15s-6.716 15-15 15h-170c-8.284 0-15-6.716-15-15s6.716-15 15-15z"/><path d="m311 362h90v60h-90z"/><path d="m418 273.878c-12.652 15.9-32.149 26.122-54 26.122s-41.348-10.222-54-26.122c-12.652 15.9-32.149 26.122-54 26.122s-41.348-10.222-54-26.122c-12.652 15.9-32.149 26.122-54 26.122s-41.348-10.222-54-26.122c-12.652 15.9-32.149 26.122-54 26.122-3.052 0-6.052-.22-9-.606v197.606c0 8.284 6.716 15 15 15h35v-165c0-8.284 6.716-15 15-15h120c8.284 0 15 6.716 15 15v165h235c8.284 0 15-6.716 15-15v-197.606c-2.948.386-5.948.606-9 .606-21.851 0-41.348-10.222-54-26.122zm13 163.122c0 8.284-6.716 15-15 15h-120c-8.284 0-15-6.716-15-15v-90c0-8.284 6.716-15 15-15h120c8.284 0 15 6.716 15 15z"/><path d="m111 512h90v-150h-90zm40-95c0-8.284 6.716-15 15-15s15 6.716 15 15v20c0 8.284-6.716 15-15 15s-15-6.716-15-15z"/><path d="m148 270c21.539 0 39-17.461 39-39v-21h-78v21c0 21.539 17.461 39 39 39z"/><path d="m256 270c21.539 0 39-17.461 39-39v-21h-78v21c0 21.539 17.461 39 39 39z"/><path d="m364 270c21.539 0 39-17.461 39-39v-21h-78v21c0 21.539 17.461 39 39 39z"/><path d="m40 270c21.539 0 39-17.461 39-39v-21h-78v21c0 21.539 17.461 39 39 39z"/><path d="m433 210v21c0 21.539 17.461 39 39 39 21.539 0 39-17.461 39-39v-21z"/><path d="m469.927 89.429c-2.278-5.695-7.793-9.429-13.927-9.429h-40v25c0 24.813-20.187 45-45 45h-230c-24.813 0-45-20.187-45-45v-25h-40c-6.134 0-11.649 3.734-13.927 9.429l-36.228 90.571h500.311z"/></g></svg>