<svg id="Capa_1" enable-background="new 0 0 496.46 496.46" height="512" viewBox="0 0 496.46 496.46" width="512" xmlns="http://www.w3.org/2000/svg"><g><g id="XMLID_859_"><g><path d="m231.94 223.32 38.24 166.73c-1.06 3.3-2.28 6.55-3.65 9.75l-6.71 15.64c-.54 1.25-.81 2.59-.81 3.94l.3 55.46h-116.58v-55.28c0-1.47-.36-2.91-1.04-4.2l-29.75-55.97c-15.71-29.58-14.22-65.34 3.9-93.51l13.69-21.26z" fill="#ffe5c2"/></g></g><path d="m181.286 415.36-29.75-55.97c-15.71-29.58-14.22-65.34 3.9-93.51l13.69-21.26 64.617-13.439-1.803-7.86-102.41 21.3-13.69 21.26c-18.12 28.17-19.61 63.93-3.9 93.51l29.75 55.97c.68 1.29 1.04 2.73 1.04 4.2v55.28h39.596v-55.28c0-1.471-.36-2.911-1.04-4.201z" fill="#fed2a4"/><path d="m279.258 488.272v-18.058c0-11.268-9.135-20.403-20.403-20.403h-115.099c-11.268 0-20.403 9.135-20.403 20.403v18.058c0 4.522 3.666 8.187 8.187 8.187h139.53c4.522.001 8.188-3.665 8.188-8.187z" fill="#f37c7c"/><g><g><path d="m459.341 0c8.112 0 14.689 6.576 14.689 14.689v124.041c0 16.86-13.67 30.53-30.52 30.53h-390.56c-16.85 0-30.52-13.67-30.52-30.53v-124.041c0-8.113 6.576-14.689 14.689-14.689z" fill="#e2dee2"/></g></g><g><path d="m421.04 88.49h-55.111l-8.573 8.71h-206.286l-21.538-8.71h-30.002-25.11c-3.05 0-5.52 2.47-5.52 5.52v33.78c0 3.05 2.47 5.52 5.52 5.52h346.62c3.05 0 5.52-2.47 5.52-5.52v-33.78c0-3.05-2.47-5.52-5.52-5.52z" fill="#b5adb6"/><path d="m265.57 369.949-33.63-146.629-34.37 7.148v100.33c0 21.622 17.529 39.151 39.151 39.151z" fill="#fed2a4"/><path d="m212.57 318.967h124.494c15.942 0 28.866-12.924 28.866-28.866v-201.612h-236.4v201.612c0 15.942 12.924 28.866 28.866 28.866z" fill="#97da7b"/><path d="m280.691 301.235-5.824-76.732c-1.526-20.06-18.479-35.772-38.597-35.772-10.339 0-20.058 4.025-27.367 11.334-7.308 7.31-11.333 17.028-11.333 27.366v66.016c0 3.462-3.774 5.623-6.749 3.853-8.457-5.032-14.125-14.259-14.125-24.815v-183.996h-47.166v201.612c0 15.942 12.924 28.866 28.866 28.866h39.174 15 63.22 9.97z" fill="#80d261"/><path d="m159.53 88.489v170.248c0 1.197.825 2.239 1.993 2.501 12.671 2.843 22.598 12.93 25.21 25.687.244 1.191 1.295 2.043 2.511 2.043h113.292c2.221 0 4.365-1.788 4.657-3.99 1.839-13.836 13.111-24.687 27.14-25.891.879-.075 1.597-.875 1.597-1.758v-168.84z" fill="#dbf1d0"/><path d="m161.522 261.237c5.776 1.296 10.97 4.11 15.173 7.983v-180.731h-17.165v170.248c0 1.196.825 2.238 1.992 2.5z" fill="#c1e9af"/><path d="m208.903 200.064c-7.308 7.31-11.333 17.028-11.333 27.366v61.537h82.19l-4.893-64.465c-1.526-20.06-18.479-35.772-38.597-35.772-10.339 0-20.058 4.025-27.367 11.334z" fill="#c1e9af"/><path d="m292.55 88.489c0 24.754-20.067 44.82-44.82 44.82s-44.82-20.067-44.82-44.82z" fill="#ade194"/><g id="XMLID_730_"><g><path d="m271.4 323.31c6.26 21.95 5.8 45.19-1.22 66.74h-57.61v-162.62c0-6.55 2.65-12.47 6.94-16.76s10.22-6.94 16.76-6.94c12.4 0 22.7 9.55 23.64 21.91l5.94 78.25z" fill="#ffe5c2"/></g></g></g></g></svg>