<?xml version="1.0" encoding="iso-8859-1"?>
<!-- Generator: Adobe Illustrator 19.0.0, SVG Export Plug-In . SVG Version: 6.00 Build 0)  -->
<svg version="1.1" id="Capa_1" xmlns="http://www.w3.org/2000/svg" xmlns:xlink="http://www.w3.org/1999/xlink" x="0px" y="0px"
	 viewBox="0 0 512.01 512.01" style="enable-background:new 0 0 512.01 512.01;" xml:space="preserve">
<path style="fill:#C7FFEE;" d="M121.727,49.495L100.625,28.5L51.351,77.524l22.56,22.448
	C87.071,80.727,103.235,63.684,121.727,49.495z"/>
<ellipse style="fill:#6ECAD5;" cx="256.014" cy="223" rx="224.12" ry="223"/>
<path style="opacity:0.1;enable-background:new    ;" d="M44.638,223.004c0-121.036,96.917-219.541,217.746-222.899
	c-2.117-0.059-4.241-0.095-6.374-0.095c-123.777,0-224.119,99.837-224.119,222.994c0,123.158,100.342,222.995,224.12,222.995
	c2.132,0,4.256-0.036,6.374-0.095C141.555,442.546,44.638,344.041,44.638,223.004z"/>
<ellipse style="fill:#FFFFFF;" cx="256.014" cy="223" rx="197.84" ry="196.85"/>
<circle style="fill:#89C947;" cx="244.074" cy="386.11" r="37"/>
<circle style="fill:#60A041;" cx="335.334" cy="135.27" r="37"/>
<circle style="fill:#EE3835;" cx="108.874" cy="287.56" r="37"/>
<circle style="fill:#0481BF;" cx="158.114" cy="354.05" r="37"/>
<circle style="fill:#F7931E;" cx="370.324" cy="343.56" r="37"/>
<circle style="fill:#EE3835;" cx="409.014" cy="292.23" r="37"/>
<g>
	<circle style="fill:#FECF05;" cx="174.524" cy="292.23" r="37"/>
	<circle style="fill:#FECF05;" cx="348.004" cy="283.01" r="37"/>
</g>
<g>
	<path style="fill:#D0D5D5;" d="M296.298,190.399l103.31-102.791c-3.45-3.621-7.034-7.113-10.749-10.465L285.212,180.268
		C289.384,183.096,293.117,186.513,296.298,190.399z"/>
	<path style="fill:#D0D5D5;" d="M296.26,191.142l-0.349-0.427c-3.161-3.861-6.855-7.237-10.979-10.033l-0.503-0.341l0.431-0.428
		L388.842,76.454l0.352,0.317c3.688,3.326,7.313,6.856,10.776,10.491l0.337,0.354L296.26,191.142z M285.992,180.197
		c3.853,2.678,7.327,5.856,10.342,9.461L398.907,87.599c-3.232-3.377-6.604-6.659-10.032-9.767L285.992,180.197z"/>
	<path style="fill:#D0D5D5;" d="M226.81,180.269L123.163,77.142c-3.715,3.352-7.299,6.844-10.749,10.465l103.31,102.792
		C218.905,186.514,222.639,183.096,226.81,180.269z"/>
	<path style="fill:#D0D5D5;" d="M215.763,191.142L111.714,87.616l0.338-0.354c3.462-3.635,7.088-7.165,10.776-10.491l0.352-0.317
		l104.413,103.889l-0.502,0.341c-4.122,2.793-7.816,6.169-10.979,10.032L215.763,191.142z M113.114,87.598l102.575,102.06
		c3.016-3.606,6.491-6.785,10.341-9.46L123.146,77.831C119.718,80.939,116.347,84.221,113.114,87.598z"/>
	<path style="fill:#D0D5D5;" d="M213.06,252.058L109.412,355.185c3.369,3.696,6.879,7.263,10.518,10.694l103.311-102.792
		C219.336,259.923,215.901,256.208,213.06,252.058z"/>
	<path style="fill:#D0D5D5;" d="M119.939,366.575l-0.353-0.333c-3.65-3.442-7.198-7.049-10.544-10.721l-0.322-0.354l0.339-0.338
		L213.133,251.28l0.339,0.496c2.809,4.103,6.201,7.777,10.083,10.923l0.432,0.351L119.939,366.575z M110.104,355.201
		c3.126,3.413,6.425,6.768,9.817,9.981l102.575-102.06c-3.623-2.999-6.817-6.457-9.506-10.29L110.104,355.201z"/>
	<path style="fill:#D0D5D5;" d="M298.963,252.059c-2.842,4.15-6.276,7.865-10.182,11.029l103.311,102.791
		c3.639-3.433,7.149-6.998,10.518-10.695L298.963,252.059z"/>
	<path style="fill:#D0D5D5;" d="M392.083,366.575L288.034,263.05l0.433-0.351c3.881-3.145,7.274-6.82,10.084-10.923l0.339-0.496
		l104.411,103.887l-0.322,0.354c-3.333,3.659-6.88,7.267-10.544,10.722L392.083,366.575z M289.526,263.124L392.1,365.183
		c3.402-3.226,6.701-6.58,9.816-9.982L299.033,252.834C296.344,256.668,293.149,260.125,289.526,263.124z"/>
</g>
<circle style="fill:#0481BF;" cx="398.124" cy="194.05" r="37"/>
<circle style="fill:#F7931E;" cx="99.494" cy="173.24" r="37"/>
<circle style="fill:#0481BF;" cx="310.004" cy="336.01" r="37"/>
<path style="fill:#6ECAD5;" d="M50.778,79.957c-2.007,1.998-5.292,1.997-7.299,0L33.382,69.911c-2.007-1.996-2.007-5.266,0-7.262
	l52.272-52.008c2.007-1.998,5.291-1.998,7.299,0l10.099,10.046c2.007,1.998,2.007,5.265,0,7.263L50.778,79.957z"/>
<path style="fill:#C7FFEE;" d="M256.01,427.35c-113.225,0-205.339-91.669-205.339-204.346c0-112.676,92.115-204.345,205.339-204.345
	c113.225,0,205.34,91.669,205.34,204.345C461.351,335.681,369.235,427.35,256.01,427.35z M256.01,33.659
	c-104.954,0-190.339,84.939-190.339,189.345c0,104.405,85.386,189.346,190.339,189.346c104.954,0,190.34-84.94,190.34-189.346
	C446.351,118.599,360.964,33.659,256.01,33.659z"/>
<path style="fill:#D0D5D5;" d="M169.524,470.191l75.724-157.298c1.984-4.12,6.169-6.742,10.762-6.742
	c4.594,0,8.78,2.622,10.763,6.742l75.724,157.298h41.845L266.773,225.974c-1.983-4.12-6.169-6.743-10.763-6.743
	c-4.593,0-8.778,2.623-10.762,6.743L127.682,470.191H169.524z"/>
<g style="opacity:0.1;">
	<path d="M266.103,224.78c-2.166-3.424-5.962-5.549-10.093-5.549c-4.593,0-8.778,2.623-10.762,6.743L127.682,470.191h20.184
		l117.567-244.217C265.633,225.559,265.86,225.162,266.103,224.78z"/>
</g>
<path style="fill:#0059AD;" d="M311.97,223.004c0,30.747-25.053,55.676-55.96,55.676c-30.902,0-55.957-24.929-55.957-55.676
	c0-30.748,25.055-55.676,55.957-55.676C286.917,167.328,311.97,192.256,311.97,223.004z"/>
<path style="opacity:0.1;enable-background:new    ;" d="M215.149,223.004c0-28.2,21.079-51.488,48.409-55.157
	c-2.47-0.331-4.986-0.518-7.548-0.518c-30.902,0-55.957,24.928-55.957,55.676c0,30.747,25.055,55.676,55.957,55.676
	c2.562,0,5.079-0.188,7.548-0.52C236.228,274.491,215.149,251.203,215.149,223.004z"/>
<ellipse style="fill:#D0D5D5;" cx="256.014" cy="223" rx="23.787" ry="23.667"/>
<path style="fill:#0059AD;" d="M409.529,493.39c0,2.831-2.317,5.146-5.149,5.146H107.35c-2.832,0-5.149-2.315-5.149-5.146v-20.32
	c0-2.831,2.317-5.146,5.149-5.146h297.03c2.832,0,5.149,2.315,5.149,5.146V493.39z"/>
<path style="opacity:0.1;enable-background:new    ;" d="M125.208,493.39v-20.32c0-2.831,2.317-5.146,5.149-5.146h-23.008
	c-2.832,0-5.149,2.315-5.149,5.146v20.319c0,2.831,2.317,5.146,5.149,5.146h23.008C127.525,498.536,125.208,496.221,125.208,493.39z
	"/>
<path style="fill:#0481BF;" d="M476.472,506.863c0,2.83-2.317,5.147-5.149,5.147H40.699c-2.832,0-5.149-2.316-5.149-5.147v-12.88
	c0-2.831,2.317-5.147,5.149-5.147h430.624c2.832,0,5.149,2.316,5.149,5.147V506.863z"/>
<path style="opacity:0.1;enable-background:new    ;" d="M56.075,506.863v-12.88c0-2.831,2.317-5.147,5.149-5.147H40.699
	c-2.832,0-5.149,2.316-5.149,5.147v12.88c0,2.83,2.317,5.147,5.149,5.147h20.526C58.393,512.01,56.075,509.694,56.075,506.863z"/>
<g>
</g>
<g>
</g>
<g>
</g>
<g>
</g>
<g>
</g>
<g>
</g>
<g>
</g>
<g>
</g>
<g>
</g>
<g>
</g>
<g>
</g>
<g>
</g>
<g>
</g>
<g>
</g>
<g>
</g>
</svg>
