<svg height="464pt" viewBox="0 0 464 464" width="464pt" xmlns="http://www.w3.org/2000/svg"><path d="m330.863281 338.59375 59.855469-261.890625-17.582031-3.519531-59.160157 262.921875c5.832032.160156 11.480469 1.015625 16.886719 2.488281zm0 0"/><path d="m32 0-32 32h32zm0 0"/><path d="m144 0h-96v48h-48v144h144zm-32 176h-96v-104h40v16h-24v72h64v-32h16zm-48-36.6875-21.65625-21.65625 11.3125-11.3125 10.34375 10.34375 50.34375-50.34375 11.3125 11.3125zm0 0"/><path d="m44.3125 335.710938-4.054688 16.226562c-.167968.695312-.257812 1.421875-.257812 2.125 0 4.21875 3.007812 7.839844 7.160156 8.609375l193.542969 35.839844c1.511719-11.398438 5.632813-21.976563 11.839844-31.046875l-196.34375-39.273438c-5.246094-1.0625-10.582031 2.328125-11.886719 7.519532zm0 0"/><path d="m65.550781 313.753906 199.394531 39.878906c9.085938-7.871093 20.117188-13.554687 32.3125-16.097656l32.964844-146.527344-53.421875-10.6875-15.136719 52.96875-95.742187-19.144531 15.132813-52.96875-21.054688-4.214843v51.039062h-71.464844zm0 0"/><path d="m221.054688 169.175781-24.253907-4.855469-10.722656 37.542969 24.25 4.847657zm0 0"/><path d="m454.167969 47.792969-72.078125-14.417969-5.449219 24.191406 70.960937 14.195313c.773438.160156 1.582032.230469 2.390626.230469h1.785156c6.734375 0 12.214844-5.488282 12.214844-12.214844.007812-5.808594-4.128907-10.839844-9.824219-11.984375zm0 0"/><path d="m345.910156 344.519531c6.691406 3.585938 12.714844 8.214844 17.9375 13.648438l12.617188-55.511719-20.066406-4.007812zm0 0"/><path d="m336 408c0 13.253906-10.746094 24-24 24s-24-10.746094-24-24 10.746094-24 24-24 24 10.746094 24 24zm0 0"/><path d="m376.753906 209.59375 19.957032 3.992188 2.847656-12.554688-14.34375-28.464844zm0 0"/><path d="m312 352c-30.871094 0-56 25.128906-56 56s25.128906 56 56 56 56-25.128906 56-56-25.128906-56-56-56zm0 96c-22.054688 0-40-17.945312-40-40s17.945312-40 40-40 40 17.945312 40 40-17.945312 40-40 40zm0 0"/><path d="m359.96875 283.039062 20.039062 4.007813 13.152344-57.855469-19.976562-3.992187zm0 0"/><path d="m261.054688 177.175781-24.253907-4.855469-10.722656 37.542969 24.257813 4.847657zm0 0"/></svg>