<svg id="Capa_1" enable-background="new 0 0 512 512" height="512" viewBox="0 0 512 512" width="512" xmlns="http://www.w3.org/2000/svg"><g><path d="m511.459 269.824-4.954-.861-14.093-22.606-46.123-49.533v-8.029l-26.182-29.361c-4.134-4.636-10.05-7.287-16.261-7.287h-58.744l-3.091 6.523v202.666h164.837v-39.404l5.151-4.933v-41.049c.001-2.067-.186-4.115-.54-6.126z" fill="#fbc700"/><path d="m345.103 152.146h-39.662l-7.718 6.523v191.592l7.718 11.075h39.662z" fill="#eab900"/><path d="m512 316.999h-26.324c-6.573 0-11.902 5.329-11.902 11.902v17.67c0 6.573 5.329 11.902 11.902 11.902h26.324z" fill="#f27182"/><g><path d="m369.827 294.645h-16.998c-4.267 0-7.726-3.459-7.726-7.726s3.459-7.726 7.726-7.726h16.998c4.267 0 7.726 3.459 7.726 7.726s-3.459 7.726-7.726 7.726z" fill="#ffe559"/></g><path d="m427.219 358.473-3.299 3.635h-67.133l-5.625-3.635h-9.149v34.025h95.128l4.489 2.06h57.453c7.134 0 12.917-5.783 12.917-12.917v-23.168z" fill="#ffe559"/><path d="m345.103 358.473h-39.662l-2.439 2.991v30.519l2.439 2.575h31.309c1.082 0 2.523-2.06 2.523-2.06h5.83z" fill="#ffd500"/><path d="m446.289 188.794h-55.013l-6.761 3.592v57.948l5.81 7.101h67.067l2.67-2.379v-9.701l7.64-6.782h19.316l1.987-1.875z" fill="#7b6c79"/><path d="m387.332 247.648v-49.067c0-5.405 4.382-9.787 9.787-9.787h-45.32c-5.405 0-9.787 4.382-9.787 9.787v49.067c0 5.405 4.382 9.787 9.787 9.787h45.32c-5.405 0-9.787-4.382-9.787-9.787z" fill="#665e68"/><path d="m294.935 65.001h-254.536l-8.548 6.94v292.968h260.206l13.384-6.435v-282.967c0-5.802-4.704-10.506-10.506-10.506z" fill="#60b9fe"/><path d="m36.571 75.507c0-5.802 4.704-10.506 10.506-10.506h-36.571c-5.802 0-10.506 4.704-10.506 10.506v282.966l5.667 6.435h36.571l-5.667-6.435z" fill="#1ca8ff"/><path d="m255.01 121.837h-177.236l-11.327 10.027v131.348l11.206 8.6h177.357c10.262 0 18.58-8.318 18.58-18.58v-112.816c0-10.261-8.319-18.579-18.58-18.579z" fill="#f27182"/><path d="m68.422 253.231v-112.815c0-10.261 8.319-18.58 18.58-18.58h-36.571c-10.261 0-18.58 8.319-18.58 18.58v112.815c0 10.261 8.319 18.58 18.58 18.58h36.571c-10.261 0-18.58-8.318-18.58-18.58z" fill="#ed5469"/><g fill="#dbedff"><path d="m153.798 158.669c-21.038 0-38.154 17.116-38.154 38.155s17.116 38.154 38.154 38.154c21.039 0 38.155-17.116 38.155-38.154s-17.116-38.155-38.155-38.155zm0 60.857c-12.518 0-22.702-10.184-22.702-22.702s10.184-22.702 22.702-22.702 22.702 10.184 22.702 22.702-10.184 22.702-22.702 22.702z"/><path d="m104.735 215.706c-3.737 2.499-8.079 3.819-12.557 3.819-12.517 0-22.701-10.184-22.701-22.702s10.184-22.702 22.701-22.702c4.477 0 8.819 1.32 12.556 3.818 3.547 2.371 8.345 1.418 10.717-2.129 2.371-3.548 1.418-8.346-2.13-10.717-6.287-4.203-13.598-6.424-21.143-6.424-21.038 0-38.153 17.116-38.153 38.155s17.116 38.154 38.153 38.154c7.546 0 14.858-2.222 21.146-6.426 3.547-2.372 4.5-7.17 2.129-10.717-2.373-3.547-7.171-4.5-10.718-2.129z"/><path d="m214.379 158.669h-8.622c-4.267 0-7.726 3.459-7.726 7.726v60.856c0 4.267 3.459 7.726 7.726 7.726h8.622c20.423 0 37.039-16.615 37.039-37.039v-2.231c-.001-20.422-16.616-37.038-37.039-37.038zm21.586 39.271c0 11.903-9.684 21.586-21.586 21.586h-.895v-45.404h.895c11.902 0 21.586 9.684 21.586 21.586z"/></g><path d="m150.214 358.473-6.503 2.863h-63.356l-6.199-2.863h-42.305v28.875l8.305 7.211h19.589l6.187-3.605h95.034l3.658 3.605h140.817v-36.086z" fill="#8bcaff"/><g><path d="m36.571 384.053v-25.58h-36.571v25.58c0 5.802 4.704 10.506 10.506 10.506h36.571c-5.802 0-10.506-4.704-10.506-10.506z" fill="#60b9fe"/></g><path d="m126.912 344.231h-6.895l-19.058 14.243-10.13 16.341-6.009 18.372 4.38 26.613 15.193 17.685 11.504 6.181 11.016 1.223c21.79-6.366 37.713-26.482 37.713-50.328-.001-23.849-15.925-43.964-37.714-50.33z" fill="#7b6c79"/><path d="m89.199 394.559c0-23.847 15.923-43.962 37.713-50.328-4.674-1.366-9.612-2.111-14.727-2.111-28.962 0-52.44 23.478-52.44 52.44s23.478 52.44 52.44 52.44c5.115 0 10.053-.746 14.727-2.111-21.79-6.368-37.713-26.483-37.713-50.33z" fill="#665e68"/><path d="m126.912 376.914h-5.178l-7.04 11.292v13.564l5.151 7.383 7.067 3.051c5.046-4.216 8.259-10.555 8.259-17.645-.001-7.09-3.213-13.428-8.259-17.645z" fill="#dbedff"/><path d="m118.653 394.559c0-7.09 3.212-13.429 8.259-17.645-3.989-3.333-9.123-5.341-14.727-5.341-12.695 0-22.986 10.291-22.986 22.986s10.291 22.986 22.986 22.986c5.604 0 10.738-2.008 14.727-5.341-5.047-4.216-8.259-10.555-8.259-17.645z" fill="#b5dcff"/><path d="m403.917 344.231h-6.895l-19.058 14.243-10.13 16.341-6.009 18.372 4.38 26.613 15.193 17.685 11.504 6.181 11.016 1.223c21.79-6.366 37.713-26.482 37.713-50.328-.001-23.849-15.924-43.964-37.714-50.33z" fill="#7b6c79"/><path d="m366.204 394.559c0-23.847 15.923-43.962 37.713-50.328-4.674-1.366-9.612-2.111-14.727-2.111-28.962 0-52.44 23.478-52.44 52.44s23.478 52.44 52.44 52.44c5.115 0 10.053-.746 14.727-2.111-21.79-6.368-37.713-26.483-37.713-50.33z" fill="#665e68"/><path d="m403.917 376.914h-5.178l-7.04 11.292v13.564l5.151 7.383 7.067 3.051c5.046-4.216 8.259-10.555 8.259-17.645-.001-7.09-3.213-13.428-8.259-17.645z" fill="#dbedff"/><path d="m395.658 394.559c0-7.09 3.212-13.429 8.259-17.645-3.989-3.333-9.123-5.341-14.727-5.341-12.695 0-22.986 10.291-22.986 22.986s10.291 22.986 22.986 22.986c5.604 0 10.738-2.008 14.727-5.341-5.047-4.216-8.259-10.555-8.259-17.645z" fill="#b5dcff"/><path d="m500.098 236.698h-4.471l-3.887 1.789-4.121 5.666v28.33l3.262 3.777 4.484 1.912h4.733c6.573 0 11.902-5.329 11.902-11.902v-17.67c0-6.573-5.329-11.902-11.902-11.902z" fill="#dbedff"/><path d="m489.005 266.27v-17.67c0-6.437 5.113-11.667 11.498-11.882-.136-.005-.268-.02-.405-.02h-30.803c-6.573 0-11.902 5.329-11.902 11.902v17.67c0 6.573 5.329 11.902 11.902 11.902h30.803c.137 0 .269-.016.405-.02-6.385-.215-11.498-5.445-11.498-11.882z" fill="#b5dcff"/></g></svg>