<svg id="Capa_1" enable-background="new 0 0 512 512" height="512" viewBox="0 0 512 512" width="512" xmlns="http://www.w3.org/2000/svg"><g><g><path d="m51.509 328.113c0 34.137 27.674 61.811 61.811 61.811h336.869c4.163 0 4.036-17.381 7.968-18.165 4.629-.924 13.265 14.605 17.458 12.71 21.455-9.696 36.385-31.283 36.385-56.356v-195.735c0-34.137-27.674-61.811-61.811-61.811h-216.801c-80.41 14.307-135.41 120.502-181.879 257.546z" fill="#fd7a6e"/><g fill="#fb695b"><path d="m253.929 389.924h-140.609c-34.14 0-61.811-27.671-61.811-61.811v-195.735c0-34.14 27.671-61.811 61.811-61.811h120.068c-34.995 39.888-56.196 92.15-56.196 149.376-.001 67.694 29.679 128.454 76.737 169.981z"/><path d="m481.095 173.586v185.433c0 9.076-1.957 17.688-5.481 25.446-7.747 3.513-16.359 5.46-25.425 5.46h-336.869c-34.14 0-61.811-27.681-61.811-61.811v-195.736c0-9.065 1.957-17.678 5.46-25.435 7.757-3.523 16.38-5.47 25.445-5.47h326.567c39.828 0 72.114 32.286 72.114 72.113z"/></g></g><g><path d="m154.527 359.018c0 34.137 166.872 82.414 201.009 82.414h43.144c34.137 0 61.811-27.674 61.811-61.811v-195.734c0-34.137-27.674-61.811-61.811-61.811h-199.33c-34.137 0-44.823 236.942-44.823 236.942z" fill="#ace094"/><path d="m355.536 441.433h-293.725c-34.14 0-61.811-27.671-61.811-61.811v-195.735c0-34.14 27.671-61.811 61.811-61.811h137.539c-14.206 29.628-22.159 62.82-22.159 97.867 0 108.592 76.378 199.351 178.345 221.49z" fill="#8dd470"/><g fill="#fff8e6"><path d="m92.716 325.537h-30.905c-4.267 0-7.726-3.459-7.726-7.726 0-4.268 3.459-7.726 7.726-7.726h30.905c4.267 0 7.726 3.459 7.726 7.726.001 4.267-3.459 7.726-7.726 7.726z"/><path d="m164.829 325.537h-30.905c-4.267 0-7.726-3.459-7.726-7.726 0-4.268 3.459-7.726 7.726-7.726h30.905c4.267 0 7.726 3.459 7.726 7.726s-3.459 7.726-7.726 7.726z"/><path d="m236.942 325.537h-30.905c-4.267 0-7.726-3.459-7.726-7.726 0-4.268 3.459-7.726 7.726-7.726h30.905c4.267 0 7.726 3.459 7.726 7.726s-3.459 7.726-7.726 7.726z"/></g><g><path d="m144.225 266.302h-2.575l-8.242-10.302-7.211 10.302h-43.783c-17.069 0-30.905-13.837-30.905-30.905v-7.726l10.302-7.726-10.302-7.726v-7.726c0-17.069 13.837-30.905 30.905-30.905h2.575l7.726 10.302 7.726-10.302h43.783c17.069 0 30.905 13.837 30.905 30.905v7.726l-10.302 7.726 10.302 7.726v7.726c.002 17.068-13.835 30.905-30.904 30.905z" fill="#fad989"/><g fill="#ffb25a"><path d="m100.443 219.944c0 4.265-3.461 7.726-7.726 7.726h-41.208v-15.453h41.207c4.265 0 7.727 3.462 7.727 7.727z"/><path d="m175.131 212.217v15.453h-41.207c-4.265 0-7.726-3.461-7.726-7.726s3.461-7.726 7.726-7.726h41.207z"/><path d="m141.65 256v10.302h-15.453v-10.302c0-4.265 3.461-7.726 7.726-7.726s7.727 3.461 7.727 7.726z"/><path d="m100.443 173.586v10.302c0 4.265-3.461 7.726-7.726 7.726s-7.726-3.461-7.726-7.726v-10.302z"/></g></g><g fill="#fff8e6"><path d="m123.622 397.65h-61.811c-4.267 0-7.726-3.459-7.726-7.726s3.459-7.726 7.726-7.726h61.811c4.267 0 7.726 3.459 7.726 7.726s-3.459 7.726-7.726 7.726z"/><path d="m288.451 397.65h-113.32c-4.267 0-7.726-3.459-7.726-7.726s3.459-7.726 7.726-7.726h113.32c4.267 0 7.726 3.459 7.726 7.726s-3.459 7.726-7.726 7.726z"/></g><circle cx="383.227" cy="364.169" fill="#fad989" r="25.755"/><g><ellipse cx="238.846" cy="226.298" fill="#fff" rx="30.241" ry="24.082"/><ellipse cx="402.762" cy="226.298" fill="#fff" rx="30.241" ry="24.082"/><g fill="#666667"><path d="m320.804 200.711c-11.997 0-22.681-8.062-29.401 1.88-6.816 10.085 8.45 25.723 29.401 25.723s36.217-15.638 29.401-25.723c-6.72-9.942-17.404-1.88-29.401-1.88z"/><path d="m256.47 209.177c-7.348 0-14.336-3.182-19.172-8.73-2.803-3.217-2.468-8.098.748-10.901 3.217-2.803 8.097-2.468 10.901.748 1.9 2.18 4.641 3.431 7.522 3.431 2.88 0 5.622-1.251 7.523-3.431 2.804-3.216 7.685-3.551 10.901-.747s3.551 7.684.747 10.9c-4.834 5.548-11.822 8.73-19.17 8.73z"/><path d="m385.137 209.177c-7.348 0-14.336-3.182-19.172-8.73-2.803-3.217-2.468-8.098.749-10.901s8.097-2.468 10.901.748c1.9 2.18 4.641 3.431 7.522 3.431s5.622-1.251 7.522-3.431c2.804-3.216 7.684-3.551 10.901-.748 3.217 2.804 3.552 7.684.748 10.901-4.835 5.548-11.823 8.73-19.171 8.73z"/></g></g></g></g></svg>