<svg width="88" height="88" viewBox="0 0 88 88" fill="none" xmlns="http://www.w3.org/2000/svg">
    <g clip-path="url(#clip0)">
        <path d="M43.9008 59.0296C45.3491 59.9336 46.6766 60.9668 48.1249 61.7417C48.3663 61.8709 48.7284 62 48.9697 62C49.3318 62 49.5732 61.7417 49.8146 61.6126C54.7628 57.8672 60.5559 55.8009 65.5041 51.9264C65.6248 51.7973 65.7455 51.6681 65.8662 51.539C65.9869 51.4098 65.9869 51.1515 65.9869 50.8932C66.1076 49.4726 65.3834 48.1811 64.2972 47.4062C63.211 46.6313 62.0042 46.2439 60.7973 45.8564C55.3663 44.5649 49.6939 44.9524 44.1422 45.5981C42.5732 45.8564 40.8836 45.9856 39.4353 46.7605C37.987 47.4062 37.0215 48.5685 36.4181 50.2475C36.056 51.2807 35.6939 51.9264 36.4181 52.8304C37.625 54.5094 39.1939 55.93 41.0043 57.0924C41.8491 57.8672 42.8146 58.513 43.9008 59.0296Z" fill="#F4D3C1"/>
        <path d="M71.4938 31.617C70.5669 31.8664 69.6401 31.9912 68.7133 32.2406C68.3657 32.3653 67.9023 32.49 68.0181 32.9889C68.134 33.7373 69.9877 42.7174 69.9877 42.9668C70.7987 43.0915 71.7255 42.8421 72.4206 42.5927C72.6523 42.4679 72.884 42.4679 73.2316 42.4679C75.317 42.0938 77.2865 41.5949 79.256 41.2207C80.4146 40.9713 81.689 40.7218 82.8475 40.4724C85.8597 39.8487 88.9878 39.1004 92 38.6015C91.4207 34.8598 90.4939 31.3675 89.2195 28C87.3658 28.3742 85.628 28.7483 83.7743 29.1225C79.7194 29.8709 75.6645 30.7439 71.4938 31.617Z" fill="#048DB2"/>
        <path d="M92.4956 38C89.4173 38.5346 70.8288 42.8116 70 42.8116C70.4736 45.7519 71.8944 53.5039 71.8944 54.1722C71.8944 54.7068 72.368 55.1077 72.9599 54.9741C76.8671 54.0385 92.2588 50.5635 92.7324 50.5635C92.9692 48.826 92.9692 46.9548 92.9692 45.0837C93.0876 42.6779 92.8508 40.2721 92.4956 38ZM76.2751 51.7664C75.3279 51.7664 74.4991 50.8308 74.4991 49.7616C74.4991 48.6923 75.3279 47.7568 76.2751 47.6231C77.2223 47.6231 78.1695 48.5587 78.1695 49.6279C78.1695 50.8308 77.3407 51.7664 76.2751 51.7664ZM80.7742 50.8308C79.827 50.8308 78.9982 49.8952 78.9982 48.6923C78.9982 47.6231 79.827 46.8212 80.8926 46.8212C81.9582 46.8212 82.6686 47.7568 82.5502 48.826C82.5502 49.8952 81.8398 50.8308 80.7742 50.8308ZM85.7469 49.7616C84.6813 49.7616 83.971 48.826 83.971 47.6231C83.971 46.5539 84.7997 45.6183 85.7469 45.6183C86.6941 45.6183 87.6413 46.5539 87.5229 47.7568C87.5229 48.826 86.6941 49.7616 85.7469 49.7616Z" fill="#077893"/>
        <path d="M57.3633 43.7853C55.9357 42.1968 54.627 40.476 53.4373 38.6227C53.3183 38.4904 53.3183 38.358 53.1994 38.0932C52.9614 37.6961 52.7235 37.4314 52.1286 37.5637C51.5338 37.8285 50.9389 37.9609 50.2251 37.9609C49.6302 37.8285 49.2733 38.2256 49.0354 38.6227C48.4405 39.5494 47.8457 40.3436 47.0129 41.0055C45.7042 42.0645 44.1576 42.4616 42.6109 42.1968C42.135 42.0645 41.5402 41.7997 41.1833 41.4026C40.8264 41.0055 40.8264 40.6083 41.0643 40.2112C42.373 38.0932 43.6817 36.1076 44.9904 34.122C45.2283 33.7249 45.5852 33.4601 46.0611 33.3278C47.4887 32.6659 49.0354 32.2688 50.463 31.8717C50.582 31.8717 50.701 31.8717 50.8199 31.7393C50.9389 31.7393 51.0579 31.6069 51.0579 31.4745C49.1543 30.1508 47.3698 29.3565 45.1093 30.6803C42.6109 32.2688 40.2315 33.9896 37.7331 35.7105C37.2572 35.9753 36.9003 36.3724 36.3055 36.3724C35.9486 36.3724 35.8296 36.24 35.9486 35.8429C35.9486 35.7105 36.0675 35.7105 36.0675 35.7105C36.3055 35.0486 36.0675 34.7839 35.4727 34.6515C34.6399 34.5191 33.926 34.3868 33.0932 34.2544C32.6174 37.0342 32.0225 39.8141 31.5466 42.7263C30.9518 45.6386 30.4759 48.5508 30 51.463C30 51.7278 30 51.8601 30 52.1249C30.8328 52.2573 31.7846 52.522 32.6174 52.6544C32.9743 52.7868 33.0932 52.6544 33.2122 52.2573C33.2122 51.8601 33.3312 51.463 33.4502 51.0659C33.5691 50.8012 33.6881 50.5364 33.926 50.8012C34.045 50.9335 34.164 51.0659 34.283 51.0659C34.8778 50.404 35.4727 49.6098 36.1865 48.9479C36.5434 48.5508 37.8521 48.4184 38.328 48.6832C38.9228 48.9479 39.3987 50.0069 39.2797 50.8012C39.2797 51.0659 39.1608 51.3306 39.1608 51.5954C39.6367 51.463 39.7556 51.0659 40.1125 50.6688C40.7074 50.0069 41.1833 49.345 42.135 49.345C43.4437 49.345 44.1576 50.404 43.9196 51.8601C43.8006 52.522 43.5627 53.0515 43.2058 53.4486C43.0868 53.7134 42.9678 53.9781 42.9678 54.1105C43.2058 54.2429 43.3248 54.1105 43.3248 53.9781C43.6817 53.581 44.1576 53.0515 44.5145 52.6544C45.3473 51.7278 46.7749 51.5954 47.6077 52.522C47.9646 53.0515 48.2026 53.581 48.0836 54.1105C47.9646 54.64 48.0836 55.4342 47.6077 55.8314C47.4887 55.9637 47.6077 56.0961 47.7267 56.2285C47.8457 56.3609 47.9646 56.3609 48.0836 56.4932C49.2733 57.2875 50.2251 58.3465 51.2958 59.1407C52.7235 60.1997 54.1511 61.3911 55.8167 61.9206C56.8875 62.1853 57.8392 61.7882 58.4341 60.7292C58.672 60.3321 58.672 60.0673 58.1961 59.8026C56.7685 58.876 55.3408 57.9493 54.0322 56.8904C53.4373 56.3609 52.9614 55.9637 52.3666 55.4342C52.2476 55.3019 52.1286 55.1695 52.2476 54.9047C52.3666 54.64 52.6045 54.7724 52.7235 54.9047C53.7942 56.0961 55.2219 57.0227 56.4116 58.0817C57.6013 59.0083 59.0289 59.6702 60.4566 59.8026C61.2894 59.8026 62.0032 59.4055 62.3601 58.6112C62.717 57.9494 62.955 57.0227 62.4791 56.3609C62.2412 56.0961 61.8842 55.8314 61.5273 55.699C60.9325 55.4342 55.1029 51.7278 55.4598 51.1983C55.5788 50.9335 55.8167 51.1983 56.0547 51.3306C57.2444 52.1249 58.5531 52.9191 59.7428 53.8458C61.0514 54.7724 62.717 55.8314 64.2637 55.8314C65.4534 55.8314 66.1672 54.7724 66.5241 53.7134C66.881 52.7868 67 51.7278 67 50.8012C64.8585 49.8745 63.074 48.4184 61.1704 46.9623C59.5048 46.1681 58.4341 44.9767 57.3633 43.7853Z" fill="#D6AB99"/>
        <path d="M20.2546 52.9853C23.1906 53.6482 26.1266 54.3111 29.0626 54.974C29.5519 55.1066 29.7966 54.7088 29.7966 54.3111C29.9189 53.5156 33.8335 33.0986 33.9559 32.4357C34.0782 31.9054 33.9559 31.6402 33.4665 31.5077C29.7966 30.7122 26.2489 29.9167 22.5789 29.1212C19.2759 28.4584 15.973 27.6629 12.67 27C10.3457 32.7009 9 39.0646 9 45.8261C9 47.417 9.12233 49.1406 9.24467 50.7315C10.101 50.8641 10.835 51.1292 11.6913 51.2618C14.505 51.7921 17.441 52.3224 20.2546 52.9853ZM25.1479 46.8867C26.1266 46.8867 26.9829 47.6822 27.1052 48.7428C27.1052 49.936 26.2489 50.8641 25.2703 50.8641C24.2916 50.8641 23.4353 49.936 23.4353 48.8754C23.3129 47.8148 24.1693 46.8867 25.1479 46.8867ZM20.2546 45.6935C21.2333 45.6935 22.0896 46.6216 22.0896 47.6822C22.0896 48.7428 21.2333 49.6709 20.2546 49.6709C19.276 49.6709 18.4196 48.7428 18.2973 47.6822C18.2973 46.7541 19.1536 45.6935 20.2546 45.6935ZM15.4836 44.7655C16.4623 44.7655 17.441 45.6935 17.441 46.7541C17.441 47.8148 16.5846 48.7428 15.606 48.7428C14.6273 48.7428 13.771 47.9473 13.771 46.7541C13.6486 45.6935 14.505 44.7655 15.4836 44.7655Z" fill="#BF2026"/>
        <path d="M65.5827 38.5031C65.4619 38.1126 65.4619 37.8522 65.4619 37.4617C65.4619 37.0712 65.4619 36.941 65.2202 36.5505C64.6158 36.5505 64.0115 36.1599 63.5281 35.7694C61.5943 34.4677 59.6605 33.0357 57.7267 31.734C56.6389 30.9529 55.5511 30.8227 54.3425 31.2133C51.6835 31.8641 48.7828 32.515 46.2447 33.6866C45.7613 33.8168 45.3987 34.0771 45.1569 34.4677C43.8274 36.4203 42.3771 38.5031 41.1685 40.4557C40.9267 40.8463 40.9267 41.2368 41.2893 41.6273C41.6519 42.0179 42.2562 42.4084 42.7397 42.4084C44.4318 42.6687 45.8821 42.2782 47.2116 41.2368C48.0576 40.5859 48.662 39.8049 49.2663 38.8936C49.508 38.3729 49.8706 38.1126 50.4749 38.2428C51.0792 38.3729 51.8044 38.1126 52.4087 37.8522C53.013 37.5919 53.3756 38.1126 53.6173 38.6333C53.9799 39.2842 54.3425 39.8049 54.7051 40.4557C55.5511 41.7575 56.518 42.9291 57.6058 43.9705C58.6936 45.1421 59.7813 46.1835 61.1108 47.2249C63.0446 48.6568 64.8576 50.0888 67.0331 51C67.3957 50.8698 67.6374 50.6095 68 50.6095C68 49.6982 67.6374 48.787 67.5165 47.8758C67.154 46.0533 66.9122 44.2308 66.5496 42.4084C66.4288 41.4972 66.1871 40.5859 66.0662 39.6747C65.8245 39.4143 65.7036 39.0238 65.5827 38.5031Z" fill="#F4D3C1"/>
        <path d="M67.9434 35C67.1509 35.1291 66.3585 35.3874 65.566 35.5166C65.1132 35.6457 65 36.0332 65 36.4206C65.1132 36.6789 67.717 51.9184 67.8302 52.5641C67.9434 52.9516 68.0566 53.0807 68.5094 52.9516C69.3019 52.6933 70.0943 52.5641 71 52.435C71 52.1767 68.3962 36.9372 67.9434 35Z" fill="#62CDF6"/>
        <path d="M49.7526 59.2458C49.4786 59.1229 49.2046 59 48.9305 59C48.5195 59 48.2455 59.2458 47.9714 59.4916C47.8344 59.6145 47.6974 59.7374 47.5604 59.8603C47.4234 59.9831 47.4234 59.9832 47.2864 60.106C47.0124 60.4747 46.8753 61.4579 47.1494 61.8266C47.1494 61.9495 47.2864 61.9494 47.4234 62.0723C48.2455 62.441 49.0675 62.6868 49.8896 62.8097C51.1227 63.0555 52.6299 63.1784 53.726 62.441C53.863 62.3181 54 62.0723 54 61.9494C53.863 61.5808 53.1779 61.2121 52.9039 60.9663C51.9448 60.3518 50.8487 59.8603 49.7526 59.2458Z" fill="#D6AB99"/>
        <path d="M85.5 46C84.7 46 84 46.7742 84 47.9355C84 49.0968 84.6 50 85.5 50C86.3 50 87 49.0968 87 48.0645C87 46.9032 86.3 46 85.5 46Z" fill="#F2EBE9"/>
        <path d="M76 48.0123C74.9333 48.0123 74 48.9127 74 50.0704C74 51.0995 74.9333 52 76 52C77.2 52 78 51.0995 78 49.9418C78 48.7841 77.0667 47.8836 76 48.0123Z" fill="#F2EBE9"/>
        <path d="M80.5942 47C79.6975 47 79 47.8 79 48.8667C79 50.0667 79.5978 51 80.4946 51C81.2917 51 81.9892 50.2 81.9892 49C82.0888 47.9333 81.491 47.1333 80.5942 47Z" fill="#F2EBE9"/>
        <path d="M20.5042 49C21.302 49 22 48.3 22 47.5C22 46.7 21.302 46 20.5042 46C19.7065 46 18.9088 46.7 19.0085 47.6C19.0085 48.3 19.7065 49 20.5042 49Z" fill="#F2EBE9"/>
        <path d="M25.0645 50C26.0968 50 27 49.3022 27 48.4051C27 47.6076 26.0968 46.9098 24.9355 47.0095C23.7742 47.0095 23 47.7073 23 48.5048C23.129 49.3022 24.0323 50 25.0645 50Z" fill="#F2EBE9"/>
        <path d="M16.0645 48C17.0968 48 18 47.0667 18 46C18 44.9333 17.0968 44 15.9355 44C14.9032 44 14 44.9333 14 46C14.129 47.0667 15.0323 48 16.0645 48Z" fill="#F2EBE9"/>
        <path d="M34.5709 52.4947C33.8901 51.821 33.7766 50.6982 34.4574 49.9123L35.8191 48.5649C36.5 47.8912 37.6348 47.7789 38.4291 48.4526C39.1099 49.1263 39.2234 50.2491 38.5426 51.0351L37.1809 52.4947C36.5 53.1684 35.3652 53.1684 34.5709 52.4947Z" fill="#F4D3C1"/>
        <path d="M45.5345 62.4569C44.8971 61.7133 44.7908 60.474 45.4283 59.6064L47.0219 57.6235C47.6594 56.8799 48.7218 56.756 49.4655 57.4996C50.1029 58.2432 50.2092 59.4825 49.5717 60.35L47.9781 62.333C47.2344 63.2005 46.172 63.2005 45.5345 62.4569Z" fill="#F4D3C1"/>
        <path d="M37.6411 56.4134C36.8073 55.4764 36.8073 54.0039 37.522 53.0669L40.3809 49.7205C41.2147 48.7834 42.525 48.7834 43.3589 49.5866C44.1927 50.5236 44.1927 51.9961 43.478 52.9331L40.6191 56.2795C39.7853 57.2166 38.475 57.2166 37.6411 56.4134Z" fill="#F4D3C1"/>
        <path d="M40.7402 59.3897C39.7744 58.5571 39.7744 57.1299 40.6195 56.1784L44 52.7292C44.8451 51.7777 46.2939 51.7777 47.2598 52.6103C48.2256 53.4429 48.2256 54.8701 47.3805 55.8216L44 59.2708C43.0341 60.2223 41.5854 60.2223 40.7402 59.3897Z" fill="#F4D3C1"/>
        <path d="M33.1629 34L35.761 34.5137C35.761 34.5137 36.2129 34.5137 35.874 35.6695C35.5351 36.8253 33.0499 51.5941 33.0499 51.5941C33.0499 51.5941 33.0499 52.1078 32.4851 51.9794C32.0333 51.851 30 51.4657 30 51.4657L33.1629 34Z" fill="#6F0F10"/>
    </g>
    <defs>
        <clipPath id="clip0">
            <rect width="87.1" height="87.1" fill="white"/>
        </clipPath>
    </defs>
</svg>
