<svg id="Capa_1" enable-background="new 0 0 512 512" height="512" viewBox="0 0 512 512" width="512" xmlns="http://www.w3.org/2000/svg"><g><path d="m187.467 184.598c-9.97-.249-19.776-3.004-28.502-8.04l-4.753-2.739-45.067 48.094-21.04 66.408 80.963 75.631 83.418 57.78 22.975 13.264c12.072 6.97 27.946 2.962 34.685-9.239 6.533-11.828 2.416-26.76-9.337-33.546l23.263 13.431c12.072 6.97 27.946 2.962 34.685-9.239 6.533-11.828 2.416-26.76-9.337-33.546l18.844 10.88c12.554 7.248 28.129 2.57 34.612-10.396l.04-.08c5.749-11.497 1.344-26.162-9.788-32.589l-.757-.437c11.892 6.866 27.098 2.791 33.964-9.101 6.127-12.253 1.432-27.883-10.432-34.732l-147.769-85.314c-3.02-1.745-80.667-16.49-80.667-16.49z" fill="#f1d0a5"/><g fill="#f1b986"><path d="m135.051 209.476c6.866 11.892 22.072 15.966 33.964 9.101l5.291-3.054 13.161-30.926c-9.97-.249-19.776-3.004-28.502-8.04l-4.753-2.739-19.849 34.38c.216.431.445.857.688 1.278z"/><path d="m351.149 363.951c-3.98 2.134-8.494 3.133-13.053 2.849-7.369-.459-14.153 4.057-17.009 10.865l-3.088 7.363c-.299.714-.63 1.417-1.036 2.076-2.406 3.902-5.781 6.889-9.65 8.861l16.758 9.675c12.072 6.97 27.946 2.962 34.685-9.239 6.202-11.227 2.807-25.251-7.607-32.45z"/><path d="m415.902 286.401-140.001-92.997c-3.019-1.743-21.311 2.065-24.331 3.808v7.802l123.124 71.086c11.864 6.85 16.558 22.479 10.432 34.733l-23.419 42.127-.04.08c-2.42 4.84-6.108 8.525-10.433 10.866l17.028 9.831c12.554 7.248 28.129 2.57 34.612-10.395l.04-.08c5.749-11.497 1.344-26.162-9.788-32.589l-.757-.437c11.892 6.866 27.098 2.791 33.964-9.101 6.128-12.255 1.433-27.885-10.431-34.734z"/><path d="m292.407 398.549c-6.543-.828-13.034 1.833-16.789 7.255l-6.68 9.649c-2.428 4.396-6.041 7.728-10.235 9.866l16.757 9.675c12.072 6.97 27.946 2.962 34.685-9.239 5.388-9.755 3.532-21.62-3.877-29.286-4.29 1.944-9.113 2.681-13.861 2.08z"/><path d="m300.81 392.212-13.318-7.69c-3.696-2.135-8.422-.868-10.554 2.828-2.134 3.695-.868 8.421 2.828 10.554l33.252 19.199c1.32-9.705-3.201-19.69-12.208-24.891z"/></g><path d="m306.268 396.469c-4.291 1.944-9.113 2.681-13.861 2.08-3.242-.41-6.47.036-9.359 1.25l29.97 17.304c1.018-7.486-1.439-15.138-6.75-20.634z" fill="#e2a770"/><path d="m301.801 344.285c-2.134 3.696-.868 8.421 2.828 10.554l57.001 32.909c1.32-9.705-3.201-19.689-12.207-24.891l-37.067-21.401c-3.697-2.134-8.422-.866-10.555 2.829z" fill="#f1b986"/><path d="m351.149 363.951c-3.98 2.134-8.494 3.133-13.053 2.849-3.26-.203-6.406.568-9.147 2.08l32.68 18.868c1.02-7.497-1.447-15.161-6.773-20.658-1.313-1.284-2.564-2.349-3.707-3.139z" fill="#e2a770"/><path d="m123.886 327.777 22.106-12.763c11.892-6.866 15.966-22.072 9.101-33.964-6.866-11.892-22.072-15.966-33.964-9.101l-22.106 12.763c-11.892 6.866-15.966 22.072-9.101 33.964 6.866 11.892 22.072 15.967 33.964 9.101z" fill="#ffcbbe"/><path d="m152.596 368.621 13.131-7.581c11.892-6.866 15.966-22.072 9.101-33.964-6.866-11.892-22.072-15.966-33.964-9.101l-13.131 7.581c-11.892 6.866-15.966 22.072-9.101 33.964 6.866 11.892 22.072 15.967 33.964 9.101z" fill="#ffcbbe"/><path d="m191.171 403.769 11.85-6.842c11.892-6.866 15.966-22.072 9.101-33.964-6.866-11.892-22.072-15.966-33.964-9.101l-11.85 6.842c-11.892 6.866-15.966 22.072-9.101 33.964 6.866 11.893 22.072 15.967 33.964 9.101z" fill="#ffcbbe"/><path d="m240.005 430.184 6.723-3.881c11.892-6.866 15.966-22.072 9.101-33.964-6.866-11.892-22.072-15.966-33.964-9.101l-6.723 3.881c-11.892 6.866-15.966 22.072-9.101 33.964 6.866 11.892 22.073 15.966 33.964 9.101z" fill="#ffcbbe"/><path d="m155.092 281.05c-4.681-8.108-13.239-12.581-21.981-12.432.489.679.949 1.389 1.377 2.13 6.866 11.892 2.791 27.098-9.101 33.964l-22.106 12.763c-3.784 2.185-7.904 3.261-11.983 3.331 7.37 10.227 21.436 13.409 32.587 6.971l22.106-12.763c11.892-6.865 15.967-22.072 9.101-33.964z" fill="#eaac9d"/><path d="m174.828 327.076c-4.681-8.108-13.239-12.581-21.981-12.432.489.679.949 1.389 1.377 2.13 6.866 11.892 2.791 27.098-9.101 33.964l-13.131 7.581c-3.784 2.185-7.904 3.261-11.983 3.331 7.37 10.227 21.436 13.409 32.587 6.971l13.131-7.581c11.892-6.866 15.967-22.072 9.101-33.964z" fill="#eaac9d"/><path d="m212.122 362.963c-4.681-8.108-13.239-12.581-21.981-12.432.489.679.949 1.389 1.377 2.13 6.866 11.892 2.791 27.098-9.101 33.964l-11.85 6.842c-3.784 2.185-7.904 3.261-11.983 3.331 7.37 10.227 21.436 13.409 32.587 6.971l11.85-6.842c11.893-6.866 15.967-22.072 9.101-33.964z" fill="#eaac9d"/><path d="m255.829 392.338c-4.681-8.108-13.239-12.582-21.981-12.432.489.679.949 1.389 1.377 2.13 6.866 11.892 2.791 27.098-9.101 33.964l-6.723 3.881c-3.784 2.185-7.904 3.261-11.983 3.331 7.37 10.227 21.436 13.409 32.587 6.971l6.723-3.881c11.892-6.866 15.967-22.072 9.101-33.964z" fill="#eaac9d"/><path d="m116.604 148.454-46.557 49.412-22.711 70.564 37.178 21.465c1.111.642 2.532.261 3.174-.85l66.945-115.952c.642-1.111.261-2.532-.85-3.174z" fill="#f4fbff"/><path d="m153.781 169.918-37.178-21.465-7.726 13.382 3.881 2.241c6.699 3.868 8.994 12.433 5.127 19.132l-54.539 94.464 21.167 12.221c1.111.642 2.532.261 3.174-.85l66.945-115.952c.641-1.111.261-2.531-.851-3.173z" fill="#e4f6ff"/><path d="m118.332 140.813-116.079-67.019c-1.001-.578-2.253.145-2.253 1.301v173.777c0 .537.286 1.033.751 1.301l40.832 23.574c1.111.642 2.532.261 3.174-.85l74.426-128.91c.641-1.112.261-2.533-.851-3.174z" fill="#d8aa8b"/><path d="m118.332 140.813-116.079-67.018c-1.001-.579-2.253.144-2.253 1.3v31.491l53.021 30.612c14.423 8.327 19.365 26.77 11.038 41.194l-46.909 81.249 24.433 14.106c1.111.642 2.532.261 3.174-.85l74.426-128.91c.641-1.112.261-2.533-.851-3.174z" fill="#ce9875"/><path d="m415.902 286.401-147.769-85.314c-3.019-1.743-6.739-1.743-9.759-.001 0 0-48.152 27.793-48.152 27.793-11.892 6.866-27.098 2.791-33.964-9.101-6.866-11.892-2.791-27.098 9.101-33.964l50.77-29.312c13.012-7.512 29.043-7.512 42.055 0l34.08 19.676c12.816 7.399 28.606 7.4 41.423.003l4.101-2.362 66.108 114.502s-2.782 1.61-2.782 1.61c-1.181-1.024-2.476-1.951-3.88-2.761z" fill="#ffcbbe"/><path d="m357.788 173.819-4.101 2.362c-6.388 3.687-13.515 5.536-20.644 5.547l49.219 85.25 33.64 19.422 1.331.768c1.404.811 2.699 1.738 3.88 2.762 0 0 2.782-1.61 2.782-1.61l-27.661-75.975z" fill="#eaac9d"/><path d="m395.396 148.454 69.268 119.976-37.178 21.465c-1.111.642-2.532.261-3.174-.85l-66.945-115.952c-.642-1.111-.261-2.532.85-3.174z" fill="#eab1b7"/><path d="m395.396 148.454-18.718 10.807 50.791 87.973c3.474 6.016 1.412 13.71-4.604 17.183l-9.577 5.53 11.026 19.097c.642 1.111 2.062 1.492 3.174.85l37.178-21.465-17.143-75.472z" fill="#e4989d"/><path d="m393.668 140.813c-1.111.642-1.492 2.062-.85 3.174l74.426 128.91c.642 1.111 2.062 1.492 3.174.85l40.832-23.574c.465-.268.751-.764.751-1.301v-173.777c0-1.156-1.252-1.879-2.253-1.301z" fill="#909ba5"/><path d="m509.747 73.794-28.652 16.542v123.247c0 9.624-5.134 18.516-13.468 23.328l-15.869 9.162 15.486 26.823c.642 1.111 2.062 1.492 3.174.85l40.832-23.574c.465-.268.751-.764.751-1.301v-173.776c-.001-1.156-1.253-1.879-2.254-1.301z" fill="#808b95"/><path d="m326.665 301.22c-2.134 3.695-.868 8.421 2.828 10.554l75.757 43.739c1.206-9.671-3.377-19.78-12.099-24.829l-55.931-32.292c-3.697-2.135-8.422-.868-10.555 2.828z" fill="#f1b986"/><path d="m393.151 330.685-14.429-8.331-7.509 13.508 34.037 19.652c1.206-9.671-3.377-19.78-12.099-24.829z" fill="#e2a770"/></g></svg>