<svg id="Capa_1" enable-background="new 0 0 512 512" height="512" viewBox="0 0 512 512" width="512" xmlns="http://www.w3.org/2000/svg"><g><g><circle cx="256" cy="105" fill="#0a789b" r="105"/><path d="m361 105c0-57.897-47.103-105-105-105v210c57.897 0 105-47.103 105-105z" fill="#0a617d"/><path d="m226.607 140.355-21.213-21.213c-5.858-5.858-5.858-15.355 0-21.213 5.858-5.858 15.355-5.858 21.213 0l10.607 10.607 38.89-38.891c5.858-5.858 15.355-5.858 21.213 0 5.858 5.858 5.858 15.355 0 21.213l-49.497 49.497c-5.858 5.858-15.355 5.858-21.213 0z" fill="#9ee2f8"/><path d="m276.104 69.645-20.104 20.104v42.426l41.317-41.317c5.858-5.858 5.858-15.355 0-21.213s-15.355-5.858-21.213 0z" fill="#8bb9ff"/></g><g><path d="m375.658 420.879c24.558-1.037 48.219-8.736 68.747-22.444 4.14-2.765 6.594-7.446 6.594-12.424v-155h-234.999c-2.549 0-5.056.65-7.285 1.888l-70.019 38.899c-8.751 4.861-15.222 13.204-17.755 22.89-2.532 9.686-.972 20.129 4.28 28.652 10.155 16.477 31.507 22.289 48.609 13.234l72.806-38.543c10.146-5.371 22.645-3.142 30.309 5.404z" fill="#ffddce"/><path d="m256 295.25c7.706-.72 15.532 2.147 20.946 8.184l98.712 117.444c24.558-1.037 48.219-8.736 68.747-22.444 4.14-2.765 6.594-7.446 6.594-12.424v-155h-194.999z" fill="#ffcbbc"/><path d="m365.042 401.673-105.042-117.136-44-53.526h-155v155c0 4.721 2.223 9.167 6 12l132.008 99.005c13.188 9.891 29.052 14.984 45.039 14.984 8.351 0 16.733-1.415 24.786-4.239l4.998-2.143 5.169-19.609 23.664 7.209 36.854-16.123 6.551-14.662 19.893-1.32c5.092-5.727 8.687-12.758 10.251-20.471 2.842-14.019-1.335-28.586-11.171-38.969z" fill="#ffcbbc"/><path d="m376.213 440.64c2.842-14.017-1.334-28.584-11.171-38.967l-105.042-117.136-4-4.866v231.351c4.333-.705 8.628-1.786 12.833-3.26l4.998-2.143 5.169-19.61 23.664 7.209 36.854-16.123 6.551-14.662 19.893-1.32c5.092-5.728 8.687-12.76 10.251-20.473z" fill="#ffbca7"/><path d="m365.962 461.111-66.412-66.412c-5.858-5.858-15.355-5.858-21.213 0s-5.858 15.355 0 21.213l61.182 61.182 11.231-4.913c5.892-2.578 11.05-6.389 15.212-11.07z" fill="#f9a58b"/><path d="m232.285 433.579c-6.312 5.365-7.08 14.832-1.714 21.144l43.261 50.894 24.695-10.59 4.138-1.81-49.235-57.924c-5.366-6.311-14.832-7.079-21.145-1.714z" fill="#ffbca7"/><path d="m497 431.011h-41c-8.284 0-15-6.716-15-15v-190c0-8.284 6.716-15 15-15h41c8.284 0 15 6.716 15 15v190c0 8.284-6.716 15-15 15z" fill="#8bb9ff"/><path d="m56 431.011h-41c-8.284 0-15-6.716-15-15v-190c0-8.284 6.716-15 15-15h41c8.284 0 15 6.716 15 15v190c0 8.284-6.716 15-15 15z" fill="#ff80aa"/><path d="m216 231.011c-2.549 0-5.056.65-7.285 1.888l-70.019 38.899c-8.751 4.861-15.222 13.204-17.755 22.89-2.532 9.686-.972 20.129 4.28 28.652 10.155 16.477 31.507 22.289 48.609 13.234l72.806-38.543c10.146-5.371 22.645-3.142 30.309 5.404l88.096 98.238" fill="#ffddce"/><path d="m256 295.25c7.706-.72 15.532 2.147 20.946 8.184l88.096 98.238-109.042-124.859z" fill="#ffcbbc"/><path d="m256 438.318v46.322l17.831 20.978 24.695-10.59 4.138-1.81z" fill="#f9a58b"/></g></g></svg>