<svg height="512" viewBox="0 0 64 64" width="512" xmlns="http://www.w3.org/2000/svg"><g id="flat"><path d="m50 9h-36l-8 14v38h52v-38z" fill="#ffdf59"/><path d="m6 23h52v38h-52z" fill="#ffc200"/><path d="m58 23h-52l8-14h36z" fill="#ffdf59"/><path d="m11 37h16v12h-16z" fill="#ff9300"/><path d="m38 55-2 2-2-1.715-2 1.778-2-2.063-2 2-2-2v6h12z" fill="#ff9300"/><path d="m46.58 3h-20.615l4.387 5.353-4.97 4a11.735 11.735 0 0 0 -4.382 9.147 11.735 11.735 0 0 0 3.013 7.852l5.987 6.648v-6.231a12 12 0 0 1 4.505-9.369l3.366-2.7 4.387 5.455z" fill="#23a24d"/><g fill="#ffc200"><path d="m14 40h10v2h-10z"/><path d="m14 44h3v2h-3z"/><path d="m19 44h5v2h-5z"/></g><path d="m40 46h2v-5.586l1.293 1.293 1.414-1.414-3-3a1 1 0 0 0 -1.414 0l-3 3 1.414 1.414 1.293-1.293z" fill="#ff9300"/><path d="m54.707 40.293-3-3a1 1 0 0 0 -1.414 0l-3 3 1.414 1.414 1.293-1.293v5.586h2v-5.586l1.293 1.293z" fill="#ff9300"/><path d="m40 48h12v2h-12z" fill="#ff9300"/></g></svg>