<svg id="Capa_1" enable-background="new 0 0 512 512" height="512" viewBox="0 0 512 512" width="512" xmlns="http://www.w3.org/2000/svg"><g><path d="m457.915 512h-403.83c-17.069 0-30.905-13.837-30.905-30.905v-328.344h465.642v328.344c-.001 17.068-13.838 30.905-30.907 30.905z" fill="#ace49a"/><path d="m457.915 152.751v328.344c0 17.069-13.837 30.905-30.905 30.905h30.905c17.069 0 30.905-13.837 30.905-30.905v-328.344z" fill="#87d8a2"/><path d="m218.864 152.751h74.272v359.249h-74.272z" fill="#fddf79"/><path d="m218.864 152.751h74.272v30.905h-74.272z" fill="#f9d068"/><path d="m512 99.083v33.065c0 11.379-9.225 20.604-20.604 20.604h-470.792c-11.379-.001-20.604-9.226-20.604-20.605v-33.064c0-11.379 9.225-20.604 20.604-20.604h470.793c11.378 0 20.603 9.225 20.603 20.604z" fill="#fddf79"/><path d="m491.396 78.479h-30.905c11.379 0 20.604 9.225 20.604 20.604v33.065c0 11.379-9.225 20.604-20.604 20.604h30.905c11.379 0 20.604-9.225 20.604-20.604v-33.065c0-11.379-9.225-20.604-20.604-20.604z" fill="#f9d068"/><g><circle cx="256" cy="349.746" fill="#dd636e" r="110.816"/><path d="m256 238.931c-5.245 0-10.402.373-15.453 1.078 53.886 7.52 95.363 53.781 95.363 109.738s-41.477 102.218-95.363 109.738c5.051.705 10.208 1.078 15.453 1.078 61.202 0 110.816-49.614 110.816-110.816s-49.614-110.816-110.816-110.816z" fill="#da4a54"/><g><g><path d="m229.52 412.087c-3.935-1.651-5.786-6.18-4.134-10.114l47.363-112.855c1.652-3.934 6.178-5.786 10.114-4.134 3.935 1.651 5.786 6.18 4.134 10.114l-47.363 112.855c-1.667 3.98-6.268 5.747-10.114 4.134z" fill="#fff"/></g><g><path d="m219.83 343.211c-15.8 0-28.654-14.375-28.654-32.045 0-17.669 12.854-32.045 28.654-32.045s28.654 14.375 28.654 32.045-12.854 32.045-28.654 32.045zm0-48.637c-7.279 0-13.201 7.443-13.201 16.592s5.922 16.592 13.201 16.592 13.201-7.443 13.201-16.592-5.921-16.592-13.201-16.592z" fill="#fff"/></g><g><path d="m292.17 420.372c-15.8 0-28.654-14.375-28.654-32.045s12.854-32.045 28.654-32.045 28.654 14.375 28.654 32.045c-.001 17.669-12.855 32.045-28.654 32.045zm0-48.638c-7.279 0-13.201 7.443-13.201 16.593 0 9.149 5.922 16.592 13.201 16.592s13.201-7.443 13.201-16.592-5.922-16.593-13.201-16.593z" fill="#fff"/></g></g></g><path d="m434.613 78.479h-141.477v-39.537l80.717-35.265c28.664-12.523 60.76 8.479 60.76 39.76z" fill="#dd636e"/><path d="m375.788 2.904c15.895 6.118 27.919 21.393 27.919 40.533v35.042h30.905v-35.042c.001-30.579-30.669-51.316-58.824-40.533z" fill="#da4a54"/><path d="m77.387 78.479h141.477v-39.537l-80.717-35.265c-28.664-12.523-60.76 8.479-60.76 39.76z" fill="#dd636e"/><path d="m218.864 38.942h74.272v39.537h-74.272z" fill="#ace49a"/><g><path d="m366.611 189.155-42.589 26.797c-2.182 1.373-5.074.508-6.144-1.838l-61.878-135.635h60.194l57.078 65.846c11.986 13.827 8.827 35.085-6.661 44.83z" fill="#dd636e"/><path d="m373.271 144.325-57.078-65.846h-30.905l57.078 65.846c11.986 13.827 8.828 35.085-6.661 44.831l-22.699 14.282 4.871 10.677c1.07 2.346 3.962 3.211 6.144 1.838l42.589-26.797c15.489-9.746 18.648-31.004 6.661-44.831z" fill="#da4a54"/><path d="m145.39 189.155 42.589 26.797c2.182 1.373 5.074.508 6.144-1.838l61.877-135.635h-60.194l-57.078 65.846c-11.986 13.827-8.827 35.085 6.662 44.83z" fill="#dd636e"/><path d="m225.095 78.479-57.006 124.958 19.89 12.515c2.182 1.373 5.074.508 6.144-1.838l61.877-135.635z" fill="#da4a54"/></g></g></svg>