<svg id="Flat" height="512" viewBox="0 0 512 512" width="512" xmlns="http://www.w3.org/2000/svg"><path d="m488 16h-40a8 8 0 0 0 0 16h20.686l-32 32h-44.686a8 8 0 0 0 -5.657 2.343l-181.656 181.657h-116.687a8 8 0 0 0 -5.657 2.343l-64 64a8 8 0 0 0 11.314 11.314l61.656-61.657h116.687a8 8 0 0 0 5.657-2.343l181.656-181.657h44.687a8 8 0 0 0 5.657-2.343l34.343-34.343v20.686a8 8 0 0 0 16 0v-40a8 8 0 0 0 -8-8z" fill="#3dc285"/><circle cx="88" cy="256" fill="#35a872" r="16"/><circle cx="208" cy="256" fill="#35a872" r="16"/><circle cx="392" cy="72" fill="#35a872" r="16"/><g fill="#2d85cc"><path d="m64 328h48v160h-48z"/><path d="m152 304h48v184h-48z"/><path d="m240 296h48v192h-48z"/><path d="m328 184h48v304h-48z"/><path d="m416 120h48v368h-48z"/></g></svg>