<svg height="512pt" viewBox="0 -25 512.00187 512" width="512pt" xmlns="http://www.w3.org/2000/svg"><path d="m492.480469 49.433594c-5.519531-28.191406-30.371094-49.4531252-60.175781-49.42968775l-72.09375.05859375.050781 61.269531 122.433593-.097656c6.234376-.003906 10.984376-5.683594 9.785157-11.800781zm0 0" fill="#f4bc8e"/><path d="m401.105469 49.511719c-1.195313 6.121093 3.5625 11.789062 9.800781 11.785156l-50.644531.039063-.050781-61.2773442 72.089843-.0585938c4.980469-.00390625 9.820313.589844 14.453125 1.707031-23.105468 5.601563-41.09375 24.3125-45.648437 47.804688zm0 0" fill="#efa66f"/><path d="m433.125 0c-33.832031.0273438-61.246094 27.484375-61.21875 61.328125l.171875 211.53125c0 2.632813-1.042969 5.15625-2.902344 7.015625l-21.476562 21.511719c-3.867188 3.878906-3.863281 10.15625.011719 14.027343l21.515624 21.476563c1.859376 1.859375 2.90625 4.378906 2.910157 7.007813l.042969 57.042968c.027343 33.84375-27.382813 61.300782-61.226563 61.328125l-210.78125.167969-.21875-113.003906c-.003906-2.199219.820313-4.320313 2.304687-5.945313l7.113282-7.796875c4.25-4.65625 2.375-12.144531-3.570313-14.246094-3.519531-1.242187-5.875-4.566406-5.875-8.296874l-.078125-251.601563c-.027344-33.84375 27.386719-61.296875 61.226563-61.324219zm0 0" fill="#fbdbb7"/><path d="m433.125 0c-33.832031.0273438-61.246094 27.484375-61.21875 61.328125l.171875 211.535156c0 2.628907-1.039063 5.148438-2.902344 7.015625l-21.476562 21.511719c-3.863281 3.871094-3.859375 10.160156.011719 14.023437l21.511718 21.476563c1.867188 1.863281 2.910156 4.382813 2.914063 7.007813l.042969 57.042968c.027343 33.84375-27.382813 61.300782-61.226563 61.328125l-20.3125.015625c33.839844-.027344 61.253906-27.484375 61.226563-61.328125l-.046876-57.042969c0-2.625-1.042968-5.144531-2.910156-7.007812l-21.511718-21.476562c-3.871094-3.863282-3.875-10.152344-.011719-14.023438l21.476562-21.511719c1.863281-1.867187 2.902344-4.386719 2.902344-7.015625l-.171875-211.535156c-.027344-33.84375 27.386719-61.296875 61.21875-61.328125zm0 0" fill="#f4bc8e"/><path d="m240.375 401.054688c4.917969-.003907 9.167969 3.574218 9.847656 8.445312 4.140625 29.835938 29.761719 52.792969 60.734375 52.769531l-250.59375.199219c-29.804687.023438-54.65625-21.238281-60.175781-49.429688-1.199219-6.117187 3.546875-11.796874 9.78125-11.800781zm0 0" fill="#f4bc8e"/><path d="m457.710938 278.617188c0 61.570312-49.910157 111.480468-111.480469 111.480468-61.566407 0-111.480469-49.910156-111.480469-111.480468 0-61.566407 49.914062-111.476563 111.480469-111.476563 61.570312 0 111.480469 49.910156 111.480469 111.476563zm0 0" fill="#f1eded"/><path d="m376.070312 286.347656h-22.894531c-4.269531 0-7.726562-3.460937-7.726562-7.726562 0-4.269532 3.457031-7.726563 7.726562-7.726563h22.894531c4.269532 0 7.726563 3.457031 7.726563 7.726563 0 4.265625-3.457031 7.726562-7.726563 7.726562zm0 0" fill="#82807f"/><path d="m346.230469 278.867188c-4.265625 0-7.726563-3.457032-7.726563-7.722657v-45.03125c0-4.265625 3.460938-7.726562 7.726563-7.726562s7.726562 3.460937 7.726562 7.726562v45.03125c0 4.265625-3.460937 7.722657-7.726562 7.722657zm0 0" fill="#82807f"/><path d="m359.355469 278.617188c0 7.25-5.875 13.125-13.125 13.125s-13.125-5.875-13.125-13.125c0-7.246094 5.875-13.125 13.125-13.125s13.125 5.878906 13.125 13.125zm0 0" fill="#fc4830"/><g fill="#00df97"><path d="m346.230469 210.394531c-4.265625 0-7.726563-3.457031-7.726563-7.726562v-8.820313c0-4.265625 3.460938-7.726562 7.726563-7.726562s7.726562 3.460937 7.726562 7.726562v8.820313c0 4.269531-3.460937 7.726562-7.726562 7.726562zm0 0"/><path d="m346.230469 366.234375c-4.265625 0-7.726563-3.460937-7.726563-7.726563v-8.820312c0-4.269531 3.460938-7.726562 7.726563-7.726562s7.726562 3.457031 7.726562 7.726562v8.820312c0 4.265626-3.460937 7.726563-7.726562 7.726563zm0 0"/><path d="m428.558594 283.902344h-8.820313c-4.265625 0-7.726562-3.457032-7.726562-7.722656 0-4.269532 3.460937-7.726563 7.726562-7.726563h8.820313c4.269531 0 7.726562 3.457031 7.726562 7.726563 0 4.265624-3.457031 7.722656-7.726562 7.722656zm0 0"/><path d="m272.722656 283.902344h-8.820312c-4.265625 0-7.726563-3.457032-7.726563-7.722656 0-4.269532 3.460938-7.726563 7.726563-7.726563h8.820312c4.265625 0 7.726563 3.457031 7.726563 7.726563 0 4.265624-3.460938 7.722656-7.726563 7.722656zm0 0"/><path d="m398.207031 231.925781c-1.976562 0-3.953125-.753906-5.460937-2.265625-3.019532-3.015625-3.019532-7.90625 0-10.925781l6.238281-6.238281c3.015625-3.015625 7.90625-3.015625 10.925781 0 3.019532 3.019531 3.019532 7.910156 0 10.929687l-6.238281 6.234375c-1.507813 1.511719-3.484375 2.265625-5.464844 2.265625zm0 0"/><path d="m288.015625 342.117188c-1.976563 0-3.957031-.753907-5.464844-2.261719-3.015625-3.015625-3.015625-7.910157 0-10.925781l6.238281-6.238282c3.019532-3.015625 7.910157-3.015625 10.929688 0 3.015625 3.015625 3.015625 7.910156 0 10.925782l-6.238281 6.238281c-1.511719 1.507812-3.488281 2.261719-5.464844 2.261719zm0 0"/><path d="m404.445312 342.117188c-1.976562 0-3.953124-.753907-5.460937-2.261719l-6.238281-6.238281c-3.015625-3.015626-3.015625-7.910157 0-10.925782 3.019531-3.015625 7.910156-3.015625 10.925781 0l6.238281 6.238282c3.015625 3.019531 3.015625 7.910156 0 10.925781-1.507812 1.507812-3.484375 2.261719-5.464844 2.261719zm0 0"/><path d="m294.253906 231.925781c-1.976562 0-3.953125-.753906-5.464844-2.265625l-6.238281-6.234375c-3.015625-3.019531-3.015625-7.910156 0-10.929687 3.019531-3.015625 7.910157-3.015625 10.925781 0l6.238282 6.238281c3.019531 3.015625 3.019531 7.910156 0 10.925781-1.507813 1.511719-3.484375 2.265625-5.460938 2.265625zm0 0"/><path d="m345.722656 112.339844c-87.78125 0-159.882812 68.375-165.867187 154.664062l-1.921875-1.921875c-6.648438-6.652343-17.433594-6.652343-24.082032 0-6.648437 6.648438-6.648437 17.429688 0 24.082031l30.664063 30.660157c3.191406 3.195312 7.523437 4.988281 12.039063 4.988281 4.515624 0 8.847656-1.792969 12.042968-4.984375l30.664063-30.664063c6.648437-6.652343 6.648437-17.433593 0-24.082031-6.652344-6.652343-17.433594-6.652343-24.082031 0l-1.089844 1.085938c6.296875-67.089844 62.925781-119.769531 131.632812-119.769531 72.90625 0 132.222656 59.316406 132.222656 132.222656s-59.316406 132.222656-132.222656 132.222656c-9.40625 0-17.03125 7.625-17.03125 17.027344 0 9.40625 7.625 17.03125 17.03125 17.03125 91.6875-.003906 166.277344-74.597656 166.277344-166.28125 0-91.6875-74.589844-166.28125-166.277344-166.28125zm0 0"/></g><path d="m173.992188 112.640625h-25.128907c-4.265625 0-7.722656-3.457031-7.722656-7.726563v-28.519531c0-4.265625 3.457031-7.722656 7.722656-7.722656h25.128907c4.265624 0 7.726562 3.457031 7.726562 7.722656v28.519531c0 4.269532-3.460938 7.726563-7.726562 7.726563zm-17.402344-15.453125h9.675781v-13.066406h-9.675781zm0 0" fill="#fab03c"/><path d="m163.972656 164.785156c-2.167968 0-4.289062-.914062-5.785156-2.605468l-9.789062-11.046876c-2.828126-3.195312-2.53125-8.078124.660156-10.910156 2.035156-1.796875 4.75-2.335937 7.1875-1.660156v-3.605469c0-4.265625 3.457031-7.722656 7.726562-7.722656 4.265625 0 7.722656 3.457031 7.722656 7.722656v22.101563c0 3.210937-1.984374 6.085937-4.984374 7.222656-.894532.339844-1.820313.503906-2.738282.503906zm0 0" fill="#fab03c"/><path d="m159.410156 215.625c-4.265625 0-7.726562-3.457031-7.726562-7.726562v-20.085938c0-4.265625 3.460937-7.726562 7.726562-7.726562 4.269532 0 7.726563 3.460937 7.726563 7.726562v20.085938c0 4.269531-3.457031 7.726562-7.726563 7.726562zm0 0" fill="#fab03c"/><path d="m214.253906 117.636719c-4.269531 0-7.726562-3.460938-7.726562-7.726563v-35.265625c0-4.269531 3.457031-7.726562 7.726562-7.726562h32.398438c4.269531 0 7.726562 3.457031 7.726562 7.726562v24.023438c0 4.269531-3.457031 7.726562-7.726562 7.726562h-13.285156c-4.269532 0-7.726563-3.457031-7.726563-7.726562 0-4.265625 3.457031-7.726563 7.726563-7.726563h5.5625v-8.570312h-16.949219v27.539062c0 4.265625-3.460938 7.726563-7.726563 7.726563zm0 0" fill="#fab03c"/></svg>