<svg height="512" viewBox="0 0 512 512" width="512" xmlns="http://www.w3.org/2000/svg"><g id="Solid"><path d="m240 176h32v32h-32z"/><path d="m464 304h-32v40a8 8 0 0 1 -8 8h-48a8 8 0 0 1 -8-8v-40h-32v112h128zm-16 96h-16v-16h16z"/><path d="m320 176h-32v40a8 8 0 0 1 -8 8h-48a8 8 0 0 1 -8-8v-40h-32v112h128zm-16 96h-16v-16h16z"/><path d="m384 304h32v32h-32z"/><path d="m240 304h32v32h-32z"/><path d="m384 176h32v32h-32z"/><path d="m328 432h-144-152v16h448v-16h-8z"/><path d="m64 464h32v16h-32z"/><path d="m416 464h32v16h-32z"/><path d="m464 176h-32v40a8 8 0 0 1 -8 8h-48a8 8 0 0 1 -8-8v-40h-32v112h128zm-16 96h-16v-16h16z"/><path d="m240 464h32v16h-32z"/><path d="m320 304h-32v40a8 8 0 0 1 -8 8h-48a8 8 0 0 1 -8-8v-40h-32v112h128zm-16 96h-16v-16h16z"/><path d="m144 359v-12.37h-24a8 8 0 0 1 -8-8v-306.63h-48v306.63a8 8 0 0 1 -8 8h-24v12.37l56 49z"/><path d="m312 111v-12.37h-24a8 8 0 0 1 -8-8v-58.63h-48v58.63a8 8 0 0 1 -8 8h-24v12.37l56 49z"/><path d="m456 98.63a8 8 0 0 1 -8-8v-58.63h-48v58.63a8 8 0 0 1 -8 8h-24v12.37l56 49 56-49v-12.37z"/></g></svg>