<svg height="512" viewBox="0 0 64 64" width="512" xmlns="http://www.w3.org/2000/svg"><g id="flat"><path d="m50 9h-36l-8 14v38h52v-38z" fill="#ffdf59"/><path d="m6 23h52v38h-52z" fill="#ffc200"/><path d="m58 23h-52l8-14h36z" fill="#ffdc64"/><path d="m11 37h16v12h-16z" fill="#ff9300"/><g fill="#ffc200"><path d="m14 40h10v2h-10z"/><path d="m14 44h3v2h-3z"/><path d="m19 44h5v2h-5z"/></g><path d="m38 55-2 2-2-1.715-2 1.778-2-2.063-2 2-2-2v6h12z" fill="#ff9300"/><path d="m32 35-13-16h7a16 16 0 0 1 16-16h8l-5.731 2.866a11.34 11.34 0 0 0 -6.269 10.143v2.991h7z" fill="#23a24d"/><path d="m40.293 40.293-3 3 1.414 1.414 1.293-1.293v5.586h2v-5.586l1.293 1.293 1.414-1.414-3-3a1 1 0 0 0 -1.414 0z" fill="#ff9300"/><path d="m54.707 43.293-3-3a1 1 0 0 0 -1.414 0l-3 3 1.414 1.414 1.293-1.293v5.586h2v-5.586l1.293 1.293z" fill="#ff9300"/></g></svg>