<?xml version="1.0" encoding="iso-8859-1"?>
<!-- Generator: Adobe Illustrator 19.0.0, SVG Export Plug-In . SVG Version: 6.00 Build 0)  -->
<svg version="1.1" id="Capa_1" xmlns="http://www.w3.org/2000/svg" xmlns:xlink="http://www.w3.org/1999/xlink" x="0px" y="0px"
	 viewBox="0 0 512 512" style="enable-background:new 0 0 512 512;" xml:space="preserve">
<path style="fill:#C0272D;" d="M481.365,478.87c0,2.833-2.318,5.151-5.151,5.151H63.764c-2.833,0-5.151-2.318-5.151-5.151V5.151
	C58.612,2.318,60.931,0,63.764,0h412.45c2.833,0,5.151,2.318,5.151,5.151L481.365,478.87L481.365,478.87z"/>
<path style="opacity:0.1;enable-background:new    ;" d="M78.809,478.87V5.151C78.809,2.318,81.127,0,83.96,0H63.764
	c-2.833,0-5.151,2.318-5.151,5.151V478.87c0,2.833,2.318,5.151,5.151,5.151H83.96C81.127,484.022,78.809,481.703,78.809,478.87z"/>
<path style="fill:#EE3835;" d="M453.388,506.85c0,2.832-2.318,5.15-5.151,5.15H35.785c-2.832,0-5.15-2.318-5.15-5.15V33.13
	c0-2.833,2.318-5.151,5.15-5.151h412.451c2.833,0,5.151,2.318,5.151,5.151v473.72H453.388z"/>
<path style="opacity:0.1;enable-background:new    ;" d="M48.556,506.85V33.13c0-2.833,2.317-5.151,5.15-5.151H35.785
	c-2.832,0-5.15,2.318-5.15,5.151v473.72c0,2.832,2.318,5.15,5.15,5.15h17.921C50.873,512,48.556,509.682,48.556,506.85z"/>
<rect x="66.33" y="27.979" style="fill:#FED0A5;" width="351.35" height="484.02"/>
<rect x="66.33" y="388.44" style="fill:#EBB272;" width="351.35" height="123.56"/>
<circle style="fill:#0CB8C0;" cx="120.97" cy="248.07" r="26"/>
<circle style="fill:#89C947;" cx="363.05" cy="248.07" r="26"/>
<path style="fill:#60A041;" d="M363.054,281.573c-18.473,0-33.501-15.029-33.501-33.502s15.028-33.502,33.501-33.502
	s33.502,15.029,33.502,33.502C396.556,266.544,381.526,281.573,363.054,281.573z M363.054,229.569
	c-10.201,0-18.501,8.3-18.501,18.502c0,10.202,8.3,18.502,18.501,18.502c10.202,0,18.502-8.3,18.502-18.502
	C381.556,237.869,373.256,229.569,363.054,229.569z"/>
<circle style="fill:#EE3835;" cx="201.66" cy="248.07" r="26"/>
<path style="fill:#C0272D;" d="M225.352,224.383c-6.327-6.328-14.74-9.813-23.689-9.813s-17.362,3.485-23.69,9.813
	c-13.062,13.062-13.062,34.315,0,47.379c6.328,6.327,14.741,9.813,23.69,9.813c8.948,0,17.361-3.485,23.688-9.813
	c6.328-6.327,9.813-14.74,9.813-23.689S231.68,230.709,225.352,224.383z M212.271,248.072l6.649-6.65
	c0.807,2.095,1.244,4.337,1.244,6.649c0,2.313-0.438,4.555-1.244,6.65L212.271,248.072z M208.314,230.814l-6.65,6.651l-6.651-6.651
	c2.096-0.807,4.337-1.244,6.65-1.244C203.977,229.569,206.219,230.007,208.314,230.814z M184.411,254.717
	c-1.638-4.27-1.638-9.021-0.001-13.291l6.646,6.646L184.411,254.717z M195.014,265.33l6.65-6.65l6.649,6.649
	c-2.096,0.807-4.338,1.244-6.65,1.244S197.108,266.136,195.014,265.33z"/>
<path style="fill:#FECF05;" d="M295.531,274.073c-0.512,0-1.027-0.091-1.52-0.273l-12.647-4.729l-12.651,4.729
	c-0.494,0.183-1.01,0.273-1.519,0.273c-0.9,0-1.795-0.279-2.547-0.821c-1.172-0.85-1.841-2.233-1.776-3.676l0.607-13.432
	l-8.425-10.511c-0.909-1.131-1.184-2.642-0.731-4.015c0.448-1.378,1.558-2.434,2.963-2.82l13.023-3.57l7.443-11.226
	c0.803-1.207,2.155-1.934,3.612-1.934c1.454,0,2.807,0.727,3.605,1.934l7.449,11.22l13.021,3.576c1.4,0.387,2.515,1.442,2.965,2.82
	c0.452,1.373,0.177,2.884-0.731,4.015l-8.426,10.511l0.604,13.432c0.068,1.443-0.598,2.827-1.774,3.676
	C297.325,273.794,296.433,274.073,295.531,274.073z"/>
<path style="fill:#F8B816;" d="M295.531,281.573c-1.413,0-2.802-0.25-4.128-0.742l-10.039-3.753l-10.025,3.747
	c-3.759,1.391-7.904,0.798-11.077-1.489c-3.241-2.35-5.06-6.119-4.883-10.095l0.479-10.611l-6.657-8.306
	c-2.503-3.114-3.255-7.248-2.003-11.051c1.223-3.758,4.253-6.647,8.097-7.706l10.317-2.828l5.889-8.881
	c2.205-3.315,5.89-5.289,9.863-5.289c3.982,0,7.668,1.98,9.861,5.298l5.887,8.867l10.313,2.832c3.848,1.063,6.874,3.949,8.107,7.724
	c1.246,3.783,0.496,7.917-2.013,11.04l-6.654,8.301l0.477,10.608c0.189,3.976-1.636,7.756-4.88,10.096
	C300.439,280.798,298.039,281.573,295.531,281.573z M263.955,244.747l5.376,6.707c1.139,1.421,1.722,3.209,1.64,5.029l-0.39,8.611
	l8.157-3.049c1.693-0.633,3.558-0.633,5.253,0l8.149,3.047l-0.387-8.611c-0.082-1.819,0.501-3.606,1.641-5.028l5.377-6.708
	l-8.34-2.29c-1.746-0.479-3.26-1.575-4.262-3.084l-4.808-7.241l-4.803,7.243c-1.003,1.512-2.519,2.609-4.268,3.089L263.955,244.747z
	"/>
<circle style="fill:#89C947;" cx="363.05" cy="328.74" r="26"/>
<path style="fill:#60A041;" d="M363.054,362.243c-18.473,0-33.501-15.029-33.501-33.502s15.028-33.502,33.501-33.502
	s33.502,15.029,33.502,33.502C396.556,347.214,381.526,362.243,363.054,362.243z M363.054,310.239
	c-10.201,0-18.501,8.3-18.501,18.502c0,10.202,8.3,18.502,18.501,18.502c10.202,0,18.502-8.3,18.502-18.502
	S373.256,310.239,363.054,310.239z"/>
<g>
	<circle style="fill:#0CB8C0;" cx="201.66" cy="328.74" r="26"/>
	<circle style="fill:#0CB8C0;" cx="120.97" cy="328.74" r="26"/>
</g>
<g>
	<path style="fill:#068F8F;" d="M120.969,281.573c-18.473,0-33.502-15.029-33.502-33.502s15.029-33.502,33.502-33.502
		s33.501,15.029,33.501,33.502S139.441,281.573,120.969,281.573z M120.969,229.569c-10.202,0-18.502,8.3-18.502,18.502
		c0,10.202,8.3,18.502,18.502,18.502c10.201,0,18.501-8.3,18.501-18.502C139.47,237.869,131.17,229.569,120.969,229.569z"/>
	<path style="fill:#068F8F;" d="M201.664,362.243c-18.474,0-33.503-15.029-33.503-33.502s15.029-33.502,33.503-33.502
		c18.473,0,33.501,15.029,33.501,33.502C235.165,347.214,220.137,362.243,201.664,362.243z M201.664,310.239
		c-10.202,0-18.503,8.3-18.503,18.502c0,10.202,8.301,18.502,18.503,18.502c10.201,0,18.501-8.3,18.501-18.502
		C220.165,318.539,211.865,310.239,201.664,310.239z"/>
	<path style="fill:#068F8F;" d="M120.969,362.243c-18.473,0-33.502-15.029-33.502-33.502s15.029-33.502,33.502-33.502
		s33.501,15.029,33.501,33.502C154.47,347.214,139.441,362.243,120.969,362.243z M120.969,310.239
		c-10.202,0-18.502,8.3-18.502,18.502c0,10.202,8.3,18.502,18.502,18.502c10.201,0,18.501-8.3,18.501-18.502
		S131.17,310.239,120.969,310.239z"/>
</g>
<circle style="fill:#EE3835;" cx="282.36" cy="328.74" r="26"/>
<path style="fill:#C0272D;" d="M306.048,305.053c-6.327-6.328-14.74-9.813-23.69-9.813s-17.362,3.485-23.689,9.812
	c-6.329,6.327-9.814,14.74-9.814,23.689s3.485,17.363,9.814,23.69c6.328,6.327,14.741,9.813,23.69,9.813
	c8.948,0,17.361-3.485,23.689-9.813c6.327-6.328,9.813-14.741,9.813-23.69C315.86,319.791,312.375,311.378,306.048,305.053z
	 M292.965,328.742l6.651-6.651c0.807,2.095,1.244,4.337,1.244,6.649c0,2.314-0.438,4.556-1.244,6.652L292.965,328.742z
	 M289.009,311.483l-6.651,6.651l-6.65-6.651c2.096-0.807,4.338-1.244,6.651-1.244S286.913,310.677,289.009,311.483z M265.1,335.393
	c-0.807-2.097-1.244-4.339-1.244-6.652c0-2.313,0.438-4.554,1.244-6.649l6.65,6.651L265.1,335.393z M275.708,345.999l6.649-6.649
	l6.65,6.649c-2.095,0.807-4.336,1.244-6.648,1.244C280.046,347.243,277.804,346.806,275.708,345.999z"/>
<g>
	<path style="fill:#005289;" d="M173.595,485.629c-4.143,0-7.5-3.357-7.5-7.5V423.16c0-4.143,3.357-7.5,7.5-7.5s7.5,3.357,7.5,7.5
		v54.969C181.095,482.272,177.737,485.629,173.595,485.629z"/>
	<path style="fill:#005289;" d="M197.827,485.629c-4.143,0-7.5-3.357-7.5-7.5V423.16c0-4.143,3.357-7.5,7.5-7.5s7.5,3.357,7.5,7.5
		v54.969C205.327,482.272,201.97,485.629,197.827,485.629z"/>
	<path style="fill:#005289;" d="M222.061,485.629c-4.143,0-7.5-3.357-7.5-7.5V423.16c0-4.143,3.357-7.5,7.5-7.5s7.5,3.357,7.5,7.5
		v54.969C229.561,482.272,226.204,485.629,222.061,485.629z"/>
	<path style="fill:#005289;" d="M246.295,485.629c-4.143,0-7.5-3.357-7.5-7.5V423.16c0-4.143,3.357-7.5,7.5-7.5s7.5,3.357,7.5,7.5
		v54.969C253.795,482.272,250.438,485.629,246.295,485.629z"/>
	<path style="fill:#005289;" d="M270.528,485.629c-4.143,0-7.5-3.357-7.5-7.5V423.16c0-4.143,3.357-7.5,7.5-7.5s7.5,3.357,7.5,7.5
		v54.969C278.028,482.272,274.671,485.629,270.528,485.629z"/>
	<path style="fill:#005289;" d="M294.763,485.629c-4.143,0-7.5-3.357-7.5-7.5V423.16c0-4.143,3.357-7.5,7.5-7.5s7.5,3.357,7.5,7.5
		v54.969C302.263,482.272,298.905,485.629,294.763,485.629z"/>
	<path style="fill:#005289;" d="M318.996,485.629c-4.143,0-7.5-3.357-7.5-7.5V423.16c0-4.143,3.357-7.5,7.5-7.5s7.5,3.357,7.5,7.5
		v54.969C326.496,482.272,323.139,485.629,318.996,485.629z"/>
	<path style="fill:#005289;" d="M355.347,485.629c-4.143,0-7.5-3.357-7.5-7.5V423.16c0-4.143,3.357-7.5,7.5-7.5s7.5,3.357,7.5,7.5
		v54.969C362.847,482.272,359.489,485.629,355.347,485.629z"/>
	<path style="fill:#005289;" d="M379.58,485.629c-4.143,0-7.5-3.357-7.5-7.5V423.16c0-4.143,3.357-7.5,7.5-7.5s7.5,3.357,7.5,7.5
		v54.969C387.08,482.272,383.723,485.629,379.58,485.629z"/>
	<path style="fill:#005289;" d="M106.199,485.629c-4.143,0-7.5-3.357-7.5-7.5V423.16c0-4.143,3.357-7.5,7.5-7.5s7.5,3.357,7.5,7.5
		v54.969C113.699,482.272,110.342,485.629,106.199,485.629z"/>
	<path style="fill:#005289;" d="M130.433,485.629c-4.143,0-7.5-3.357-7.5-7.5V423.16c0-4.143,3.357-7.5,7.5-7.5
		c4.143,0,7.5,3.357,7.5,7.5v54.969C137.933,482.272,134.575,485.629,130.433,485.629z"/>
</g>
<path style="fill:#EBB272;" d="M391.378,195.577h-8c-4.142,0-7.5-3.357-7.5-7.5s3.358-7.5,7.5-7.5h8c4.143,0,7.5,3.357,7.5,7.5
	S395.521,195.577,391.378,195.577z M358.378,195.577h-8c-4.142,0-7.5-3.357-7.5-7.5s3.358-7.5,7.5-7.5h8c4.143,0,7.5,3.357,7.5,7.5
	S362.521,195.577,358.378,195.577z M325.378,195.577h-8c-4.142,0-7.5-3.357-7.5-7.5s3.358-7.5,7.5-7.5h8c4.143,0,7.5,3.357,7.5,7.5
	S329.521,195.577,325.378,195.577z M292.378,195.577h-8c-4.142,0-7.5-3.357-7.5-7.5s3.358-7.5,7.5-7.5h8c4.143,0,7.5,3.357,7.5,7.5
	S296.521,195.577,292.378,195.577z M259.378,195.577h-8c-4.143,0-7.5-3.357-7.5-7.5s3.357-7.5,7.5-7.5h8c4.143,0,7.5,3.357,7.5,7.5
	S263.521,195.577,259.378,195.577z M226.378,195.577h-8c-4.143,0-7.5-3.357-7.5-7.5s3.357-7.5,7.5-7.5h8c4.143,0,7.5,3.357,7.5,7.5
	S230.52,195.577,226.378,195.577z M193.378,195.577h-8c-4.143,0-7.5-3.357-7.5-7.5s3.357-7.5,7.5-7.5h8c4.143,0,7.5,3.357,7.5,7.5
	S197.52,195.577,193.378,195.577z M160.378,195.577h-8c-4.143,0-7.5-3.357-7.5-7.5s3.357-7.5,7.5-7.5h8c4.143,0,7.5,3.357,7.5,7.5
	S164.52,195.577,160.378,195.577z M127.378,195.577h-8c-4.143,0-7.5-3.357-7.5-7.5s3.357-7.5,7.5-7.5h8c4.143,0,7.5,3.357,7.5,7.5
	C134.878,192.22,131.52,195.577,127.378,195.577z M94.378,195.577h-8c-4.143,0-7.5-3.357-7.5-7.5s3.357-7.5,7.5-7.5h8
	c4.143,0,7.5,3.357,7.5,7.5S98.521,195.577,94.378,195.577z"/>
<path style="fill:#EE3835;" d="M188.369,73.577c-14.196,0-25.746,11.551-25.746,25.748v22.155c0,14.196,11.55,25.746,25.746,25.746
	s25.745-11.55,25.745-25.746V99.325C214.114,85.128,202.565,73.577,188.369,73.577z M199.114,121.48
	c0,5.926-4.82,10.746-10.745,10.746c-5.926,0-10.746-4.82-10.746-10.746V99.325c0-5.927,4.82-10.748,10.746-10.748
	c5.925,0,10.745,4.821,10.745,10.748V121.48z"/>
<g>
	<path style="fill:#C0272D;" d="M354.299,73.577c-14.196,0-25.746,11.551-25.746,25.748v22.155c0,14.196,11.55,25.746,25.746,25.746
		s25.746-11.55,25.746-25.746V99.325C380.045,85.128,368.495,73.577,354.299,73.577z M365.045,121.48
		c0,5.926-4.82,10.746-10.746,10.746s-10.746-4.82-10.746-10.746V99.325c0-5.927,4.82-10.748,10.746-10.748
		s10.746,4.821,10.746,10.748V121.48z"/>
	<path style="fill:#C0272D;" d="M150.574,132.227h-31.599v-51.15c0-4.143-3.357-7.5-7.5-7.5s-7.5,3.357-7.5,7.5v58.649
		c0,4.143,3.357,7.5,7.5,7.5h39.099c4.143,0,7.5-3.357,7.5-7.5C158.074,135.584,154.717,132.227,150.574,132.227z"/>
	<path style="fill:#C0272D;" d="M261.354,73.577h-36.491c-4.143,0-7.5,3.357-7.5,7.5s3.357,7.5,7.5,7.5h10.744v51.149
		c0,4.143,3.357,7.5,7.5,7.5s7.5-3.357,7.5-7.5V88.577h10.747c4.143,0,7.5-3.357,7.5-7.5
		C268.854,76.935,265.497,73.577,261.354,73.577z"/>
</g>
<path style="fill:#EE3835;" d="M318.783,73.577h-36.492c-4.143,0-7.5,3.357-7.5,7.5s3.357,7.5,7.5,7.5h10.744v51.149
	c0,4.143,3.357,7.5,7.5,7.5s7.5-3.357,7.5-7.5V88.577h10.748c4.143,0,7.5-3.357,7.5-7.5
	C326.283,76.935,322.926,73.577,318.783,73.577z"/>
<g>
</g>
<g>
</g>
<g>
</g>
<g>
</g>
<g>
</g>
<g>
</g>
<g>
</g>
<g>
</g>
<g>
</g>
<g>
</g>
<g>
</g>
<g>
</g>
<g>
</g>
<g>
</g>
<g>
</g>
</svg>
