<svg id="Capa_1" enable-background="new 0 0 512 512" height="512" viewBox="0 0 512 512" width="512" xmlns="http://www.w3.org/2000/svg"><g><g><g><g><path d="m343.157 484.298v-32.039-380.743-43.814c0-15.299-12.403-27.702-27.702-27.702h-265.161c-15.3 0-27.702 12.403-27.702 27.702v456.595c0 15.3 12.403 27.702 27.702 27.702h265.161c15.299.001 27.702-12.402 27.702-27.701z" fill="#eff3f5"/><g fill="#daeaef"><path d="m334.823 27.702v52.814h32.53l8.24-9v-43.814c.001-15.299-12.402-27.702-27.702-27.702h-40.77c15.3 0 27.702 12.403 27.702 27.702z"/><path d="m334.823 443.259v41.039c0 15.299-12.403 27.702-27.702 27.702h40.77c15.299 0 27.702-12.403 27.702-27.702v-32.039l-7.427-9.092z"/></g><path d="m22.591 71.516h320.565v380.742h-320.565z" fill="#cbe2ff"/><path d="m334.823 71.516h40.77v380.742h-40.77z" fill="#9dc6fb"/></g><path d="m424.697 143.176h-159.81c-32.598 0-59.025 26.426-59.025 59.025v70.91c0 27.831 19.263 51.163 45.183 57.392 8.031 1.93 13.796 8.947 13.796 17.207v12.188l.984 1.396 9.949-13.679c5.816-7.997 15.108-12.729 24.996-12.729h17.418c3.745 0 7.501-.485 11.032-1.732 1.883-.665 3.885-1.018 5.934-1.018h89.543c16.402 0 29.699-13.297 29.699-29.699v-129.562c0-16.402-13.297-29.699-29.699-29.699z" fill="#fbe77b"/><g fill="#fcdd2e"><path d="m430.384 143.176h-11.687c16.402 0 29.699 13.297 29.699 29.699v129.562c0 16.402-13.297 29.699-29.699 29.699h11.687c32.599 0 59.025-26.426 59.025-59.025v-70.91c0-32.598-26.426-59.025-59.025-59.025z"/><path d="m264.841 359.897v39.866c0 5.205 6.659 7.37 9.72 3.161l46.124-63.421c3.366-4.629 8.745-7.368 14.468-7.368h-34.383c-9.888 0-19.18 4.731-24.996 12.729z"/></g><g><g fill="#fcb143"><path d="m279.345 206.013c-.026-.069-.052-.137-.081-.205-1.394-3.393-4.665-5.584-8.333-5.584-.002 0-.005 0-.008 0-3.671.003-6.942 2.201-8.332 5.599-.024.057-.046.114-.068.172l-23.914 62.788c-1.487 3.906.472 8.278 4.378 9.765 3.904 1.489 8.277-.473 9.765-4.378l4.099-10.763h27.976l4.054 10.742c1.143 3.031 4.023 4.898 7.081 4.898.888 0 1.791-.157 2.671-.489 3.91-1.476 5.884-5.842 4.407-9.752zm-16.728 42.257 8.288-21.76 8.212 21.76z"/><path d="m352.013 201.165h-17.504c-2.009 0-3.936.799-5.356 2.221-1.419 1.422-2.215 3.351-2.211 5.36 0 0 .045 23.772.045 30.818 0 8.591.08 30.996.08 30.996.007 2.007.812 3.93 2.236 5.344 1.418 1.408 3.334 2.197 5.332 2.197h.029c.529-.002 13.009-.05 17.994-.137 18.473-.323 31.881-16.444 31.881-38.331-.002-23.009-13.072-38.468-32.526-38.468zm.379 61.666c-2.344.041-6.506.074-10.216.097-.024-7.305-.054-18.015-.054-23.363 0-4.47-.018-15.665-.032-23.265h9.923c12.821 0 17.39 12.053 17.39 23.333-.001 15.82-8.544 23.05-17.011 23.198z"/><path d="m438.576 233.035c-7.889-2.91-15.228-6.08-17.41-7.036-1.933-1.519-1.87-3.654-1.743-4.54.172-1.199 1.038-4.126 5.342-5.423 9.192-2.766 17.66 3.941 17.889 4.125 3.197 2.655 7.946 2.233 10.625-.955 2.689-3.199 2.276-7.972-.923-10.662-.595-.5-14.763-12.18-31.956-6.999-8.644 2.603-14.759 9.41-15.958 17.763-1.123 7.829 2.269 15.359 8.855 19.653.334.218.685.409 1.049.572.369.164 9.127 4.063 18.992 7.702 2.885 1.064 9.498 4.082 8.6 9.108-.664 3.719-5.151 7.565-11.512 7.565-6.438 0-12.638-2.6-16.584-6.955-2.807-3.097-7.592-3.332-10.689-.526s-3.332 7.592-.526 10.689c6.767 7.468 17.159 11.927 27.8 11.927 13.23 0 24.338-8.428 26.411-20.04 1.558-8.722-2.422-20.125-18.262-25.968z"/></g></g></g><g><path d="m213.723 42.646h-29.261c-4.179 0-7.568-3.388-7.568-7.568s3.388-7.568 7.568-7.568h29.261c4.179 0 7.568 3.388 7.568 7.568s-3.389 7.568-7.568 7.568z" fill="#a8d0d5"/></g></g></g></svg>