<svg width="51" height="45" viewBox="0 0 51 45" fill="none" xmlns="http://www.w3.org/2000/svg">
  <path d="M45.7 16.6984L43 19.3984L43.7 23.0984L40.2 21.3984L36.8 23.1984L37.4 19.4984L34.5 16.8984L38.4 16.2984L40.1 12.8984L41.9 16.1984L45.7 16.6984Z" fill="#EF3642"/>
  <path d="M50.8999 30.7992L48.3999 33.2992L48.9999 36.6992L45.7999 35.0992L42.5999 36.7992L43.1999 33.2992L40.5999 30.8992L44.0999 30.3992L45.6999 27.1992L47.2999 30.2992L50.8999 30.7992Z" fill="#EF3642"/>
  <path d="M5.3999 16.6984L8.1999 19.3984L7.4999 23.0984L10.8999 21.3984L14.3999 23.1984L13.7999 19.4984L16.5999 16.8984L12.6999 16.2984L11.0999 12.8984L9.2999 16.1984L5.3999 16.6984Z" fill="#EF3642"/>
  <path d="M0.199951 30.7992L2.79995 33.2992L2.09995 36.6992L5.29995 35.0992L8.49995 36.7992L7.99995 33.2992L10.6 30.8992L6.99995 30.3992L5.49995 27.1992L3.79995 30.2992L0.199951 30.7992Z" fill="#EF3642"/>
  <path d="M33.9999 6.69922L29.6999 10.7992L30.7999 16.5992L25.3999 13.8992L20.0999 16.6992L20.9999 10.8992L16.5999 6.89922L22.5999 5.99922L25.1999 0.699219L27.9999 5.89922L33.9999 6.69922Z" fill="#EF3642"/>
  <path d="M24.8999 22.7988C24.1999 24.2988 23.3999 25.8988 22.6999 27.3988C22.5999 27.5988 22.5999 27.5988 22.3999 27.4988C22.0999 27.2988 21.7999 27.1988 21.4999 27.0988C21.2999 26.9988 21.2999 26.9988 21.3999 26.7988C22.2999 24.9988 23.1999 23.1988 24.0999 21.2988C24.2999 20.8988 24.6999 20.6988 25.1999 20.8988C25.4999 21.0988 27.0999 21.7988 27.3999 21.9988L26.7999 23.2988C26.7999 23.2988 25.4999 22.6988 25.4999 22.5988C25.0999 22.5988 24.9999 22.5988 24.8999 22.7988Z" fill="#077893"/>
  <path d="M30.5 21.2987C30.1 21.0987 29.7 20.8987 29.3 20.6987C28.5 20.2987 27.7 20.5987 27.3 21.2987C27.2 21.4987 27.1 21.5987 27.1 21.7987L23.6 28.9987C21.9 32.5987 20.1001 36.0987 18.4001 39.6987C18.3001 39.8987 18.3 40.0987 18.3 40.2987C18.4 41.2987 18.4 42.2987 18.5 43.2987C18.5 43.5987 18.6 43.8987 19 43.9987C19.3 44.0987 19.6 44.0987 19.8 43.8987C20.6 43.2987 21.3 42.6987 22.1 42.0987C22.3 41.9987 22.4 41.7987 22.5 41.6987C24 38.6987 25.5 35.5987 27 32.5987C28.5 29.5987 29.9001 26.5987 31.4001 23.5987C31.7001 22.5987 31.4 21.5987 30.5 21.2987Z" fill="#29ABE2"/>
</svg>
