<svg id="Layer_1" enable-background="new 0 0 64 64" height="512" viewBox="0 0 64 64" width="512" xmlns="http://www.w3.org/2000/svg"><g><circle cx="21" cy="14" r="9"/><path d="m35.2966919 32.3139038c-2.376648-4.3535156-6.9970093-7.3139038-12.2966919-7.3139038h-4c-7.7197266 0-14 6.2802734-14 14v11c0 .5522461.4477539 1 1 1h24.1815186c-.661499-1.7356567-1.0876465-3.6967163-1.1795654-5.9174805-.0011597-5.2203979 2.4760131-9.8335571 6.2947387-12.7686157z"/><path d="m45 31c-7.7197266 0-14 6.2802734-14 14 .7688599 18.572937 27.2339478 18.5675049 28-.0001221 0-7.7196045-6.2802734-13.9998779-14-13.9998779zm7 15.3707886v4.6292114c0 .5522461-.4472656 1-1 1h-12c-.5527344 0-1-.4477539-1-1v-4.6292114c-.7639771-.6564941-1.2962036-1.6986084-1.1777344-2.7804565l1.0283203-4.7998047c.0986329-.4609376.5058594-.7905274.9775391-.7905274h12.34375c.4716797 0 .8789062.3295898.9775391.7905273l1.0283203 4.7998047c.1188354 1.0817871-.4140625 2.1241455-1.1777344 2.7804566z"/><path d="m39.6367188 40-.8339844 3.8916016c.0478516.7294922.65625 1.3085938 1.3974609 1.3085938.7714844 0 1.3994141-.628418 1.3994141-1.4003906 0-.5522461.4472656-1 1-1s1 .4477539 1 1c0 .7719727.6279297 1.4003906 1.4003906 1.4003906s1.4003906-.628418 1.4003906-1.4003906c0-.5522461.4472656-1 1-1s1 .4477539 1 1c0 .7719727.6279297 1.4003906 1.3994141 1.4003906.7412109 0 1.3496094-.5791016 1.3974609-1.3085938l-.8339844-3.8916016z"/><path d="m42.5996094 46.2060547c-.6511231.6467285-1.6161499 1.0748291-2.5996094.9738769v2.8200684h10v-2.8200684c-.9832764.1010132-1.9487305-.3272095-2.5996094-.973877-1.2053833 1.30542-3.5952759 1.3056031-4.8007812.0000001z"/></g></svg>