<?xml version="1.0"?>
<svg xmlns="http://www.w3.org/2000/svg" xmlns:xlink="http://www.w3.org/1999/xlink" xmlns:svgjs="http://svgjs.com/svgjs" version="1.1" width="512" height="512" x="0" y="0" viewBox="0 0 360 360.90027" style="enable-background:new 0 0 512 512" xml:space="preserve" class=""><g><path xmlns="http://www.w3.org/2000/svg" d="m60.109375 114.644531c1.082031.628907 2.265625.929688 3.433594.929688 2.347656 0 4.632812-1.207031 5.902343-3.382813 3.691407-6.324218 8.011719-12.363281 12.824219-17.941406 2.46875-2.855469 2.148438-7.164062-.703125-9.628906-2.835937-2.457032-7.160156-2.152344-9.628906.707031-5.359375 6.207031-10.167969 12.929687-14.28125 19.976563-1.898438 3.257812-.808594 7.4375 2.453125 9.339843zm0 0" fill="#605757" data-original="#000000" style="" class=""/><path xmlns="http://www.w3.org/2000/svg" d="m122.515625 229.722656c1.746094 0 3.492187-.667968 4.828125-2l50.410156-50.417968c1.28125-1.277344 2.003906-3.015626 2.003906-4.824219v-72.023438c0-3.769531-3.054687-6.828125-6.828124-6.828125-3.773438 0-6.828126 3.058594-6.828126 6.828125v69.195313l-48.410156 48.417968c-2.667968 2.664063-2.667968 6.984376 0 9.652344 1.332032 1.332032 3.078125 2 4.824219 2zm0 0" fill="#605757" data-original="#000000" style="" class=""/><path xmlns="http://www.w3.org/2000/svg" d="m329.789062 244.164062c10.332032-22.554687 15.621094-46.644531 15.621094-71.683593 0-95.109375-77.375-172.480469-172.480468-172.480469-95.105469 0-172.480469 77.375-172.480469 172.480469s77.375 172.480469 172.480469 172.480469c21.625 0 42.671874-3.992188 62.625-11.773438 11.882812 16.738281 31.378906 27.710938 53.429687 27.710938 36.136719 0 65.539063-29.398438 65.539063-65.539063 0-20.710937-9.683594-39.179687-24.734376-51.195313zm-156.859374 87.144532c-87.578126 0-158.828126-71.25-158.828126-158.828125 0-87.574219 71.25-158.824219 158.828126-158.824219 87.578124 0 158.824218 71.25 158.824218 158.824219 0 22.425781-4.617187 44.011719-13.609375 64.273437-7.621093-3.808594-16.070312-6.15625-25.015625-6.722656 6.34375-13.234375 10.558594-27.3125 12.277344-42.042969 8.554688-73.050781-43.917969-139.4375-116.972656-147.988281-29.765625-3.476562-58.980469 2.863281-84.546875 18.34375-3.21875 1.953125-4.25 6.152344-2.300781 9.375 1.960937 3.234375 6.160156 4.257812 9.382812 2.304688 22.933594-13.890626 49.152344-19.589844 75.878906-16.460938 31.765625 3.71875 60.179688 19.582031 80.011719 44.671875 19.835937 25.09375 28.707031 56.40625 24.988281 88.167969-1.78125 15.226562-6.359375 29.730468-13.601562 43.109375-.230469.425781-.273438.886719-.40625 1.332031-25.988282 4.476562-46.75 24.261719-52.65625 49.734375-.511719.109375-1.027344.144531-1.523438.375-20.105468 9.429687-42.453125 13.054687-64.652344 10.449219-31.769531-3.722656-60.183593-19.585938-80.015624-44.675782-19.832032-25.09375-28.707032-56.402343-24.988282-88.164062.441406-3.742188-2.238281-7.136719-5.984375-7.574219-3.773437-.4375-7.136719 2.246094-7.574219 5.984375-4.140624 35.386719 5.746094 70.269532 27.839844 98.21875 22.089844 27.953125 53.746094 45.625 89.132813 49.769532 5.199219.609374 10.398437.910156 15.59375.910156 17.3125 0 34.429687-3.378906 50.453125-9.949219.074218 8.914063 1.925781 17.410156 5.238281 25.144531-17.816406 6.691406-36.519531 10.242188-55.773437 10.242188zm116.054687 15.9375c-28.617187 0-51.886719-23.277344-51.886719-51.886719s23.273438-51.886719 51.886719-51.886719c28.609375 0 51.882813 23.277344 51.882813 51.886719s-23.269532 51.886719-51.882813 51.886719zm0 0" fill="#605757" data-original="#000000" style="" class=""/><path xmlns="http://www.w3.org/2000/svg" d="m288.984375 254.398438c-3.773437 0-6.828125 3.058593-6.828125 6.828124v40.960938c0 3.769531 3.054688 6.824219 6.828125 6.824219s6.824219-3.054688 6.824219-6.824219v-40.960938c0-3.769531-3.050782-6.828124-6.824219-6.828124zm0 0" fill="#605757" data-original="#000000" style="" class=""/><path xmlns="http://www.w3.org/2000/svg" d="m295.808594 322.664062c0 3.773438-3.054688 6.828126-6.824219 6.828126-3.773437 0-6.828125-3.054688-6.828125-6.828126 0-3.769531 3.054688-6.824218 6.828125-6.824218 3.769531 0 6.824219 3.054687 6.824219 6.824218zm0 0" fill="#605757" data-original="#000000" style="" class=""/></g></svg>
