<svg id="Capa_1" enable-background="new 0 0 512 512" height="512" viewBox="0 0 512 512" width="512" xmlns="http://www.w3.org/2000/svg"><g><g><path d="m510 365.679h-285.344v43.577h280.379c3.846 0 6.965-3.118 6.965-6.965v-35.612z" fill="#c8effe"/><g><path d="m413.489 259.002v107.677h98.511v-54.826c0-2.806-.678-5.57-1.976-8.057l-18.499-35.44c-3.001-5.75-8.949-9.355-15.435-9.355h-62.601z" fill="#faea5e"/></g><g><path d="m440.918 339.25v-52.819h29.101l14.552 27.88v24.939z" fill="#fff"/></g><g><path d="m440.918 286.431h20.835v52.818h-20.835z" fill="#f2fbff"/></g><g><path d="m484.571 346.75h-43.653c-4.143 0-7.5-3.357-7.5-7.5v-52.818c0-4.143 3.357-7.5 7.5-7.5h29.101c2.794 0 5.356 1.553 6.648 4.029l14.553 27.88c.56 1.071.852 2.262.852 3.471v24.938c-.001 4.142-3.358 7.5-7.501 7.5zm-36.153-15h28.653v-15.599l-11.599-22.22h-17.055v37.819z" fill="#ffd600"/></g><g><circle cx="450.262" cy="412.797" fill="#596c76" r="26.652"/></g><g><path d="m444.496 412.797c0-11.013 6.68-20.464 16.209-24.526-3.207-1.367-6.736-2.126-10.443-2.126-14.72 0-26.652 11.932-26.652 26.652 0 14.719 11.932 26.652 26.652 26.652 3.707 0 7.236-.758 10.443-2.126-9.528-4.062-16.209-13.514-16.209-24.526z" fill="#465a61"/></g><g><circle cx="310.564" cy="412.797" fill="#596c76" r="26.652"/></g><g><path d="m304.91 412.797c0-10.991 6.654-20.425 16.153-24.501-3.222-1.383-6.771-2.151-10.499-2.151-14.719 0-26.652 11.932-26.652 26.652 0 14.719 11.933 26.652 26.652 26.652 3.729 0 7.277-.768 10.499-2.151-9.499-4.076-16.153-13.51-16.153-24.501z" fill="#465a61"/></g><g><path d="m237.777 386.145c-4.772 0-9.246 1.26-13.12 3.456v46.391c3.874 2.196 8.349 3.456 13.12 3.456 14.719 0 26.652-11.932 26.652-26.652s-11.933-26.651-26.652-26.651z" fill="#596c76"/></g><g><path d="m232.343 412.797c0-10.948 6.604-20.35 16.043-24.451-3.252-1.413-6.838-2.201-10.609-2.201-4.771 0-9.246 1.26-13.12 3.456v46.391c3.874 2.196 8.349 3.456 13.12 3.456 3.771 0 7.357-.788 10.609-2.201-9.44-4.1-16.043-13.502-16.043-24.45z" fill="#465a61"/></g><g><path d="m410.007 196.058h-185.351v170.621h188.833v-167.139c0-1.923-1.559-3.482-3.482-3.482z" fill="#80d261"/></g><g><path d="m368.215 257.499h-143.559v47.738h143.559c2.803 0 5.076-2.272 5.076-5.076v-37.587c0-2.803-2.273-5.075-5.076-5.075z" fill="#faea5e"/></g><g><path d="m248.584 300.162v-37.588c0-2.803 2.272-5.075 5.075-5.075h-29.003v47.738h29.003c-2.803.001-5.075-2.272-5.075-5.075z" fill="#ffd600"/></g></g><g><g><path d="m215.66 410.006h-205.39l-2.77 1.097v52.288c0 6.06 4.912 10.972 10.972 10.972h188.713c6.059 0 10.972-4.912 10.972-10.972v-52.288z" fill="#9facba"/></g><path d="m50.109 463.391v-52.288h-42.609v52.288c0 6.06 4.912 10.972 10.972 10.972h42.608c-6.059 0-10.971-4.913-10.971-10.972z" fill="#8d9ca8"/><g><path d="m82.108 410.006v2.194c0 16.967 13.754 30.721 30.721 30.721 16.967 0 30.721-13.754 30.721-30.721v-2.194z" fill="#596c76"/></g><path d="m207.185 115.243h-37.227c-1.102 2.743-2.402 5.438-3.917 8.061l-49.924 86.472c-.687 1.188-1.916 1.898-3.289 1.898s-2.603-.71-3.289-1.898l-49.924-86.472c-1.515-2.623-2.815-5.318-3.917-8.061h-37.226c-6.06 0-10.972 4.912-10.972 10.972v284.888h210.656v-284.888c0-6.06-4.912-10.972-10.971-10.972z" fill="#99e6fc"/><path d="m55.698 115.243h-37.226c-6.06 0-10.972 4.912-10.972 10.972v284.888h42.609v-284.888c0-4.296 2.474-8.004 6.07-9.806-.165-.387-.324-.776-.481-1.166z" fill="#62dbfb"/><path d="m207.185 107.743h-34.757c-1.335 5.151-3.36 10.188-6.074 15h40.831c1.914 0 3.472 1.558 3.472 3.472v337.175c0 1.915-1.558 3.473-3.472 3.473h-188.713c-1.914 0-3.472-1.558-3.472-3.473v-337.175c0-1.914 1.558-3.472 3.472-3.472h40.831c-2.714-4.812-4.739-9.849-6.074-15h-34.757c-10.186 0-18.472 8.286-18.472 18.472v337.175c0 10.186 8.286 18.473 18.472 18.473h188.713c10.186 0 18.472-8.287 18.472-18.473v-337.175c-.001-10.186-8.287-18.472-18.472-18.472z" fill="#596c76"/><g fill="#01c0fa"><path d="m156.211 189.935h-28.639l-8.66 15h37.299c4.143 0 7.5-3.357 7.5-7.5s-3.357-7.5-7.5-7.5z"/><path d="m98.084 189.935h-28.639c-4.143 0-7.5 3.357-7.5 7.5s3.357 7.5 7.5 7.5h37.299z"/></g><g><g><g><g><path d="m116.983 210.276 49.924-86.471c24.035-41.63-6.009-93.668-54.079-93.668-48.07 0-78.115 52.038-54.079 93.668l49.924 86.471c1.847 3.199 6.464 3.199 8.31 0z" fill="#fd4755"/></g><g><path d="m100.719 123.805c-20.297-35.155-2.028-77.731 33.094-90.125-6.469-2.283-13.509-3.543-20.985-3.543-48.07 0-78.115 52.038-54.079 93.668l49.924 86.471c1.847 3.199 6.464 3.199 8.31 0l16.83-29.151z" fill="#fb2b3a"/></g><g><circle cx="112.828" cy="95.068" fill="#fff" r="22.369"/></g><path d="m111.262 95.068c0-8.598 4.853-16.058 11.967-19.803-3.108-1.636-6.645-2.566-10.401-2.566-12.354 0-22.369 10.015-22.369 22.369s10.015 22.369 22.369 22.369c3.756 0 7.294-.93 10.401-2.566-7.113-3.745-11.967-11.205-11.967-19.803z" fill="#f2fbff"/></g></g></g></g><g><g><path d="m171.437 241.809h-41.803l-1 1.334v23.73c0 1.128-.917 2.045-2.045 2.045h-27.521c-1.128 0-2.046-.917-2.046-2.045v-23.758l-1-1.307h-41.803c-2.803 0-5.075 2.272-5.075 5.076v117.218c0 2.803 2.272 5.075 5.075 5.075h117.218c2.803 0 5.075-2.272 5.075-5.075v-117.218c.001-2.803-2.272-5.075-5.075-5.075z" fill="#ea9b58"/><path d="m74 364.102v-117.218c0-2.803 2.272-5.076 5.075-5.076h-24.856c-2.803 0-5.075 2.272-5.075 5.076v117.218c0 2.803 2.272 5.075 5.075 5.075h24.856c-2.803 0-5.075-2.272-5.075-5.075z" fill="#d88a55"/><g><path d="m96.023 241.809v25.064c0 1.682 1.363 3.045 3.045 3.045h27.521c1.682 0 3.045-1.363 3.045-3.045v-25.064z" fill="#fd4755"/></g><path d="m109 266.873v-25.064h-12.977v25.064c0 1.682 1.363 3.045 3.045 3.045h12.977c-1.682 0-3.045-1.363-3.045-3.045z" fill="#fb2b3a"/></g><path d="m132.705 300.313-14.198-16.457c-1.425-1.651-3.498-2.601-5.679-2.601-2.182 0-4.254.949-5.679 2.601l-14.197 16.457c-2.706 3.137-2.356 7.873.779 10.578 3.138 2.704 7.871 2.355 10.578-.779l1.019-1.181v15.903c0 4.143 3.357 7.5 7.5 7.5s7.5-3.357 7.5-7.5v-15.904l1.02 1.182c1.483 1.719 3.576 2.601 5.682 2.601 1.735 0 3.479-.599 4.896-1.821 3.136-2.707 3.485-7.442.779-10.579z" fill="#d88a55"/><g><path d="m128.225 353.25h-30.792c-4.143 0-7.5-3.357-7.5-7.5s3.357-7.5 7.5-7.5h30.792c4.143 0 7.5 3.357 7.5 7.5s-3.358 7.5-7.5 7.5z" fill="#d88a55"/></g></g><g><circle cx="189.201" cy="141.097" fill="#01c0fa" r="7.5"/></g></g></svg>