<svg height="512" viewBox="0 0 48 48" width="512" xmlns="http://www.w3.org/2000/svg"><g id="Transfer_money" data-name="Transfer money"><path d="m1 11h46v26h-46z" fill="#9dcc6b"/><path d="m47 11v24h-19a24 24 0 0 1 -24-24z" fill="#b5e08c"/><path d="m40 34h-32a1 1 0 0 1 -1-1 2 2 0 0 0 -2-2 1 1 0 0 1 -1-1v-12a1 1 0 0 1 1-1 2 2 0 0 0 2-2 1 1 0 0 1 1-1h32a1 1 0 0 1 1 1 2 2 0 0 0 2 2 1 1 0 0 1 1 1v12a1 1 0 0 1 -1 1 2 2 0 0 0 -2 2 1 1 0 0 1 -1 1zm-31.13-2h30.26a4 4 0 0 1 2.87-2.87v-10.26a4 4 0 0 1 -2.87-2.87h-30.26a4 4 0 0 1 -2.87 2.87v10.26a4 4 0 0 1 2.87 2.87z" fill="#84b749"/><path d="m9.29 23.29a1 1 0 0 1 1.42 1.42 1 1 0 0 1 -1.42-1.42z" fill="#84b749"/><path d="m38 25a1 1 0 1 1 .71-1.71 1 1 0 0 1 -.71 1.71z" fill="#84b749"/><path d="m30.29 44.29 2.3-2.29h-19.59a1 1 0 0 1 0-2c23.73 0 22.56-.26 22.92.62s0 .85-4.21 5.09a1 1 0 0 1 -1.42-1.42z" fill="#82bcf4"/><path d="m35 8c-23.73 0-22.56.26-22.92-.62s0-.85 4.21-5.09a1 1 0 0 1 1.42 1.42l-2.3 2.29h19.59a1 1 0 0 1 0 2z" fill="#82bcf4"/><path d="m33 24a9.09 9.09 0 0 1 -1.33 4.69c-4.67 7.73-16.67 4.37-16.67-4.69a9 9 0 0 1 18 0z" fill="#84b749"/><g fill="#b5e08c"><path d="m23 20v-2a1 1 0 0 1 2 0v2a1 1 0 0 1 -2 0z"/><path d="m23 30v-2a1 1 0 0 1 2 0v2a1 1 0 0 1 -2 0z"/><path d="m25 29h-4a1 1 0 0 1 0-2h4a1 1 0 0 0 0-2h-2a3 3 0 0 1 0-6h4a1 1 0 0 1 0 2h-4a1 1 0 0 0 0 2h2a3 3 0 0 1 0 6z"/></g></g></svg>