<svg id="Capa_1" enable-background="new 0 0 510 510" height="512" viewBox="0 0 510 510" width="512" xmlns="http://www.w3.org/2000/svg"><g><path d="m510 342.715v59.05h-135.18v-180.24h13.99c41.53 0 79.69 20.89 102.07 55.87 12.51 19.53 19.12 42.12 19.12 65.32z" fill="#002659"/><path d="m255.19 221.525h119.63v180.24h-119.63z" fill="#39326c"/><path d="m135.18 221.525h120.01v180.24h-120.01z" fill="#39326c"/><path d="m135.18 221.525v180.24h-135.18v-59.05c0-23.2 6.61-45.79 19.11-65.32 22.39-34.98 60.55-55.87 102.08-55.87z" fill="#5f55ae"/><path d="m222.62 164.325c0 48.21-39.22 87.44-87.43 87.44h-.01v-174.87h.01c48.21 0 87.43 39.22 87.43 87.43z" fill="#5f55ae"/><path d="m135.18 76.895v174.87c-48.22-.01-87.43-39.23-87.43-87.44s39.21-87.42 87.43-87.43z" fill="#918edd"/><path d="m462.25 164.325c0 48.21-39.22 87.44-87.43 87.44v-174.87c48.21 0 87.43 39.22 87.43 87.43z" fill="#39326c"/><path d="m374.82 76.895v174.87c-48.22 0-87.44-39.23-87.44-87.44s39.22-87.43 87.44-87.43z" fill="#5f55ae"/><path d="m374.21 379.985v53.12h-119.02v-160.03h12.11c36.64 0 70.3 18.42 90.05 49.28 11.03 17.24 16.86 37.17 16.86 57.63z" fill="#ff4a4a"/><path d="m255.19 273.075v160.03h-119.03v-53.12c0-20.47 5.83-40.39 16.86-57.63 19.75-30.86 53.41-49.28 90.05-49.28z" fill="#ff9e22"/><path d="m332.88 224.455c0 42.84-34.85 77.69-77.69 77.69v-155.38c42.84 0 77.69 34.85 77.69 77.69z" fill="#ff9e22"/><path d="m255.19 146.765v155.38c-42.85 0-77.7-34.85-77.7-77.69s34.85-77.69 77.7-77.69z" fill="#ffd322"/></g></svg>