<svg id="Capa_1" enable-background="new 0 0 512 512" height="512" viewBox="0 0 512 512" width="512" xmlns="http://www.w3.org/2000/svg"><g><g><g><g><g><path d="m245 11c-135.31 0-245 109.69-245 245 0 54.613 17.877 105.046 48.087 145.784l3.921 1h385.983l3.921-1c30.211-40.738 48.088-91.171 48.088-145.784 0-135.31-109.69-245-245-245z" fill="#d8ecfe"/></g></g><path d="m202 324h86v44h-86z" fill="#9182b0"/><path d="m202 324h30v44h-30z" fill="#7a6d98"/><g><path d="m372 402.784v-15.784c0-11.046-8.954-20-20-20h-214c-11.046 0-20 8.954-20 20v15.784z" fill="#a79bc6"/></g><path d="m188 367h-50c-11.046 0-20 8.954-20 20v15.784h50v-15.784c0-11.046 8.954-20 20-20z" fill="#9182b0"/><g><path d="m88.645 439-5.392 1c43.152 37.964 99.755 61 161.746 61s118.595-23.036 161.746-61l-5.392-1z" fill="#f6a96c"/></g><g><path d="m48.087 401.784c10.347 13.952 22.143 26.762 35.163 38.216h323.5c13.02-11.454 24.816-24.264 35.163-38.216z" fill="#d88a55"/></g><g><path d="m148.741 415.011c-4.585-4.24-9.005-8.655-13.259-13.227h-87.395c10.347 13.952 22.143 26.762 35.163 38.216h323.5c7.461-6.564 14.505-13.586 21.119-21h-268.929c-3.78 0-7.424-1.423-10.199-3.989z" fill="#c57a44"/></g></g><g><path d="m446.692 325h-405.789c-5.776 0-10.458-4.682-10.458-10.458v-281.333c0-2.888 2.341-5.229 5.229-5.229h416.247c2.888 0 5.229 2.341 5.229 5.229v281.333c.001 5.776-4.682 10.458-10.458 10.458z" fill="#a79bc6"/></g><path d="m72.294 314.542v-31.375h-15.703c-2.888 0-5.229-2.341-5.229-5.229v-223.812c0-2.888 2.341-5.229 5.229-5.229h15.703v-15.688c0-2.888 2.341-5.229 5.229-5.229h-41.849c-2.888 0-5.229 2.341-5.229 5.229v281.333c0 5.776 4.682 10.458 10.458 10.458h41.849c-5.775 0-10.458-4.682-10.458-10.458z" fill="#9182b0"/><g><path d="m51.362 277.937v-223.811c0-2.888 2.341-5.229 5.229-5.229h374.413c2.888 0 5.229 2.341 5.229 5.229v223.811c0 2.888-2.341 5.229-5.229 5.229h-374.413c-2.888 0-5.229-2.341-5.229-5.229z" fill="#fff"/></g><path d="m93.128 277.937v-223.811c0-2.888 2.341-5.229 5.229-5.229h-41.766c-2.888 0-5.229 2.341-5.229 5.229v223.811c0 2.888 2.341 5.229 5.229 5.229h41.766c-2.887 0-5.229-2.341-5.229-5.229z" fill="#f3f0ff"/><g><g><path d="m122.48 131.518h-27.193c-5.776 0-10.458-4.682-10.458-10.458v-27.192c0-5.776 4.682-10.458 10.458-10.458h27.192c5.776 0 10.458 4.682 10.458 10.458v27.192c.001 5.776-4.681 10.458-10.457 10.458z" fill="#26a6fe"/></g></g><g><g><path d="m124.048 159.935h-30.33c-4.142 0-7.5-3.358-7.5-7.5s3.358-7.5 7.5-7.5h30.33c4.142 0 7.5 3.358 7.5 7.5s-3.358 7.5-7.5 7.5z" fill="#a79bc6"/></g></g><g><g><g><path d="m191.505 131.518h-27.192c-5.776 0-10.458-4.682-10.458-10.458v-27.192c0-5.776 4.682-10.458 10.458-10.458h27.192c5.776 0 10.458 4.682 10.458 10.458v27.192c.001 5.776-4.682 10.458-10.458 10.458z" fill="#fe646f"/></g></g><g><path d="m193.074 159.935h-30.33c-4.142 0-7.5-3.358-7.5-7.5s3.358-7.5 7.5-7.5h30.33c4.142 0 7.5 3.358 7.5 7.5s-3.358 7.5-7.5 7.5z" fill="#a79bc6"/></g></g><g><g><g><path d="m260.531 131.518h-27.192c-5.776 0-10.458-4.682-10.458-10.458v-27.192c0-5.776 4.682-10.458 10.458-10.458h27.192c5.776 0 10.458 4.682 10.458 10.458v27.192c.001 5.776-4.682 10.458-10.458 10.458z" fill="#4fc123"/></g></g><g><path d="m262.1 159.935h-30.33c-4.142 0-7.5-3.358-7.5-7.5s3.358-7.5 7.5-7.5h30.33c4.142 0 7.5 3.358 7.5 7.5s-3.358 7.5-7.5 7.5z" fill="#a79bc6"/></g></g><g><g><g><path d="m122.48 231.92h-27.193c-5.776 0-10.458-4.682-10.458-10.458v-27.192c0-5.776 4.682-10.458 10.458-10.458h27.192c5.776 0 10.458 4.682 10.458 10.458v27.192c.001 5.775-4.681 10.458-10.457 10.458z" fill="#ffbd86"/></g></g><g><path d="m124.048 260.336h-30.33c-4.142 0-7.5-3.358-7.5-7.5s3.358-7.5 7.5-7.5h30.33c4.142 0 7.5 3.358 7.5 7.5s-3.358 7.5-7.5 7.5z" fill="#a79bc6"/></g></g><g><g><g><path d="m191.505 231.92h-27.192c-5.776 0-10.458-4.682-10.458-10.458v-27.192c0-5.776 4.682-10.458 10.458-10.458h27.192c5.776 0 10.458 4.682 10.458 10.458v27.192c.001 5.775-4.682 10.458-10.458 10.458z" fill="#26a6fe"/></g></g><g><path d="m193.074 260.336h-30.33c-4.142 0-7.5-3.358-7.5-7.5s3.358-7.5 7.5-7.5h30.33c4.142 0 7.5 3.358 7.5 7.5s-3.358 7.5-7.5 7.5z" fill="#a79bc6"/></g></g><g><g><g><path d="m260.531 231.92h-27.192c-5.776 0-10.458-4.682-10.458-10.458v-27.192c0-5.776 4.682-10.458 10.458-10.458h27.192c5.776 0 10.458 4.682 10.458 10.458v27.192c.001 5.775-4.682 10.458-10.458 10.458z" fill="#fac600"/></g></g><path d="m105 121.06v-27.192c0-5.776 4.682-10.458 10.458-10.458h-20.17c-5.776 0-10.458 4.682-10.458 10.458v27.192c0 5.776 4.682 10.458 10.458 10.458h20.171c-5.777 0-10.459-4.682-10.459-10.458z" fill="#0593fc"/><path d="m105 221.461v-27.192c0-5.776 4.682-10.458 10.458-10.458h-20.17c-5.776 0-10.458 4.682-10.458 10.458v27.192c0 5.776 4.682 10.458 10.458 10.458h20.171c-5.777.001-10.459-4.682-10.459-10.458z" fill="#f6a96c"/><g><path d="m262.1 260.336h-30.33c-4.142 0-7.5-3.358-7.5-7.5s3.358-7.5 7.5-7.5h30.33c4.142 0 7.5 3.358 7.5 7.5s-3.358 7.5-7.5 7.5z" fill="#a79bc6"/></g></g><g><g><path d="m435.488 229.899c0-20.786 16.911-37.696 37.696-37.696 5.674 0 11.056 1.268 15.888 3.523l5.911-28.932h-193.38l17.915 87.684c.995 4.869 5.278 8.365 10.247 8.365h125.126c-11.562-6.445-19.403-18.793-19.403-32.944z" fill="#fd4755"/><path d="m357.535 254.479-17.915-87.684h-38.017l17.915 87.684c.995 4.869 5.278 8.365 10.247 8.365h38.017c-4.969 0-9.252-3.497-10.247-8.365z" fill="#fb2b3a"/><g><path d="m464.704 193.177v-4.588c0-2.888-2.341-5.229-5.229-5.229h-5.229c-2.888 0-5.229 2.341-5.229 5.229v12.409c4.47-3.744 9.819-6.466 15.687-7.821z" fill="#fe646f"/><path d="m430.191 183.359h-5.229c-2.888 0-5.229 2.341-5.229 5.229v37.65c0 2.888 2.341 5.229 5.229 5.229h5.229c2.888 0 5.229-2.341 5.229-5.229v-37.65c0-2.888-2.341-5.229-5.229-5.229z" fill="#fe646f"/><g><path d="m395.678 231.468h5.229c2.888 0 5.229-2.341 5.229-5.229v-37.65c0-2.888-2.341-5.229-5.229-5.229h-5.229c-2.888 0-5.229 2.341-5.229 5.229v37.65c0 2.888 2.341 5.229 5.229 5.229z" fill="#fe646f"/></g><g><path d="m366.395 231.468h5.229c2.888 0 5.229-2.341 5.229-5.229v-37.65c0-2.888-2.341-5.229-5.229-5.229h-5.229c-2.888 0-5.229 2.341-5.229 5.229v37.65c-.001 2.888 2.341 5.229 5.229 5.229z" fill="#fe646f"/></g><g><path d="m337.111 231.468h5.229c2.888 0 5.229-2.341 5.229-5.229v-37.65c0-2.888-2.341-5.229-5.229-5.229h-5.229c-2.888 0-5.229 2.341-5.229 5.229v37.65c0 2.888 2.341 5.229 5.229 5.229z" fill="#fe646f"/></g></g><g><path d="m357.836 140.537 33.809-58.558c1.444-2.501.587-5.699-1.914-7.143l-15.82-9.133c-2.501-1.444-5.699-.587-7.143 1.914l-42.101 72.921h33.169z" fill="#fd4755"/><path d="m373.911 65.701c-2.501-1.444-5.699-.587-7.143 1.914l-42.101 72.921h15.333l40.882-70.81z" fill="#fb2b3a"/><path d="m438.75 140.537h33.169l-42.101-72.921c-1.444-2.501-4.642-3.358-7.143-1.914l-15.82 9.133c-2.501 1.444-3.358 4.642-1.914 7.143z" fill="#fd4755"/><path d="m419.936 74.835 10.538-6.084-.656-1.136c-1.444-2.501-4.642-3.358-7.143-1.914l-15.82 9.133c-2.501 1.444-3.358 4.642-1.914 7.143l33.809 58.558h13.081l-33.809-58.558c-1.444-2.5-.587-5.698 1.914-7.142z" fill="#fb2b3a"/></g><g><path d="m289.815 167.794h216.956c2.888 0 5.229-2.341 5.229-5.229v-17.799c0-2.888-2.341-5.229-5.229-5.229h-216.956c-2.888 0-5.229 2.341-5.229 5.229v17.799c0 2.888 2.341 5.229 5.229 5.229z" fill="#fe646f"/></g><path d="m326.586 162.565v-17.799c0-2.888 2.341-5.229 5.229-5.229h-42c-2.888 0-5.229 2.341-5.229 5.229v17.799c0 2.888 2.341 5.229 5.229 5.229h42c-2.888 0-5.229-2.341-5.229-5.229z" fill="#fd4755"/></g><g><g><circle cx="473.184" cy="229.899" fill="#4fc123" r="38.696"/></g><path d="m465.607 229.899c0-15.835 9.516-29.44 23.137-35.43-4.763-2.095-10.023-3.266-15.56-3.266-21.371 0-38.696 17.325-38.696 38.696s17.325 38.696 38.696 38.696c5.537 0 10.797-1.171 15.56-3.266-13.621-5.99-23.137-19.595-23.137-35.43z" fill="#47a920"/><path d="m492.296 222.399h-11.612v-11.612c0-4.142-3.358-7.5-7.5-7.5s-7.5 3.358-7.5 7.5v11.612h-11.612c-4.142 0-7.5 3.358-7.5 7.5s3.358 7.5 7.5 7.5h11.612v11.612c0 4.142 3.358 7.5 7.5 7.5s7.5-3.358 7.5-7.5v-11.612h11.612c4.142 0 7.5-3.358 7.5-7.5s-3.358-7.5-7.5-7.5z" fill="#fff"/></g></g><g><circle cx="425.5" cy="304.5" fill="#fff" r="7.5"/></g><g><circle cx="398.5" cy="304.5" fill="#fff" r="7.5"/></g><path d="m174.026 121.06v-27.192c0-5.776 4.682-10.458 10.458-10.458h-20.171c-5.776 0-10.458 4.682-10.458 10.458v27.192c0 5.776 4.682 10.458 10.458 10.458h20.171c-5.776 0-10.458-4.682-10.458-10.458z" fill="#fd4755"/><path d="m174.026 221.461v-27.192c0-5.776 4.682-10.458 10.458-10.458h-20.171c-5.776 0-10.458 4.682-10.458 10.458v27.192c0 5.776 4.682 10.458 10.458 10.458h20.171c-5.776.001-10.458-4.682-10.458-10.458z" fill="#0593fc"/><path d="m243.052 121.06v-27.192c0-5.776 4.682-10.458 10.458-10.458h-20.171c-5.776 0-10.458 4.682-10.458 10.458v27.192c0 5.776 4.682 10.458 10.458 10.458h20.171c-5.776 0-10.458-4.682-10.458-10.458z" fill="#47a920"/><path d="m243.052 221.461v-27.192c0-5.776 4.682-10.458 10.458-10.458h-20.171c-5.776 0-10.458 4.682-10.458 10.458v27.192c0 5.776 4.682 10.458 10.458 10.458h20.171c-5.776.001-10.458-4.682-10.458-10.458z" fill="#e8b800"/></g></g></svg>