<svg id="Capa_1" enable-background="new 0 0 512 512" height="512" viewBox="0 0 512 512" width="512" xmlns="http://www.w3.org/2000/svg"><g><path d="m363.355 0h-214.71c-6.014 0-11.659 1.598-16.516 4.406l-7.828 28.626v441.436c0 18.243 14.789 33.032 33.032 33.032h206.021l28.622-12.016c2.809-4.858 4.411-10.501 4.411-16.516v-445.936c0-18.243-14.789-33.032-33.032-33.032z" fill="#5d5360"/><path d="m363.355 495.484-231.226-462.452v-28.626c-9.832 5.722-16.516 16.43-16.516 28.626v445.936c0 18.243 14.789 33.032 33.032 33.032h214.71c12.196 0 22.9-6.685 28.622-16.516z" fill="#4b3f4e"/><path d="m363.355 16.516h-37.493c-5.713 0-11.311 2.786-14.018 7.816-2.788 5.179-8.259 8.7-14.553 8.7h-82.581c-6.294 0-11.766-3.521-14.553-8.7-2.708-5.031-8.305-7.816-14.018-7.816h-37.493c-9.122 0-16.516 7.395-16.516 16.516v445.935c0 9.122 7.395 16.516 16.516 16.516h214.71c9.122 0 16.516-7.395 16.516-16.516v-445.935c-.001-9.121-7.396-16.516-16.517-16.516z" fill="#eceaec"/><path d="m330.323 478.968h-33.033l-41.29-8.468-41.29 8.468h-33.032c-18.243 0-33.032-14.789-33.032-33.032v-363.355c0-18.243 14.789-33.032 33.032-33.032h148.645c18.243 0 33.032 14.789 33.032 33.032v363.355c0 18.243-14.789 33.032-33.032 33.032z" fill="#fff"/><path d="m231.226 429.524h-40.976c-9.122 0-16.516-7.395-16.516-16.516v-57.911l7.944-16.516h49.548c9.122 0 16.516 7.395 16.516 16.516v66.065z" fill="#ff9a9f"/><path d="m181.677 404.645v-66.065c-9.121 0-16.516 7.394-16.516 16.516v66.065c0 9.121 7.395 16.516 16.516 16.516h49.548c9.121 0 16.516-7.395 16.516-16.516h-49.548c-9.121 0-16.516-7.394-16.516-16.516z" fill="#ff8086"/><path d="m330.323 297.395h-40.976c-9.122 0-16.516-7.395-16.516-16.516v-57.911l7.944-16.516h49.548c9.122 0 16.516 7.395 16.516 16.516v66.065z" fill="#c3ddff"/><path d="m280.774 272.516v-66.065c-9.121 0-16.516 7.394-16.516 16.516v66.065c0 9.121 7.395 16.516 16.516 16.516h49.548c9.121 0 16.516-7.395 16.516-16.516h-49.548c-9.121 0-16.516-7.394-16.516-16.516z" fill="#a4ccff"/><path d="m214.71 400.516h-16.516c-4.561 0-8.258-3.697-8.258-8.258v-8.258c0-4.561 3.697-8.258 8.258-8.258h16.516c4.561 0 8.258 3.697 8.258 8.258v8.258c0 4.561-3.698 8.258-8.258 8.258z" fill="#fff"/><path d="m297.29 478.968h-82.58c-4.565 0-8.258-3.698-8.258-8.258s3.694-8.258 8.258-8.258h82.581c4.565 0 8.258 3.698 8.258 8.258s-3.694 8.258-8.259 8.258z" fill="#c8c5c9"/><path d="m231.226 165.266h-40.976c-9.122 0-16.516-7.395-16.516-16.516v-57.911l7.944-16.516h49.548c9.122 0 16.516 7.395 16.516 16.516v66.065z" fill="#b3e59f"/><path d="m313.806 247.742h-12.387c-4.565 0-8.258-3.698-8.258-8.258s3.694-8.258 8.258-8.258h12.387c4.565 0 8.258 3.698 8.258 8.258s-3.693 8.258-8.258 8.258z" fill="#fff"/><path d="m313.806 280.774h-12.387c-4.565 0-8.258-3.698-8.258-8.258s3.694-8.258 8.258-8.258h12.387c4.565 0 8.258 3.698 8.258 8.258.001 4.561-3.693 8.258-8.258 8.258z" fill="#fff"/><path d="m181.677 140.387v-66.064c-9.121 0-16.516 7.394-16.516 16.516v66.065c0 9.121 7.395 16.516 16.516 16.516h49.548c9.121 0 16.516-7.395 16.516-16.516h-49.548c-9.121-.001-16.516-7.395-16.516-16.517z" fill="#95d6a4"/><path d="m214.71 136.258h-16.516c-4.561 0-8.258-3.697-8.258-8.258v-8.258c0-4.561 3.697-8.258 8.258-8.258h16.516c4.561 0 8.258 3.697 8.258 8.258v8.258c0 4.561-3.698 8.258-8.258 8.258z" fill="#fff"/><path d="m330.323 165.266h-40.976c-9.122 0-16.516-7.395-16.516-16.516v-57.911l7.944-16.516h49.548c9.122 0 16.516 7.395 16.516 16.516v66.065z" fill="#ffe07d"/><path d="m280.774 140.387v-66.064c-9.121 0-16.516 7.394-16.516 16.516v66.065c0 9.121 7.395 16.516 16.516 16.516h49.548c9.121 0 16.516-7.395 16.516-16.516h-49.548c-9.121-.001-16.516-7.395-16.516-16.517z" fill="#ffd064"/><path d="m231.226 297.395h-40.976c-9.122 0-16.516-7.395-16.516-16.516v-57.911l7.944-16.516h49.548c9.122 0 16.516 7.395 16.516 16.516v66.065z" fill="#ead1ff"/><path d="m181.677 272.516v-66.065c-9.121 0-16.516 7.394-16.516 16.516v66.065c0 9.121 7.395 16.516 16.516 16.516h49.548c9.121 0 16.516-7.395 16.516-16.516h-49.548c-9.121 0-16.516-7.394-16.516-16.516z" fill="#d6bdef"/><path d="m330.323 429.524h-40.976c-9.122 0-16.516-7.395-16.516-16.516v-57.911l7.944-16.516h49.548c9.122 0 16.516 7.395 16.516 16.516v66.065z" fill="#e2a975"/><path d="m280.774 404.645v-66.065c-9.121 0-16.516 7.394-16.516 16.516v66.065c0 9.121 7.395 16.516 16.516 16.516h49.548c9.121 0 16.516-7.395 16.516-16.516h-49.548c-9.121 0-16.516-7.394-16.516-16.516z" fill="#d19a6e"/></g></svg>