<svg height="512" viewBox="0 0 52 58" width="512" xmlns="http://www.w3.org/2000/svg"><g id="Page-1" fill="none" fill-rule="evenodd"><g id="032---alarm-settings" fill-rule="nonzero"><path id="Shape" d="m31 50c0 4.418278-3.581722 8-8 8s-8-3.581722-8-8l8-1z" fill="#f29c1f"/><path id="Shape" d="m16.15 8.44c-.1013897-.47324871-.1516778-.95601509-.15-1.44 0-3.86599325 3.1340068-7 7-7 3.6901936-.01236115 6.7400675 2.87467677 6.93 6.56z" fill="#f3d55b"/><path id="Shape" d="m43.59 50h-41.18c-.79843686-.0036742-1.51859231-.480738-1.83337732-1.2145127-.314785-.7337747-.16419338-1.5843838.38337732-2.1654873 2.97389752-3.1734997 4.75510988-7.2801838 5.04-11.62v-11c-.00278974-6.7408789 3.97963426-12.8459545 10.15-15.56 2.1569848-.95537009 4.4909155-1.44600661 6.85-1.44.43 0 .85.02 1.27.05l-1.34 2.31c-.2392968.42676856-.1429003.9632356.23 1.28l3.91 3.2c-.0933375.770517-.0933375 1.549483 0 2.32l-3.91 3.2c-.3729003.3167644-.4692968.8532314-.23 1.28l2.16 3.72c.23928.4254127.7533524.6123481 1.21.44l4.74-1.78c.6136442.4635191 1.2820011.8497555 1.99 1.15l.83 4.99c.0786569.4852851.4983838.841417.99.84h4.3c.3455015.0006914.6668845-.1770145.85-.47v5.47c.2848901 4.3398162 2.0661025 8.4465003 5.04 11.62.5475707.5811035.6981623 1.4317126.3833773 2.1654873s-1.0349404 1.2108385-1.8333773 1.2145127z" fill="#f0c419"/><path id="Shape" d="m10 47h-4c-.55228475 0-1-.4477153-1-1s.44771525-1 1-1h4c.5522847 0 1 .4477153 1 1s-.4477153 1-1 1z" fill="#f9eab0"/><path id="Shape" d="m40 47h-26c-.5522847 0-1-.4477153-1-1s.4477153-1 1-1h26c.5522847 0 1 .4477153 1 1s-.4477153 1-1 1z" fill="#f9eab0"/><path id="Shape" d="m10 25c-.55228475 0-1-.4477153-1-1-.0065679-4.253626 1.9293192-8.2774872 5.257-10.927.2779125-.2315358.6591983-.2949398.9970866-.1658055s.5796999.4306739.6323526.7885451c.0526527.3578713-.0920624.7162796-.3784392.9372604-2.852681 2.2713418-4.51265 5.7205276-4.508 9.367 0 .2652165-.1053568.5195704-.2928932.7071068s-.4418903.2928932-.7071068.2928932z" fill="#f9eab0"/><path id="Shape" d="m31.04 23.02-4.74 1.78c-.4566476.1723481-.97072-.0145873-1.21-.44l-2.16-3.72c-.2392968-.4267686-.1429003-.9632356.23-1.28l3.91-3.2c.3144159 2.7383791 1.752343 5.2230593 3.97 6.86z" fill="#2fa8cc"/><path id="Shape" d="m46.93 13.84c-.3144159-2.7383791-1.752343-5.22305927-3.97-6.86-.6136442-.46351906-1.2820011-.84975548-1.99-1.15-2.5309946-1.10660793-5.4090054-1.10660793-7.94 0-.7079989.30024452-1.3763558.68648094-1.99 1.15-2.217657 1.63694073-3.6555841 4.1216209-3.97 6.86-.0933375.770517-.0933375 1.549483 0 2.32.3144159 2.7383791 1.752343 5.2230593 3.97 6.86.6136442.4635191 1.2820011.8497555 1.99 1.15 2.5309946 1.1066079 5.4090054 1.1066079 7.94 0 .7079989-.3002445 1.3763558-.6864809 1.99-1.15 2.217657-1.6369407 3.6555841-4.1216209 3.97-6.86.0933375-.770517.0933375-1.549483 0-2.32zm-9.93 5.16c-2.209139 0-4-1.790861-4-4s1.790861-4 4-4 4 1.790861 4 4c0 1.060866-.4214274 2.0782816-1.1715729 2.8284271s-1.7675611 1.1715729-2.8284271 1.1715729z" fill="#67b9cc"/><circle id="Oval" cx="37" cy="15" fill="#285680" r="4"/><g fill="#2fa8cc"><path id="Shape" d="m40.97 5.83c-2.5309946-1.10660793-5.4090054-1.10660793-7.94 0l.83-4.99c.0786569-.48528511.4983838-.841417.99-.84h4.3c.4916162-.001417.9113431.35471489.99.84z"/><path id="Shape" d="m40.97 24.17-.83 4.99c-.0192841.1320262-.067055.2582779-.14.37-.1831155.2929855-.5044985.4706914-.85.47h-4.3c-.4916162.001417-.9113431-.3547149-.99-.84l-.83-4.99c2.5309946 1.1066079 5.4090054 1.1066079 7.94 0z"/><path id="Shape" d="m31.04 6.98c-2.217657 1.63694073-3.6555841 4.1216209-3.97 6.86l-3.91-3.2c-.3729003-.3167644-.4692968-.85323144-.23-1.28l1.34-2.31.82-1.41c.23928-.42541272.7533524-.61234814 1.21-.44l3.63 1.36z"/><path id="Shape" d="m51.07 20.64-2.16 3.72c-.23928.4254127-.7533524.6123481-1.21.44l-4.74-1.78c2.217657-1.6369407 3.6555841-4.1216209 3.97-6.86l3.91 3.2c.3729003.3167644.4692968.8532314.23 1.28z"/><path id="Shape" d="m50.84 10.64-3.91 3.2c-.3144159-2.7383791-1.752343-5.22305927-3.97-6.86l4.74-1.78c.4566476-.17234814.97072.01458728 1.21.44l2.16 3.72c.2392968.42676856.1429003.9632356-.23 1.28z"/></g><path id="Shape" d="m37 20c-2.7614237 0-5-2.2385763-5-5s2.2385763-5 5-5 5 2.2385763 5 5c-.0033061 2.7600532-2.2399468 4.9966939-5 5zm0-8c-1.6568542 0-3 1.3431458-3 3s1.3431458 3 3 3 3-1.3431458 3-3-1.3431458-3-3-3z" fill="#2980ba"/></g></g></svg>