<svg height="512" viewBox="0 0 64 64" width="512" xmlns="http://www.w3.org/2000/svg"><g id="Layer_15" data-name="Layer 15"><path d="m47 21h12a3 3 0 0 1 3 3v32a3 3 0 0 1 -3 3h-54a3 3 0 0 1 -3-3v-32a3 3 0 0 1 3-3h12" fill="#f33"/><path d="m2 29h60v8h-60z" fill="#333"/><path d="m59 51v-30h-54a3 3 0 0 0 -3 3v32h52a5 5 0 0 0 5-5z" fill="#f66"/><path d="m2 29h57v8h-57z" fill="#666"/><g fill="#fff"><path d="m53 54h2v2h-2z"/><path d="m57 54h2v2h-2z"/><path d="m49 54h2v2h-2z"/><path d="m45 54h2v2h-2z"/></g><path d="m6 49h10v6h-10z" fill="#f3a744"/><path d="m6 49v4h7a1 1 0 0 0 1-1v-3z" fill="#edcb61"/><circle cx="32" cy="19" fill="#bce4f8" r="15"/><path d="m43 21v-4h-3.262a7.968 7.968 0 0 0 -.852-2.058l2.306-2.306-2.828-2.828-2.306 2.306a7.968 7.968 0 0 0 -2.058-.852v-3.262h-4v3.262a7.968 7.968 0 0 0 -2.058.852l-2.306-2.306-2.828 2.828 2.306 2.306a7.968 7.968 0 0 0 -.852 2.058h-3.262v4h3.262a7.968 7.968 0 0 0 .852 2.058l-2.306 2.306 2.828 2.828 2.306-2.306a7.968 7.968 0 0 0 2.058.852v3.262h4v-3.262a7.968 7.968 0 0 0 2.058-.852l2.306 2.306 2.828-2.828-2.306-2.306a7.968 7.968 0 0 0 .852-2.058zm-11 2a4 4 0 1 1 4-4 4 4 0 0 1 -4 4z" fill="#a3a3a3"/></g></svg>