<svg height="512" viewBox="0 0 58 58" width="512" xmlns="http://www.w3.org/2000/svg"><g id="Page-1" fill="none" fill-rule="evenodd"><g id="139---Printer-Settings" fill-rule="nonzero"><path id="Rectangle-path" d="m4 36h50v12h-50z" fill="#2c3e50"/><path id="Shape" d="m58 20v24c0 2.209139-1.790861 4-4 4v-9c0-1.6568542-1.3431458-3-3-3h-47v12c-2.209139 0-4-1.790861-4-4v-24c0-2.209139 1.790861-4 4-4h50c2.209139 0 4 1.790861 4 4z" fill="#547580"/><path id="Shape" d="m16 0h26c3.3137085 0 6 2.6862915 6 6v10h-38v-10c0-3.3137085 2.6862915-6 6-6z" fill="#f9eab0"/><path id="Shape" d="m50 36v16c.0737654 3.2376936-2.4893812 5.9230227-5.727 6h-30.546c-3.2376188-.0769773-5.80076543-2.7623064-5.727-6v-16z" fill="#f9eab0"/><path id="Shape" d="m6 22h-1c-.55228475 0-1-.4477153-1-1s.44771525-1 1-1h1c.55228475 0 1 .4477153 1 1s-.44771525 1-1 1z" fill="#f0c419"/><path id="Shape" d="m11 22h-1c-.55228475 0-1-.4477153-1-1s.44771525-1 1-1h1c.5522847 0 1 .4477153 1 1s-.4477153 1-1 1z" fill="#ff5364"/><g fill="#2c3e50"><path id="Shape" d="m4 32c-.55228475 0-1-.4477153-1-1v-1c0-.5522847.44771525-1 1-1s1 .4477153 1 1v1c0 .5522847-.44771525 1-1 1z"/><path id="Shape" d="m10 32h-2c-.55228475 0-1-.4477153-1-1s.44771525-1 1-1h2c.5522847 0 1 .4477153 1 1s-.4477153 1-1 1z"/><path id="Shape" d="m44 32h-30c-.5522847 0-1-.4477153-1-1s.4477153-1 1-1h30c.5522847 0 1 .4477153 1 1s-.4477153 1-1 1z"/></g><path id="Shape" d="m17 5h-2c-.5522847 0-1-.44771525-1-1s.4477153-1 1-1h2c.5522847 0 1 .44771525 1 1s-.4477153 1-1 1z" fill="#fff"/><path id="Shape" d="m40 5h-19c-.5522847 0-1-.44771525-1-1s.4477153-1 1-1h19c.5522847 0 1 .44771525 1 1s-.4477153 1-1 1z" fill="#fff"/><path id="Shape" d="m19 44h-2c-.5522847 0-1-.4477153-1-1s.4477153-1 1-1h2c.5522847 0 1 .4477153 1 1s-.4477153 1-1 1z" fill="#2c3e50"/><path id="Shape" d="m23 48h-6c-.5522847 0-1-.4477153-1-1s.4477153-1 1-1h6c.5522847 0 1 .4477153 1 1s-.4477153 1-1 1z" fill="#2c3e50"/><path id="Shape" d="m22 52h-5c-.5522847 0-1-.4477153-1-1s.4477153-1 1-1h5c.5522847 0 1 .4477153 1 1s-.4477153 1-1 1z" fill="#2c3e50"/><path id="Shape" d="m57.316 37.772-3.773-1.258c-.326506-1.2724071-.8315176-2.4921785-1.5-3.623l1.78-3.56c.1924198-.3848395.1171045-.8496198-.187-1.154l-1.81-1.81c-.3043802-.3041045-.7691605-.3794198-1.154-.187l-3.56 1.78c-1.1306164-.6688929-2.3504478-1.1739294-3.623-1.5l-1.258-3.773c-.1353747-.4107787-.5194904-.6879714-.952-.687h-2.558c-.4306074-.0001037-.8129281.2754572-.949.684l-1.258 3.773c-1.2725522.3260706-2.4923836.8311071-3.623 1.5l-3.56-1.78c-.3848395-.1924198-.8496198-.1171045-1.154.187l-1.81 1.81c-.3041045.3043802-.3794198.7691605-.187 1.154l1.78 3.56c-.6684824 1.1308215-1.173494 2.3505929-1.5 3.623l-3.773 1.258c-.4085428.1360719-.6841037.5183926-.684.949v2.558c-.0001037.4306074.2754572.8129281.684.949l3.773 1.258c.3260706 1.2725522.8311071 2.4923836 1.5 3.623l-1.78 3.56c-.1924198.3848395-.1171045.8496198.187 1.154l1.81 1.809c.3041447.3044429.7689521.3801654 1.154.188l3.56-1.78c1.1308215.6684824 2.3505929 1.173494 3.623 1.5l1.258 3.773c.1360719.4085428.5183926.6841037.949.684h2.558c.4306074.0001037.8129281-.2754572.949-.684l1.258-3.773c1.2724071-.326506 2.4921785-.8315176 3.623-1.5l3.56 1.78c.3850479.1921654.8498553.1164429 1.154-.188l1.81-1.809c.3041045-.3043802.3794198-.7691605.187-1.154l-1.78-3.56c.6688929-1.1306164 1.1739294-2.3504478 1.5-3.623l3.773-1.258c.4086821-.1346816.685384-.5157006.687-.946v-2.558c.0001037-.4306074-.2754572-.8129281-.684-.949z" fill="#65ddb9"/><circle id="Oval" cx="40" cy="40" fill="#24ae5f" r="10"/><circle id="Oval" cx="40" cy="40" fill="#2c3e50" r="3"/></g></g></svg>