<svg height="511pt" viewBox="-7 1 511 511.99988" width="511pt" xmlns="http://www.w3.org/2000/svg"><path d="m1.339844 304.941406 11.929687 32.339844 31.90625 49.105469c10.355469 12.183593 23.207031 22.015625 37.722657 28.71875 16.328124 7.535156 33.425781 16.992187 45.433593 29.972656 7.835938 8.46875 12.269531 19.230469 13.011719 59.699219h83.777344v-48.226563c-2.855469-28.589843-13.582032-60.765625-46.949219-72.230469l-29.765625-10.332031-52.148438-44.269531c-4.773437-4.050781-11.855468-3.769531-16.292968.648438-4.558594 4.535156-4.746094 11.855468-.425782 16.621093l22.71875 24.589844-39.800781-18.324219-25.015625-30.152344-10.914062-27.757812c-2.441406-6.210938-9.0625-9.699219-15.570313-8.203125-7.914062 1.824219-12.429687 10.179687-9.617187 17.800781zm0 0" fill="#ffceb6"/><path d="m178.171875 384.320312-29.765625-10.332031-52.148438-44.269531c-4.773437-4.050781-11.855468-3.769531-16.292968.648438-4.558594 4.535156-4.746094 11.855468-.425782 16.621093l22.71875 24.589844 23.261719 12.742187c33.367188 11.464844 44.089844 43.640626 46.949219 72.230469v48.226563h52.652344v-48.226563c-2.855469-28.589843-13.582032-60.765625-46.949219-72.230469zm0 0" fill="#edbda6"/><path d="m138.570312 474.019531h89.160157c4.222656 0 7.644531 3.421875 7.644531 7.640625v22.699219c0 4.21875-3.421875 7.640625-7.644531 7.640625h-89.160157c-4.222656 0-7.640624-3.421875-7.640624-7.640625v-22.699219c0-4.21875 3.417968-7.640625 7.640624-7.640625zm0 0" fill="#7fd19b"/><path d="m227.730469 474.019531h-44.578125v37.980469h44.578125c4.222656 0 7.644531-3.421875 7.644531-7.640625v-22.699219c0-4.21875-3.421875-7.640625-7.644531-7.640625zm0 0" fill="#3cab8b"/><path d="m123.542969 403.511719c-2.144531 0-4.277344-.886719-5.804688-2.625 0 0-18.683593-26.492188-15.480469-29.308594 3.207032-2.816406 27.085938 19.105469 27.085938 19.105469 2.816406 3.207031 2.503906 8.089844-.699219 10.90625-1.46875 1.289062-3.289062 1.921875-5.101562 1.921875zm0 0" fill="#edbda6"/><path d="m496.242188 304.941406-11.929688 32.339844-31.910156 49.105469c-10.355469 12.183593-23.203125 22.015625-37.722656 28.71875-16.328126 7.535156-33.425782 16.992187-45.433594 29.972656-7.835938 8.46875-12.265625 19.230469-13.011719 59.699219h-83.777344v-48.226563c2.859375-28.589843 13.582031-60.765625 46.949219-72.230469l29.765625-10.332031 52.152344-44.269531c4.773437-4.050781 11.851562-3.769531 16.289062.648438 4.558594 4.535156 4.746094 11.855468.425781 16.621093l-22.71875 24.589844 39.804688-18.324219 25.011719-30.152344 10.914062-27.757812c2.441407-6.210938 9.0625-9.699219 15.570313-8.203125 7.914062 1.824219 12.429687 10.179687 9.621094 17.800781zm0 0" fill="#ffceb6"/><path d="m489.804688 288.324219-18.203126 41.761719-32.972656 41.492187c-10.355468 12.183594-61.386718 36.824219-75.902344 43.527344-16.328124 7.535156-33.429687 16.992187-45.433593 29.972656-7.839844 8.46875-12.269531 19.230469-13.011719 59.699219h51.957031c.742188-40.46875 5.171875-51.226563 13.007813-59.699219 12.007812-12.980469 29.105468-22.4375 45.433594-29.972656 14.519531-6.703125 27.371093-16.535157 37.726562-28.71875l31.90625-49.105469 11.929688-32.339844c2.40625-6.523437-.570313-13.574218-6.4375-16.617187zm0 0" fill="#edbda6"/><path d="m359.011719 474.019531h-89.164063c-4.222656 0-7.640625 3.421875-7.640625 7.640625v22.699219c0 4.21875 3.417969 7.640625 7.640625 7.640625h89.164063c4.21875 0 7.640625-3.421875 7.640625-7.640625v-22.699219c0-4.21875-3.421875-7.640625-7.640625-7.640625zm0 0" fill="#7fd19b"/><path d="m359.011719 474.019531h-44.582031v37.980469h44.582031c4.21875 0 7.640625-3.421875 7.640625-7.640625v-22.699219c0-4.21875-3.421875-7.640625-7.640625-7.640625zm0 0" fill="#3cab8b"/><path d="m374.035156 403.511719c-1.8125 0-3.632812-.632813-5.097656-1.921875-3.207031-2.820313-3.519531-7.699219-.703125-10.90625 0 0 23.882813-21.921875 27.085937-19.105469 3.207032 2.816406-15.480468 29.308594-15.480468 29.308594-1.527344 1.738281-3.660156 2.625-5.804688 2.625zm0 0" fill="#edbda6"/><path d="m371.472656 237.695312c0 67.757813-54.929687 122.683594-122.683594 122.683594-67.753906 0-122.679687-54.925781-122.679687-122.683594 0-67.753906 54.925781-122.679687 122.679687-122.679687 67.753907 0 122.683594 54.925781 122.683594 122.679687zm0 0" fill="#ff8533"/><path d="m343.535156 237.695312c0 52.328126-42.417968 94.746094-94.746094 94.746094-52.324218 0-94.742187-42.417968-94.742187-94.746094 0-52.324218 42.417969-94.742187 94.742187-94.742187 52.328126 0 94.746094 42.417969 94.746094 94.742187zm0 0" fill="#fcdf6c"/><path d="m248.789062 142.953125c-8.976562 0-17.664062 1.25-25.894531 3.582031 39.742188 11.265625 68.851563 47.8125 68.851563 91.160156 0 43.347657-29.109375 79.898438-68.851563 91.164063 8.230469 2.332031 16.917969 3.582031 25.894531 3.582031 52.328126 0 94.746094-42.417968 94.746094-94.746094 0-52.324218-42.417968-94.742187-94.746094-94.742187zm0 0" fill="#f4b425"/><g fill="#e4eaf7"><path d="m426.117188 92.492188 9.410156 25.03125 26.714844 1.214843c2.9375.132813 4.136718 3.835938 1.839843 5.667969l-20.894531 16.6875 7.097656 25.777344c.777344 2.835937-2.371094 5.125-4.824218 3.503906l-22.324219-14.714844-22.328125 14.714844c-2.453125 1.621094-5.601563-.667969-4.824219-3.503906l7.097656-25.777344-20.894531-16.6875c-2.296875-1.832031-1.09375-5.535156 1.839844-5.667969l26.714844-1.214843 9.410156-25.03125c1.039062-2.75 4.929687-2.75 5.964844 0zm0 0"/><path d="m77.421875 92.492188 9.414063 25.03125 26.710937 1.214843c2.9375.132813 4.140625 3.835938 1.84375 5.667969l-20.898437 16.6875 7.097656 25.777344c.78125 2.835937-2.367188 5.125-4.820313 3.503906l-22.328125-14.714844-22.324218 14.714844c-2.457032 1.621094-5.605469-.667969-4.824219-3.503906l7.097656-25.777344-20.898437-16.6875c-2.296876-1.832031-1.09375-5.535156 1.84375-5.667969l26.710937-1.214843 9.414063-25.03125c1.035156-2.75 4.929687-2.75 5.960937 0zm0 0"/><path d="m251.769531 2.0625 9.414063 25.03125 26.710937 1.214844c2.9375.136718 4.140625 3.835937 1.84375 5.671875l-20.898437 16.683593 7.097656 25.78125c.78125 2.832032-2.367188 5.121094-4.824219 3.503907l-22.324219-14.71875-22.324218 14.71875c-2.453125 1.617187-5.605469-.667969-4.824219-3.503907l7.097656-25.78125-20.898437-16.683593c-2.296875-1.835938-1.09375-5.535157 1.84375-5.667969l26.714844-1.21875 9.410156-25.027344c1.035156-2.753906 4.925781-2.753906 5.960937-.003906zm0 0"/></g><path d="m246.394531 278.066406c-16.046875-.261718-26.917969-8.929687-26.917969-15.273437 0-3.105469 2.71875-7.375 5.953126-7.375 4.269531 0 7.765624 9.058593 20.964843 10.09375v-30.414063c-11.648437-4.140625-24.589843-8.800781-24.589843-25.363281 0-16.308594 12.296874-22.777344 24.589843-24.074219v-3.75c0-1.554687 1.554688-2.976562 3.753907-2.976562 1.941406 0 3.882812 1.421875 3.882812 2.976562v3.492188c8.800781.257812 21.222656 2.976562 21.222656 9.320312 0 2.457032-1.808594 7.375-5.691406 7.375-3.109375 0-6.472656-4.140625-15.53125-4.789062v26.273437c11.261719 4.140625 23.554688 9.835938 23.554688 27.4375 0 15.917969-9.578126 24.714844-23.554688 26.660157v4.398437c0 1.550781-1.941406 2.976563-3.882812 2.976563-2.199219 0-3.753907-1.425782-3.753907-2.976563zm.777344-56.945312v-23.554688c-7.246094.90625-12.425781 4.144532-12.425781 10.871094 0 7.378906 5.566406 10.09375 12.425781 12.683594zm6.082031 16.824218v27.308594c6.988282-1.296875 11.390625-5.4375 11.390625-12.8125 0-8.152344-5.046875-11.777344-11.390625-14.496094zm0 0" fill="#f8fbff"/></svg>