<svg id="Capa_1" enable-background="new 0 0 512 512" height="512" viewBox="0 0 512 512" width="512" xmlns="http://www.w3.org/2000/svg"><g><circle cx="247.312" cy="243.895" fill="#f07281" r="243.893"/><path d="m257.612 487.574c-3.41.144-6.851.216-10.302.216-134.696 0-243.895-109.199-243.895-243.895s109.199-243.895 243.895-243.895c3.451 0 6.892.072 10.302.216-129.917 5.398-233.594 112.434-233.594 243.679s103.677 238.281 233.594 243.679z" fill="#eb5569"/><circle cx="247.312" cy="243.895" fill="#eaf6ff" r="211.896"/><path d="m262.762 455.237c-5.099.371-10.261.556-15.453.556-117.029 0-211.898-94.869-211.898-211.898s94.87-211.898 211.899-211.898c5.192 0 10.353.185 15.453.556-109.818 7.913-196.446 99.506-196.446 211.342s86.628 203.43 196.445 211.342z" fill="#d8ecfe"/><path d="m234.064 120.531 9.459-6.09c2.308-1.486 5.271-1.486 7.579 0l9.459 6.09c1.715 1.104 2.752 3.005 2.752 5.045v121.152h-32v-121.152c-.001-2.04 1.036-3.94 2.751-5.045z" fill="#5680a6"/><path d="m257.612 118.636-5.697 3.667v124.425h-20.604v-120.607c0-2.38 1.209-4.597 3.21-5.885l8.998-5.794c2.308-1.486 5.272-1.486 7.58 0z" fill="#497090"/><path d="m347.28 247.685-5.794 8.999c-1.289 2.001-3.505 3.21-5.885 3.21h-88.29v-31.997h88.29c2.38 0 4.597 1.209 5.885 3.21l5.794 8.999c1.486 2.308 1.486 5.271 0 7.579z" fill="#5680a6"/><path d="m290.32 243.895c0 5.656-1.092 11.054-3.091 15.999h-39.92v-31.997h39.92c1.999 4.945 3.091 10.343 3.091 15.998z" fill="#497090"/><circle cx="247.312" cy="243.895" fill="#f07281" r="22.406"/><path d="m257.612 263.788c-3.08 1.607-6.583 2.514-10.302 2.514-12.372 0-22.406-10.034-22.406-22.406s10.034-22.406 22.406-22.406c3.719 0 7.222.907 10.302 2.514-7.191 3.719-12.105 11.239-12.105 19.893s4.914 16.172 12.105 19.891z" fill="#eb5569"/><path d="m508.586 420.062v-15.983c0-3.192-2.16-5.98-5.251-6.778l-17.355-4.479c-1.932-7.786-5.002-15.122-9.035-21.815l9.104-15.438c1.622-2.75 1.177-6.248-1.08-8.506l-11.302-11.302c-2.257-2.257-5.756-2.702-8.506-1.08l-15.438 9.104c-6.693-4.034-14.029-7.103-21.815-9.035l-4.479-17.355c-.798-3.091-3.586-5.251-6.778-5.251h-15.983c-3.192 0-5.98 2.16-6.778 5.251l-4.479 17.355c-7.786 1.932-15.122 5.002-21.815 9.035l-15.438-9.104c-2.75-1.622-6.248-1.177-8.506 1.08l-11.302 11.302c-2.257 2.257-2.701 5.756-1.08 8.506l9.104 15.438c-4.034 6.693-7.103 14.029-9.035 21.815l-17.355 4.479c-3.091.798-5.251 3.586-5.251 6.778v15.983c0 3.192 2.16 5.98 5.251 6.778l17.355 4.479c1.932 7.786 5.002 15.122 9.035 21.815l-9.104 15.438c-1.622 2.75-1.177 6.248 1.08 8.506l11.302 11.302c2.257 2.257 5.756 2.701 8.506 1.08l15.438-9.104c6.693 4.034 14.029 7.103 21.815 9.035l4.479 17.355c.798 3.091 3.586 5.251 6.778 5.251h15.983c3.192 0 5.98-2.16 6.778-5.251l4.479-17.355c7.786-1.932 15.122-5.002 21.815-9.035l15.438 9.104c2.75 1.622 6.248 1.177 8.506-1.08l11.302-11.302c2.257-2.257 2.701-5.756 1.08-8.506l-9.104-15.438c4.034-6.693 7.103-14.029 9.035-21.815l17.355-4.479c3.091-.798 5.251-3.586 5.251-6.778z" fill="#88b4f5"/><g fill="#6ea2f2"><path d="m329.343 398.659v26.826l22.602 5.831c1.926 7.788 4.996 15.123 9.035 21.819l-11.857 20.109 11.322 11.322-8.289 4.889c-2.75 1.622-6.249 1.178-8.506-1.08l-11.297-11.297c-2.257-2.257-2.701-5.756-1.08-8.505l9.103-15.438c-4.038-6.696-7.108-14.031-9.035-21.819l-17.351-4.476c-3.091-.797-5.251-3.586-5.251-6.778v-15.982c0-3.191 2.159-5.979 5.249-6.777l17.354-4.485c1.926-7.778 4.996-15.123 9.035-21.809l-9.104-15.44c-1.621-2.749-1.177-6.247 1.079-8.504l11.299-11.305c2.257-2.259 5.757-2.703 8.507-1.081l8.287 4.888-11.322 11.333 11.857 20.109c-4.038 6.686-7.108 14.031-9.035 21.809z"/><path d="m410.016 489.388 5.831 22.612h-15.18c-3.193 0-5.981-2.16-6.778-5.252l-4.477-17.36c-3.657-.896-7.222-2.06-10.662-3.461l9.447-5.573c6.696 4.037 14.031 7.107 21.819 9.034z"/><path d="m400.667 312.145h15.18l-5.831 22.602c-7.788 1.937-15.123 5.007-21.819 9.035l-9.447-5.573c3.441-1.391 7.005-2.555 10.662-3.461l4.476-17.351c.798-3.092 3.587-5.252 6.779-5.252z"/></g><circle cx="408.66" cy="412.07" fill="#5680a6" r="48.159"/><path d="m424.109 457.699c-4.852 1.648-10.055 2.534-15.453 2.534-26.589 0-48.151-21.562-48.151-48.161s21.562-48.161 48.151-48.161c5.398 0 10.6.886 15.453 2.534-19.007 6.439-32.698 24.436-32.698 45.627s13.691 39.188 32.698 45.627z" fill="#497090"/><g><g><g><g><path d="m247.312 90.592c-4.267 0-7.726-3.459-7.726-7.726v-19.959c0-4.267 3.459-7.726 7.726-7.726s7.726 3.459 7.726 7.726v19.958c0 4.267-3.459 7.727-7.726 7.727z" fill="#88b4f5"/></g><g><path d="m247.312 432.61c-4.267 0-7.726-3.459-7.726-7.726v-19.958c0-4.267 3.459-7.726 7.726-7.726s7.726 3.459 7.726 7.726v19.958c0 4.266-3.459 7.726-7.726 7.726z" fill="#88b4f5"/></g></g><g><g><path d="m86.282 251.622h-19.958c-4.267 0-7.726-3.459-7.726-7.726s3.459-7.726 7.726-7.726h19.958c4.267 0 7.726 3.459 7.726 7.726s-3.459 7.726-7.726 7.726z" fill="#88b4f5"/></g><g><path d="m428.3 251.622h-19.958c-4.268 0-7.726-3.459-7.726-7.726s3.459-7.726 7.726-7.726h19.958c4.268 0 7.726 3.459 7.726 7.726s-3.459 7.726-7.726 7.726z" fill="#88b4f5"/></g></g><g><g><path d="m90.579 342.117c-2.67 0-5.267-1.386-6.698-3.865-2.134-3.695-.868-8.421 2.828-10.554l17.284-9.979c3.693-2.132 8.42-.868 10.554 2.828 2.134 3.695.868 8.421-2.828 10.554l-17.284 9.979c-1.216.703-2.545 1.037-3.856 1.037z" fill="#88b4f5"/></g><g><path d="m386.776 171.108c-2.67 0-5.267-1.386-6.698-3.865-2.134-3.695-.867-8.421 2.828-10.554l17.284-9.979c3.694-2.133 8.42-.868 10.554 2.828 2.134 3.695.867 8.421-2.828 10.554l-17.284 9.979c-1.217.703-2.546 1.037-3.856 1.037z" fill="#88b4f5"/></g></g><g><g><path d="m107.849 171.108c-1.311 0-2.639-.334-3.856-1.037l-17.284-9.979c-3.696-2.134-4.962-6.859-2.828-10.554 2.133-3.696 6.858-4.963 10.554-2.828l17.284 9.979c3.696 2.134 4.962 6.859 2.828 10.554-1.431 2.479-4.028 3.865-6.698 3.865z" fill="#88b4f5"/></g></g><g><g><path d="m156.811 408.363c-1.311 0-2.639-.334-3.856-1.037-3.696-2.134-4.962-6.859-2.828-10.554l9.979-17.284c2.133-3.696 6.859-4.963 10.554-2.828 3.696 2.134 4.962 6.859 2.828 10.554l-9.979 17.284c-1.431 2.479-4.028 3.865-6.698 3.865z" fill="#88b4f5"/></g><g><path d="m327.82 112.167c-1.311 0-2.639-.334-3.856-1.037-3.695-2.133-4.962-6.859-2.828-10.554l9.979-17.284c2.133-3.696 6.857-4.962 10.554-2.828 3.695 2.133 4.962 6.859 2.828 10.554l-9.979 17.284c-1.431 2.479-4.028 3.865-6.698 3.865z" fill="#88b4f5"/></g></g><g><g><path d="m166.804 112.167c-2.67 0-5.267-1.386-6.698-3.865l-9.979-17.284c-2.134-3.695-.868-8.421 2.828-10.554 3.694-2.134 8.421-.868 10.554 2.828l9.979 17.284c2.134 3.695.868 8.421-2.828 10.554-1.216.702-2.545 1.037-3.856 1.037z" fill="#88b4f5"/></g></g></g></g></g></svg>