<svg id="svg17040" height="512" viewBox="0 0 16.933333 16.933334" width="512" xmlns="http://www.w3.org/2000/svg" xmlns:svg="http://www.w3.org/2000/svg"><g id="layer1" transform="translate(0 -280.067)"><path id="path7833" d="m11.376555 286.94588a.26460982.26460982 0 0 0 -.26368.26368v6.35156a.26460982.26460982 0 0 0 .26368.26367h4.76172a.26460982.26460982 0 0 0 .26562-.26367v-3.17578a.26460982.26460982 0 0 0 -.0117-.0762l-.78711-2.625c-.0383-.1786-.11275-.35417-.24219-.4961-.12943-.14193-.32733-.24219-.54687-.24219z" fill="#ff6b6b" font-variant-ligatures="normal" font-variant-position="normal" font-variant-caps="normal" font-variant-numeric="normal" font-variant-alternates="normal" font-feature-settings="normal" text-indent="0" text-align="start" text-decoration-line="none" text-decoration-style="solid" text-decoration-color="#000000" text-transform="none" text-orientation="mixed" white-space="normal" shape-padding="0" isolation="auto" mix-blend-mode="normal" solid-color="#000000" solid-opacity="1" vector-effect="none"/><path id="path7835" d="m2.3804542 284.8287c-.43516 0-.79297.35976-.79297.79492v8.20104h10.0546908v-8.20104c0-.43516-.35976-.79492-.79492-.79492z" fill="#dbe9ee" font-variant-ligatures="normal" font-variant-position="normal" font-variant-caps="normal" font-variant-numeric="normal" font-variant-alternates="normal" font-feature-settings="normal" text-indent="0" text-align="start" text-decoration-line="none" text-decoration-style="solid" text-decoration-color="#000000" text-transform="none" text-orientation="mixed" white-space="normal" shape-padding="0" isolation="auto" mix-blend-mode="normal" solid-color="#000000" solid-opacity="1" vector-effect="none"/><path id="path7837" d="m12.435145 288.00252a.26460982.26460982 0 0 0 -.26562.26563v1.58789a.26460982.26460982 0 0 0 .26562.26367h.68359l.45118.45313a.26460982.26460982 0 0 0 .1875.0762h1.27539a.26460982.26460982 0 0 0 .2539-.33984l-.63476-2.11719a.26460982.26460982 0 0 0 -.25391-.18946z" fill="#33b9ef" font-variant-ligatures="normal" font-variant-position="normal" font-variant-caps="normal" font-variant-numeric="normal" font-variant-alternates="normal" font-feature-settings="normal" text-indent="0" text-align="start" text-decoration-line="none" text-decoration-style="solid" text-decoration-color="#000000" text-transform="none" text-orientation="mixed" white-space="normal" shape-padding="0" isolation="auto" mix-blend-mode="normal" solid-color="#000000" solid-opacity="1" vector-effect="none"/><path id="path7839" d="m1.5874842 293.29549v1.32227c-.0005504.14617.11751.2651.26368.26562h14.2871108c.14693.00056.26618-.11869.26562-.26562 0-.44076 0-.88151 0-1.32227z" fill="#2f5c7e" font-variant-ligatures="normal" font-variant-position="normal" font-variant-caps="normal" font-variant-numeric="normal" font-variant-alternates="normal" font-feature-settings="normal" text-indent="0" text-align="start" text-decoration-line="none" text-decoration-style="solid" text-decoration-color="#000000" text-transform="none" text-orientation="mixed" white-space="normal" shape-padding="0" isolation="auto" mix-blend-mode="normal" solid-color="#000000" solid-opacity="1" vector-effect="none"/><path id="path7841" d="m13.493735 292.7662c-1.01974 0-1.85156.83182-1.85156 1.85156s.83182 1.85351 1.85156 1.85351c1.01975 0 1.85157-.83377 1.85157-1.85351s-.83182-1.85156-1.85157-1.85156z" fill="#33658a" font-variant-ligatures="normal" font-variant-position="normal" font-variant-caps="normal" font-variant-numeric="normal" font-variant-alternates="normal" font-feature-settings="normal" text-indent="0" text-align="start" text-decoration-line="none" text-decoration-style="solid" text-decoration-color="#000000" text-transform="none" text-orientation="mixed" white-space="normal" shape-padding="0" isolation="auto" mix-blend-mode="normal" solid-color="#000000" solid-opacity="1" vector-effect="none"/><path id="path7843" d="m13.493735 293.82479c-.43523 0-.7949.35774-.79492.79297 0 .43524.35968.79492.79492.79492.43525 0 .79297-.35968.79297-.79492 0-.43525-.35773-.79297-.79297-.79297z" fill="#dbe9ee" font-variant-ligatures="normal" font-variant-position="normal" font-variant-caps="normal" font-variant-numeric="normal" font-variant-alternates="normal" font-feature-settings="normal" text-indent="0" text-align="start" text-decoration-line="none" text-decoration-style="solid" text-decoration-color="#000000" text-transform="none" text-orientation="mixed" white-space="normal" shape-padding="0" isolation="auto" mix-blend-mode="normal" solid-color="#000000" solid-opacity="1" vector-effect="none"/><path id="path7845" d="m12.435145 291.17831a.26464501.26464501 0 1 0 0 .52929h.5293a.26464501.26464501 0 1 0 0-.52929z" fill="#e86262" font-variant-ligatures="normal" font-variant-position="normal" font-variant-caps="normal" font-variant-numeric="normal" font-variant-alternates="normal" font-feature-settings="normal" text-indent="0" text-align="start" text-decoration-line="none" text-decoration-style="solid" text-decoration-color="#000000" text-transform="none" text-orientation="mixed" white-space="normal" shape-padding="0" isolation="auto" mix-blend-mode="normal" solid-color="#000000" solid-opacity="1" vector-effect="none"/><path id="path7847" d="m5.0269442 292.7662c-1.0197401 0-1.85156.83182-1.85156 1.85156s.8318199 1.85351 1.85156 1.85351c1.0197399 0 1.8515601-.83377 1.8515601-1.85351s-.8318202-1.85156-1.8515601-1.85156z" fill="#33658a" font-variant-ligatures="normal" font-variant-position="normal" font-variant-caps="normal" font-variant-numeric="normal" font-variant-alternates="normal" font-feature-settings="normal" text-indent="0" text-align="start" text-decoration-line="none" text-decoration-style="solid" text-decoration-color="#000000" text-transform="none" text-orientation="mixed" white-space="normal" shape-padding="0" isolation="auto" mix-blend-mode="normal" solid-color="#000000" solid-opacity="1" vector-effect="none"/><path id="path7849" d="m5.0269442 293.82479c-.43523 0-.7949102.35774-.7949199.79297 0 .43524.3596798.79492.7949199.79492.43525 0 .7929799-.35967.7929701-.79492 0-.43525-.3577302-.79297-.7929701-.79297z" fill="#dbe9ee" font-variant-ligatures="normal" font-variant-position="normal" font-variant-caps="normal" font-variant-numeric="normal" font-variant-alternates="normal" font-feature-settings="normal" text-indent="0" text-align="start" text-decoration-line="none" text-decoration-style="solid" text-decoration-color="#000000" text-transform="none" text-orientation="mixed" white-space="normal" shape-padding="0" isolation="auto" mix-blend-mode="normal" solid-color="#000000" solid-opacity="1" vector-effect="none"/><path id="path7935" d="m3.9680942 280.59549c-1.89649 0-3.43944003 1.54296-3.43945003 3.43945-.00001 1.30822.83365003 2.65631 1.64257003 3.70117.80893 1.04487 1.61914 1.78711 1.61914 1.78711a.26460982.26460982 0 0 0 .3574299 0s.80826-.74224 1.6171802-1.78711c.8089299-1.04486 1.6425799-2.39296 1.6425799-3.70117.00001-1.89649-1.5429601-3.43945-3.43945-3.43945z" fill="#ff6b6b" font-variant-ligatures="normal" font-variant-position="normal" font-variant-caps="normal" font-variant-numeric="normal" font-variant-alternates="normal" font-feature-settings="normal" text-indent="0" text-align="start" text-decoration-line="none" text-decoration-style="solid" text-decoration-color="#000000" text-transform="none" text-orientation="mixed" white-space="normal" shape-padding="0" isolation="auto" mix-blend-mode="normal" solid-color="#000000" solid-opacity="1" vector-effect="none"/><path id="path7947" d="m3.9680942 282.18338c-1.0197399 0-1.85156.83182-1.85156 1.85156 0 1.01975.8318201 1.85352 1.85156 1.85352s1.85156-.83377 1.85156-1.85352c0-1.01974-.8318201-1.85156-1.85156-1.85156z" fill="#dbe9ee" font-variant-ligatures="normal" font-variant-position="normal" font-variant-caps="normal" font-variant-numeric="normal" font-variant-alternates="normal" font-feature-settings="normal" text-indent="0" text-align="start" text-decoration-line="none" text-decoration-style="solid" text-decoration-color="#000000" text-transform="none" text-orientation="mixed" white-space="normal" shape-padding="0" isolation="auto" mix-blend-mode="normal" solid-color="#000000" solid-opacity="1" vector-effect="none"/></g></svg>